<svg xmlns="http://www.w3.org/2000/svg" width="47.873" height="53.035" viewBox="0 0 47.873 53.035">
    <g>
        <g>
            <g>
                <g>
                    <g>
                        <path fill="#0f2640" d="M135.69 143.062a15.568 15.568 0 1 0-31.137 0c0 .13.006.259.01.389h-.01v25.857a10.891 10.891 0 0 0 10.887-10.655h.006v-.738h.014v-4.972a4.662 4.662 0 0 1 9.324 0v4.972a15.576 15.576 0 0 0 10.906-14.853zm-15.568 4.662a4.662 4.662 0 1 1 4.662-4.662 4.662 4.662 0 0 1-4.663 4.662z" transform="rotate(-30 -154.24 267.258) translate(104.553 127.494) translate(-104.553 -127.494)"/>
                    </g>
                </g>
            </g>
        </g>
        <path fill="#ffce55" d="M152.058 127.656a7.946 7.946 0 0 0-9.371 6.2l-1.584 7.786a7.945 7.945 0 0 0 9.37-6.2z" transform="rotate(-30 -154.24 267.258) translate(-13.859)"/>
    </g>
</svg>
