<svg xmlns="http://www.w3.org/2000/svg" width="183.767" height="183.765" viewBox="0 0 183.767 183.765">
    <defs>
        <clipPath id="clip-path">
            <ellipse id="타원_335" cx="67.752" cy="68.138" class="cls-1" rx="67.752" ry="68.138"/>
        </clipPath>
        <clipPath id="clip-path-2">
            <rect id="사각형_874" width="18.219" height="14.852" class="cls-1" rx="4"/>
        </clipPath>
        <style>
            .cls-1{fill:none}.cls-5{fill:#83bde5}.cls-10,.cls-6,.cls-9{fill:#fff}.cls-6{opacity:.2}.cls-8{fill:#3c8f7c}.cls-9{opacity:.37;mix-blend-mode:screen;isolation:isolate}.cls-12{fill:#1a5948}.cls-13{fill:#875b30}.cls-15{fill:#ff1a1a}.cls-16{fill:#ffe600}.cls-17{fill:#aaa}.cls-18{fill:#eae9e7}.cls-19{fill:#2785f7}.cls-23{fill:#caecff}.cls-27{fill:#b7d7f7}.cls-30{fill:#f33}.cls-31{fill:#16adb9}
        </style>
    </defs>
    <g id="그룹_1514" transform="translate(-85.518 -183.888)">
        <path id="패스_816" fill="none" stroke="#16adb9" stroke-linecap="round" stroke-linejoin="round" stroke-miterlimit="10" stroke-width="2px" d="M50.627-150.854a78.315 78.315 0 0 1 78.316 78.316A78.315 78.315 0 0 1 50.627 5.775a78.313 78.313 0 0 1-78.315-78.313" transform="rotate(-10.02 2100.427 -621.308)"/>
        <g id="그룹_1753" transform="translate(-824.28 -840.863)">
            <g id="그룹_1750" transform="translate(934.482 1048.648)">
                <g id="그룹_1749" clip-path="url(#clip-path)">
                    <ellipse id="타원_330" cx="67.752" cy="68.138" fill="#3c196b" rx="67.752" ry="68.138"/>
                    <g id="그룹_1737" transform="translate(-25.26 52.656)">
                        <path id="패스_1634" d="M1104.118 1404.489l61.532-5.9-45.626-33-24.988-20.146-97.309 57.607z" class="cls-5" transform="translate(-975.994 -1345.447)"/>
                        <g id="그룹_1735" transform="translate(65.339)">
                            <path id="패스_1635" d="M1253.294 1404.254l-5-3.537-4.321-3.758v7.392l-25.447-12.54-10.587 1.072 23.852-29.764 29.85-17.671z" class="cls-6" transform="translate(-1207.942 -1345.447)"/>
                        </g>
                        <path id="패스_1636" d="M961.411 1417.234l39.589-3.794-29.356-21.232-16.078-12.962-62.61 37.065z" class="cls-5" transform="translate(-892.957 -1372.195)"/>
                        <g id="그룹_1736" transform="translate(12.131 7.051)">
                            <path id="패스_1637" d="M979.037 1414.372l-3.728-1.778h-8.476l-12.663-2.171-2.734-.561 5.7-2.22 25.867-16.809 18.908-11.588z" class="cls-6" transform="translate(-951.436 -1379.246)"/>
                        </g>
                    </g>
                    <path id="패스_1638" fill="#2a806c" d="M1349.811 1452.9l4.658 7.472 7.411-18.9 6.161 14.618 6.059-2.122 1.231 19.979-36.308 9.825z" transform="translate(-1271.753 -1368.782)"/>
                    <path id="패스_1639" d="M1064.223 1454.614l-4.665-14.794-46.533 4.79-5.565-12.533-6.558 11.457-4.706-15.193-3.459 4.277-3.752-11.748-5.365 10.141-8.586-30.687-17.353 51.314 42.436 4.264h20.4z" class="cls-8" transform="translate(-969.515 -1336.221)"/>
                    <path id="패스_1640" d="M1470.026 1502.645l-18.207-35.1-2.812 11.122-4.178-5.862-2.579 5.951-7.675-14.7-8.3 21.93-7.337-9.15-4.481 10.309-2.445-1.76-2.911 19.76 16.256-.053z" class="cls-8" transform="translate(-1327.294 -1386.656)"/>
                    <path id="패스_1641" d="M958.458 1281.659c2.458-.222 4.948-.008 7.413-.191a22.678 22.678 0 0 0 7.642-1.939 10.347 10.347 0 0 1 2.029-.789 11.8 11.8 0 0 1 2.952-.047 16.363 16.363 0 0 0 5.678-.791c.613-.2 1.3-.532 1.4-1.127.129-.759-.764-1.3-1.546-1.562s-1.718-.582-1.887-1.334c-.076-.338.026-.72-.172-1.013a1.279 1.279 0 0 0-.614-.4 24.732 24.732 0 0 0-8.217-1.547c-.379-.015-.766-.012-1.156 0a92.221 92.221 0 0 1 14.305-4.353c.317 0 .635-.008.952-.017 3.74-.1 7.761-.443 10.954 1.362a1.919 1.919 0 0 1 .969.965c.337 1.066-1.133 1.793-2.3 2.065-.183.739.87 1.158 1.676 1.29a49.5 49.5 0 0 1 7.641 1.886c1.761.587 3.715 1.525 4.062 3.227a3.352 3.352 0 0 1-1.477 3.2 8.538 8.538 0 0 1-3.622 1.359c-4.4.789-8.947.247-13.407.641a3.6 3.6 0 0 0-1.7.456c-.766.513-.971 1.474-1.507 2.2-1.064 1.432-3.2 1.693-5.07 1.788q-6.259.316-12.532.095a11.257 11.257 0 0 0-3.141.171 17.353 17.353 0 0 0-3 1.313 23.511 23.511 0 0 1-6.492 1.678 13.7 13.7 0 0 1-.039-8.007c.068-.201.134-.39.206-.579z" class="cls-9" transform="translate(-969.515 -1230.275)"/>
                    <path id="패스_1642" d="M1509.423 1217.278c-1.888-.222-3.8-.008-5.693-.191a14.289 14.289 0 0 1-5.869-1.939 4.522 4.522 0 0 0-3.826-.837 9.89 9.89 0 0 1-4.361-.791 1.554 1.554 0 0 1-1.074-1.126c-.1-.759.587-1.3 1.187-1.562s1.32-.582 1.449-1.334a3.534 3.534 0 0 1 .132-1.013 1.006 1.006 0 0 1 .472-.4 15.172 15.172 0 0 1 6.311-1.547c.291-.015.588-.012.888 0a59.343 59.343 0 0 0-10.987-4.353c-.244 0-.487-.008-.731-.017-2.872-.1-5.96-.443-8.413 1.362a1.764 1.764 0 0 0-.744.965c-.259 1.066.87 1.793 1.763 2.065.141.738-.668 1.158-1.287 1.29a30.971 30.971 0 0 0-5.868 1.886c-1.352.587-2.853 1.525-3.119 3.228a3.81 3.81 0 0 0 1.134 3.2 5.728 5.728 0 0 0 2.782 1.359c3.378.79 6.871.248 10.3.642a2.3 2.3 0 0 1 1.306.456c.588.513.746 1.474 1.157 2.2.817 1.432 2.454 1.693 3.893 1.788a86.165 86.165 0 0 0 9.624.094 6.693 6.693 0 0 1 2.412.172 12.015 12.015 0 0 1 2.3 1.313 14.819 14.819 0 0 0 4.986 1.678 17.689 17.689 0 0 0 .029-8.007c-.048-.203-.098-.393-.153-.581z" class="cls-9" transform="translate(-1375.255 -1179.324)"/>
                    <path id="사각형_857" d="M0 0H93.798V23.538H0z" class="cls-8" transform="translate(20.534 116.995)"/>
                    <path id="패스_1643" d="M1274.942 1247.594a4.649 4.649 0 0 0-1.936.092 6.939 6.939 0 0 0-8.369-3.718 8.553 8.553 0 0 0-15.393 1.486 5.774 5.774 0 0 0-2.966-.821 5.869 5.869 0 0 0 0 11.739 5.778 5.778 0 0 0 2.08-.391 8.06 8.06 0 0 0 13.087.249 6.95 6.95 0 0 0 10.535-.786 4.338 4.338 0 0 0 2.7.939 4.4 4.4 0 0 0 .266-8.788z" class="cls-10" transform="translate(-1193.621 -1209.182)"/>
                    <path id="패스_1644" d="M999.115 1203.218a4.649 4.649 0 0 0-1.936.092 6.94 6.94 0 0 0-8.369-3.718 8.553 8.553 0 0 0-15.393 1.486 5.774 5.774 0 0 0-2.966-.821 5.869 5.869 0 0 0 0 11.739 5.778 5.778 0 0 0 2.08-.391 8.06 8.06 0 0 0 13.087.249 6.95 6.95 0 0 0 10.535-.786 4.337 4.337 0 0 0 2.7.939 4.4 4.4 0 0 0 .265-8.788z" class="cls-10" transform="translate(-975.011 -1174.063)"/>
                    <path id="패스_1645" d="M1403.178 1148.259a4.954 4.954 0 0 1 2 .092 7.2 7.2 0 0 1 6.51-4.033 7.358 7.358 0 0 1 2.139.315 8.965 8.965 0 0 1 15.907 1.486 6.12 6.12 0 0 1 3.065-.821 5.871 5.871 0 1 1 0 11.738 6.152 6.152 0 0 1-2.15-.391 8.494 8.494 0 0 1-13.525.249 7.338 7.338 0 0 1-10.887-.786 4.578 4.578 0 0 1-2.786.939 4.4 4.4 0 0 1-.274-8.788z" class="cls-10" transform="translate(-1319.233 -1130.569)"/>
                    <path id="사각형_858" fill="#262626" d="M0 0H122.638V41.246H0z" transform="translate(4.235 104.652)"/>
                    <g id="그룹_1738" transform="translate(111.652 57.233)">
                        <path id="패스_1646" d="M1582.8 1367.827a.865.865 0 0 1 1.5 0l3.742 6.518 3.742 6.518a.873.873 0 0 1-.751 1.309h-14.967a.873.873 0 0 1-.752-1.309l3.742-6.518z" class="cls-12" transform="translate(-1570.586 -1367.391)"/>
                        <path id="패스_1647" d="M1573.237 1399.333a1.119 1.119 0 0 1 1.943 0l4.837 8.425 4.837 8.425a1.128 1.128 0 0 1-.972 1.692h-19.346a1.128 1.128 0 0 1-.972-1.692l4.837-8.425z" class="cls-12" transform="translate(-1561.247 -1392.223)"/>
                        <path id="사각형_859" d="M0 0H6.037V13.809H0z" class="cls-13" transform="translate(9.736 34.592)"/>
                        <path id="패스_1648" d="M1564.772 1436.479a1.343 1.343 0 0 1 2.333 0l5.806 10.114 5.806 10.114a1.354 1.354 0 0 1-1.166 2.032h-23.225a1.354 1.354 0 0 1-1.166-2.032l5.806-10.114z" class="cls-12" transform="translate(-1552.977 -1421.53)"/>
                    </g>
                    <g id="그룹_1739" transform="translate(97.645 72.745)">
                        <path id="패스_1649" d="M1505.718 1442.043a.588.588 0 0 1 1.021 0l2.543 4.429 2.543 4.429a.593.593 0 0 1-.511.89h-10.17a.593.593 0 0 1-.511-.89l2.542-4.429z" class="cls-12" transform="translate(-1497.421 -1441.746)"/>
                        <path id="패스_1650" d="M1499.222 1463.451a.76.76 0 0 1 1.32 0l3.287 5.725 3.287 5.725a.767.767 0 0 1-.66 1.15h-13.146a.767.767 0 0 1-.66-1.15l3.287-5.725z" class="cls-12" transform="translate(-1491.075 -1458.619)"/>
                        <path id="사각형_860" d="M0 0H4.102V9.383H0z" class="cls-13" transform="translate(6.616 23.506)"/>
                        <path id="패스_1651" d="M1493.47 1488.692a.913.913 0 0 1 1.585 0l3.946 6.873 3.945 6.873a.92.92 0 0 1-.793 1.38h-15.782a.92.92 0 0 1-.793-1.38l3.945-6.873z" class="cls-12" transform="translate(-1485.455 -1478.534)"/>
                    </g>
                    <g id="그룹_1740" transform="translate(19.842 69.549)">
                        <path id="패스_1652" d="M1130.646 1426.723a.588.588 0 0 1 1.021 0l2.543 4.429 2.542 4.429a.593.593 0 0 1-.511.89h-10.17a.593.593 0 0 1-.511-.89l2.543-4.429z" class="cls-12" transform="translate(-1122.349 -1426.427)"/>
                        <path id="패스_1653" d="M1124.15 1448.132a.76.76 0 0 1 1.321 0l3.286 5.725 3.287 5.725a.767.767 0 0 1-.66 1.15h-13.146a.767.767 0 0 1-.66-1.15l3.287-5.725z" class="cls-12" transform="translate(-1116.003 -1443.301)"/>
                        <path id="사각형_861" d="M0 0H4.102V9.383H0z" class="cls-13" transform="translate(6.616 23.506)"/>
                        <path id="패스_1654" d="M1118.4 1473.374a.913.913 0 0 1 1.585 0l3.945 6.873 3.946 6.873a.92.92 0 0 1-.793 1.38H1111.3a.92.92 0 0 1-.793-1.38l3.945-6.873z" class="cls-12" transform="translate(-1110.383 -1463.215)"/>
                    </g>
                    <path id="사각형_862" fill="#b9c1bf" d="M0 0H4.175V45.931H0z" transform="translate(111.596 59.673)"/>
                    <ellipse id="타원_331" cx="15.086" cy="15.171" class="cls-10" rx="15.086" ry="15.171" transform="translate(98.647 36.284)"/>
                    <g id="그룹_1741" transform="translate(101.378 39.032)">
                        <path id="패스_1655" d="M1515.8 1304.988a12.424 12.424 0 1 1 12.354-12.424 12.4 12.4 0 0 1-12.354 12.424zm0-21.961a9.538 9.538 0 1 0 9.483 9.537 9.521 9.521 0 0 0-9.483-9.537z" class="cls-15" transform="translate(-1503.451 -1280.14)"/>
                    </g>
                    <g id="그룹_1742" transform="translate(104.682 42.621)">
                        <path id="패스_1678" d="M0 0l2.878-.008-.061 21.457-2.878.008z" class="cls-15" transform="rotate(-43.26 2.495 .99)"/>
                    </g>
                    <path id="패스_1656" d="M1132.908 1668.257h-21.987l-1.71-3.44h21.5z" class="cls-16" transform="translate(-1089.612 -1545.536)"/>
                    <path id="패스_1657" d="M1291.113 1668.257h-21.987l-1.71-3.44h21.5z" class="cls-16" transform="translate(-1215 -1545.536)"/>
                    <path id="패스_1658" d="M1449.318 1668.257h-21.987l-1.71-3.44h21.5z" class="cls-16" transform="translate(-1340.388 -1545.536)"/>
                    <path id="패스_1659" d="M1581.614 1668.257h-21.987l-1.71-3.44h21.5z" class="cls-16" transform="translate(-1445.24 -1545.536)"/>
                    <path id="사각형_864" d="M0 0H5.212V19H0z" class="cls-13" transform="translate(13.003 83.739)"/>
                    <g id="그룹_1743" transform="translate(-2.063 38.741)">
                        <path id="패스_1660" d="M1045.817 1279.349a1.191 1.191 0 0 1 2.068 0l5.148 8.968 5.148 8.968a1.2 1.2 0 0 1-1.034 1.8h-20.593a1.2 1.2 0 0 1-1.034-1.8l5.148-8.968z" class="cls-12" transform="translate(-1029.017 -1278.748)"/>
                        <path id="패스_1661" d="M1032.665 1322.7a1.539 1.539 0 0 1 2.674 0l6.655 11.592 6.655 11.592a1.553 1.553 0 0 1-1.337 2.329h-26.619a1.553 1.553 0 0 1-1.337-2.329l6.655-11.592z" class="cls-12" transform="translate(-1016.168 -1312.915)"/>
                        <path id="사각형_865" d="M0 0H8.306V19H0z" class="cls-13" transform="translate(13.396 47.595)"/>
                        <path id="패스_1662" d="M1021.017 1373.807a1.848 1.848 0 0 1 3.21 0l7.989 13.916 7.989 13.916a1.864 1.864 0 0 1-1.6 2.8h-31.956a1.864 1.864 0 0 1-1.6-2.8l7.989-13.916z" class="cls-12" transform="translate(-1004.788 -1353.239)"/>
                    </g>
                    <g id="그룹_1744" transform="translate(28.013 55.65)">
                        <path id="패스_1663" d="M1181.469 1360.262a.92.92 0 0 1 1.6 0l3.977 6.927 3.977 6.927a.928.928 0 0 1-.8 1.391h-15.907a.928.928 0 0 1-.8-1.391l3.977-6.927z" class="cls-12" transform="translate(-1168.492 -1359.798)"/>
                        <path id="패스_1664" d="M1171.31 1393.748a1.189 1.189 0 0 1 2.065 0l5.141 8.954 5.141 8.954a1.2 1.2 0 0 1-1.033 1.8h-20.562a1.2 1.2 0 0 1-1.033-1.8l5.141-8.954z" class="cls-12" transform="translate(-1158.567 -1386.191)"/>
                        <path id="사각형_866" d="M0 0H6.416V14.676H0z" class="cls-13" transform="translate(10.348 36.765)"/>
                        <path id="패스_1665" d="M1162.313 1433.227a1.427 1.427 0 0 1 2.479 0l6.171 10.749 6.171 10.75a1.44 1.44 0 0 1-1.24 2.159h-24.684a1.44 1.44 0 0 1-1.24-2.159l6.171-10.75z" class="cls-12" transform="translate(-1149.776 -1417.339)"/>
                    </g>
                    <ellipse id="타원_332" cx="67.752" cy="68.138" class="cls-1" rx="67.752" ry="68.138"/>
                    <g id="그룹_1748" transform="translate(25.012 54.229)">
                        <rect id="사각형_867" width="20.02" height="7.563" class="cls-17" rx="3.782" transform="translate(22.686)"/>
                        <rect id="사각형_868" width="2.307" height="12.559" class="cls-18" rx="1.153" transform="translate(69.511 46.8)"/>
                        <rect id="사각형_869" width="2.32" height="11.335" class="cls-18" rx="1.16" transform="rotate(90 9.066 67.265)"/>
                        <rect id="사각형_870" width="9.816" height="3.32" class="cls-19" rx="1.66" transform="translate(69.511 43.48)"/>
                        <path id="사각형_871" d="M5 0h28.861a23 23 0 0 1 23 23v16.482a7 7 0 0 1-7 7H23a23 23 0 0 1-23-23V5a5 5 0 0 1 5-5z" class="cls-18" transform="translate(19.289 3.782)"/>
                        <path id="패스_1666" d="M1138.083 1394.357v7.126c.012 10.556 11.334 16.116 22.67 16.116 13.177 0 23.86-10.406 23.86-23.241s-10.682-23.241-23.86-23.241-22.67 10.404-22.67 23.24z" class="cls-18" transform="translate(-1137.508 -1367.334)"/>
                        <path id="패스_1667" d="M1213.658 1516.679h-75.572s-.524 15.249 15.46 16.116 60.113 0 60.113 0z" class="cls-19" transform="translate(-1137.508 -1482.53)"/>
                        <rect id="사각형_872" width="19.126" height="32.94" fill="#dbdbdb" rx="6" transform="translate(44.359 15.742)"/>
                        <g id="그룹_1746" transform="translate(14.641 12.014)">
                            <g id="그룹_1745" clip-path="url(#clip-path-2)">
                                <path id="사각형_873" fill="#286699" d="M0 0H18.219V14.852H0z"/>
                                <path id="패스_1668" d="M1215.526 1412.571a2.273 2.273 0 0 1-2.26-2.272l5.932-18.784a2.273 2.273 0 0 1 2.26-2.272 2.273 2.273 0 0 1 2.26 2.272l-5.932 18.784a2.273 2.273 0 0 1-2.26 2.272z" class="cls-23" transform="translate(-1211.736 -1393.693)"/>
                                <path id="패스_1669" d="M1236.756 1412.571h2.471a2.273 2.273 0 0 1-2.26-2.272l5.932-18.784a2.273 2.273 0 0 1 2.26-2.272c1.243 0-.212 1.023-.212 2.272l-5.932 18.784a2.273 2.273 0 0 1-2.259 2.272z" class="cls-23" transform="translate(-1230.354 -1393.693)"/>
                            </g>
                        </g>
                        <path id="사각형_875" d="M4.391 0h10.59a4.391 4.391 0 0 1 4.391 4.391H0A4.391 4.391 0 0 1 4.391 0z" class="cls-17" transform="translate(14.065 10.736)"/>
                        <ellipse id="타원_333" cx="10.308" cy="10.366" fill="#232728" stroke="#000" stroke-miterlimit="10" rx="10.308" ry="10.366" transform="translate(15.661 39.898)"/>
                        <path id="패스_1670" fill="#e5e5e5" d="M1243.931 1571.058a5.875 5.875 0 1 1-5.873-6.029 5.953 5.953 0 0 1 5.873 6.029z" transform="translate(-1212.089 -1520.794)"/>
                        <ellipse id="타원_334" cx="2.129" cy="2.141" fill="#232728" rx="2.129" ry="2.141" transform="translate(23.84 48.123)"/>
                        <g id="그룹_1747" transform="translate(43.544 13.639)">
                            <path id="사각형_876" d="M2 0h16.749a2 2 0 0 1 2 2v5.329H0V2a2 2 0 0 1 2-2z" class="cls-19"/>
                            <path id="사각형_877" d="M0 0H1.76V7.329H0z" class="cls-27" transform="translate(2.3)"/>
                            <path id="사각형_878" d="M0 0H1.76V7.329H0z" class="cls-27" transform="translate(5.859)"/>
                            <path id="사각형_879" d="M0 0H1.76V7.329H0z" class="cls-27" transform="translate(9.418)"/>
                            <path id="사각형_880" d="M0 0H1.76V7.329H0z" class="cls-27" transform="translate(12.977)"/>
                            <path id="사각형_881" d="M0 0H1.76V7.329H0z" class="cls-27" transform="translate(16.535)"/>
                        </g>
                        <rect id="사각형_882" width="7.274" height="5.308" fill="#ffb743" rx="2.654" transform="translate(0 35.279)"/>
                        <rect id="사각형_883" width="3.178" height="1.32" fill="#a8a8a8" rx=".66" transform="translate(45.618 30.893)"/>
                        <rect id="사각형_884" width="4.614" height="1.896" class="cls-30" rx=".948" transform="translate(10.028 39.898)"/>
                        <rect id="사각형_885" width="4.614" height="1.896" class="cls-30" rx=".948" transform="translate(67.204 39.898)"/>
                    </g>
                </g>
            </g>
            <g id="그룹_1752" transform="translate(910.957 1035.633)">
                <circle id="타원_336" cx="31.913" cy="31.913" r="31.913" class="cls-31"/>
                <path id="패스_1671" d="M1113.945 1267.332l15.065 4.224-6.195-13.375z" class="cls-31" transform="translate(-1067.928 -1207.729)"/>
                <g id="그룹_1751" transform="translate(20.334 15.138)">
                    <path id="패스_1672" d="M1015.612 1119.976a6.888 6.888 0 0 0-.631 3.274 3.461 3.461 0 0 1-1.065 2.7 3.565 3.565 0 0 1-2.327 1.006 3.174 3.174 0 0 1-2.347-.829 3.618 3.618 0 0 1-1.046-2.88 12.227 12.227 0 0 1 .394-3.294 10.051 10.051 0 0 1 1.065-2.5 14.725 14.725 0 0 1 1.5-2.052q.829-.947 1.7-1.893a5.479 5.479 0 0 0 1.223-1.992 2.956 2.956 0 0 0 .079-1.637 2.417 2.417 0 0 0-.769-1.2 3.769 3.769 0 0 0-1.282-.73 4.06 4.06 0 0 0-1.5-.2 3.179 3.179 0 0 0-1.42.395 2.7 2.7 0 0 0-1.026 1.045 2.941 2.941 0 0 0-.316 1.716 4.869 4.869 0 0 1 .079 2.288 4.388 4.388 0 0 1-.789 1.736 3.6 3.6 0 0 1-1.3 1.065 3 3 0 0 1-1.459.316 6.2 6.2 0 0 1-1.479-.276 2.865 2.865 0 0 1-1.361-.947 4.614 4.614 0 0 1-.789-2.031 10.212 10.212 0 0 1 .158-3.491 6.652 6.652 0 0 1 .868-2.742 7.691 7.691 0 0 1 1.775-2.071 10.25 10.25 0 0 1 2.446-1.42 12.571 12.571 0 0 1 2.84-.789 14.829 14.829 0 0 1 2.958-.1 13.767 13.767 0 0 1 2.88.493 11.744 11.744 0 0 1 2.505 1.144 7.107 7.107 0 0 1 1.953 1.736 12.619 12.619 0 0 1 1.637 2.84 6.38 6.38 0 0 1 .454 2.919 7.17 7.17 0 0 1-1.026 3.018 12.529 12.529 0 0 1-2.761 3.136 9.218 9.218 0 0 0-1.821 2.247zm.039 13.2a4.1 4.1 0 0 1-.986 1.716 4.633 4.633 0 0 1-1.755 1.144 3.987 3.987 0 0 1-2.229.158 3.426 3.426 0 0 1-2.071-1.124 3.57 3.57 0 0 1-.809-1.874 4.028 4.028 0 0 1 .3-2.012 3.886 3.886 0 0 1 1.321-1.7 4.281 4.281 0 0 1 1.558-.552 4.784 4.784 0 0 1 1.834.039 3.907 3.907 0 0 1 1.677.73 3.267 3.267 0 0 1 1.124 1.558 3.169 3.169 0 0 1 .036 1.912z" class="cls-10" transform="translate(-1000.651 -1102.409)"/>
                </g>
            </g>
            <path id="패스_1673" d="M1211.949 1157.957l.474.866.866.474-.866.474-.474.866-.474-.866-.866-.474.866-.474z" class="cls-10" transform="translate(-236.782 -94.593)"/>
            <path id="패스_1674" d="M1371.3 1142.819l.474.866.866.474-.866.474-.474.866-.474-.866-.866-.474.866-.474z" class="cls-10" transform="translate(-362.698 -82.887)"/>
            <path id="패스_1675" d="M1192.831 1265.79l.474.866.866.474-.866.474-.474.866-.474-.866-.866-.474.866-.474z" class="cls-10" transform="translate(-221.675 -181.871)"/>
            <path id="패스_1676" d="M1424.151 1334.726l.474.866.866.474-.866.474-.474.866-.474-.866-.866-.474.866-.474z" class="cls-10" transform="translate(-404.461 -236.344)"/>
            <path id="패스_1677" d="M1025.417 1382.563l.474.866.866.474-.866.474-.474.866-.474-.866-.866-.474.866-.474z" class="cls-10" transform="translate(-87.477 -274.146)"/>
        </g>
    </g>
</svg>
