<svg xmlns="http://www.w3.org/2000/svg" width="15" height="15.736" viewBox="0 0 15 15.736">
    <circle cx="7.5" cy="7.5" r="7.5" fill="#fff" transform="translate(0 .736)"/>
    <g>
        <path fill="#16adb9" d="M-192.672-400.565a1.194 1.194 0 0 1 .9.412l2.111 2.206c.155.162.154.16.291-.023l3.882-5.164c.563-.749 1.125-1.5 1.693-2.245a1.129 1.129 0 0 1 1.229-.448 1.111 1.111 0 0 1 .858.834 1.1 1.1 0 0 1-.173.991c-.575.773-1.155 1.541-1.733 2.311l-2.685 3.574-1.8 2.369q-.549.729-1.088 1.466c-.082.113-.133.123-.233.018q-1.209-1.272-2.426-2.537l-1.656-1.728a1.18 1.18 0 0 1 .067-1.764 1.145 1.145 0 0 1 .763-.272z" transform="translate(2.8) translate(193.859 405.865)"/>
    </g>
</svg>
