<svg xmlns="http://www.w3.org/2000/svg" width="102.886" height="120.887" viewBox="0 0 102.886 120.887">
    <defs>
        <style>
            .cls-3{fill:#fff}.cls-2{fill:#00717a}.cls-4{fill:#150035}
        </style>
    </defs>
    <g id="그룹_1459" transform="translate(1131.701 -1062.401)">
        <g id="Bg" transform="translate(-1131.701 1062.401)"/>
        <g id="Layer_1" transform="translate(-1118.84 1077.512)">
            <g id="그룹_1452" transform="translate(0 42.892)">
                <g id="그룹_1450" transform="translate(.015 2.429)">
                    <path id="패스_1442" d="M-974.167 1447.993h-2.122a.172.172 0 0 1-.085-.023l-31.818-18.37a7.153 7.153 0 0 0-6.436-.267l-32.028 18.491a.172.172 0 0 1-.077.023l-2.379.122a.171.171 0 0 0-.162.171v2.057l.016.011a2.536 2.536 0 0 0 1.552 2.2l32.615 18.831a7.153 7.153 0 0 0 6.436.267l33.54-19.364a1.941 1.941 0 0 0 1.089-1.489l.016-1.6z" class="cls-2" transform="translate(1050.209 -1427.749)"/>
                    <path id="패스_1443" d="M-1016.1 1468.419a8.377 8.377 0 0 1-4.105-1.035l-32.615-18.83a3.713 3.713 0 0 1-2-2.522l-.035-.018v-2.548a1.111 1.111 0 0 1 1.037-1.112l2.205-.113 31.866-18.4a8.086 8.086 0 0 1 7.379.267l31.638 18.266h2.73l.288 2.015-.017 1.6a2.894 2.894 0 0 1-1.561 2.3l-33.538 19.363a6.649 6.649 0 0 1-3.272.767zm-36.874-23.378l.034.026-.021.532c-.03.413.385.919 1.083 1.323l32.615 18.83a6.222 6.222 0 0 0 5.493.266l33.539-19.363a1.107 1.107 0 0 0 .621-.754l.013-1.457-.027-.184h-1.562l-32.122-18.52a6.229 6.229 0 0 0-5.493-.267l-32.224 18.6-.3.036-1.647.083z" class="cls-2" transform="translate(1054.855 -1423.074)"/>
                </g>
                <g id="그룹_1451">
                    <path id="패스_1444" d="M-975.155 1437.652l-33.54 19.364a7.154 7.154 0 0 1-6.436-.267l-32.615-18.83c-1.9-1.1-2.112-2.763-.462-3.716l33.54-19.364a7.153 7.153 0 0 1 6.436.267l32.615 18.831c1.905 1.099 2.112 2.763.462 3.715z" class="cls-3" transform="translate(1050.263 -1413.255)"/>
                    <path id="패스_1445" d="M-1016.177 1453.925a8.383 8.383 0 0 1-4.105-1.036l-32.615-18.83a3.548 3.548 0 0 1-2.046-2.916 2.82 2.82 0 0 1 1.585-2.432l33.538-19.364a8.084 8.084 0 0 1 7.379.267l32.615 18.831a3.552 3.552 0 0 1 2.046 2.917 2.82 2.82 0 0 1-1.585 2.43l-33.538 19.364a6.647 6.647 0 0 1-3.274.769zm-.385-43.466a4.743 4.743 0 0 0-2.315.52l-33.539 19.363c-.241.139-.643.428-.643.8 0 .313.29.815 1.1 1.284l32.615 18.832a6.214 6.214 0 0 0 5.493.266l33.539-19.363c.241-.139.643-.428.643-.8 0-.313-.29-.814-1.1-1.286l-32.615-18.829a6.567 6.567 0 0 0-3.178-.787z" class="cls-4" transform="translate(1054.944 -1408.578)"/>
                </g>
            </g>
            <g id="그룹_1458" transform="translate(13.992)">
                <g id="그룹_1453" transform="translate(0 5.423)">
                    <path id="패스_1446" fill="#81d8cf" d="M-918.872 1244.156l-14.228-53.578h-18.025l-14.284 53.782c-1.325 4.419.9 8.937 6.589 12.352 9.228 5.54 24.188 5.54 33.416 0 5.687-3.412 7.856-8.137 6.532-12.556z" transform="translate(966.729 -1189.636)"/>
                    <path id="패스_1447" d="M-946.82 1257.107c-6.228 0-12.454-1.422-17.195-4.268-5.942-3.569-8.5-8.463-7.006-13.431l14.462-54.454h19.476l14.414 54.276c1.488 5.015-1.112 10.1-6.957 13.609-4.741 2.845-10.969 4.268-17.194 4.268zm-8.289-70.268l-14.091 53.051c-1.239 4.135 1.01 8.245 6.154 11.332 8.943 5.373 23.5 5.373 32.445 0 5.071-3.043 7.357-7.333 6.115-11.476l-14.05-52.906z" class="cls-4" transform="translate(971.436 -1184.954)"/>
                </g>
                <g id="그룹_1454" transform="translate(14.661)">
                    <path id="패스_1448" d="M-862.926 1159.869c3.52 2.113 3.52 5.539 0 7.652a13.606 13.606 0 0 1-12.746 0c-3.52-2.113-3.52-5.539 0-7.652a13.605 13.605 0 0 1 12.746 0z" class="cls-3" transform="translate(879.254 -1157.329)"/>
                    <path id="패스_1449" d="M-873.982 1165.318a13.545 13.545 0 0 1-6.858-1.731c-2-1.2-3.1-2.845-3.1-4.634s1.1-3.436 3.1-4.635a14.451 14.451 0 0 1 13.717 0c2 1.2 3.1 2.845 3.1 4.635s-1.1 3.435-3.1 4.634a13.547 13.547 0 0 1-6.859 1.731zm0-10.845a11.669 11.669 0 0 0-5.887 1.461 3.779 3.779 0 0 0-2.184 3.019 3.778 3.778 0 0 0 2.182 3.019 12.591 12.591 0 0 0 11.775 0 3.777 3.777 0 0 0 2.182-3.019 3.777 3.777 0 0 0-2.182-3.019 11.673 11.673 0 0 0-5.884-1.461z" class="cls-4" transform="translate(883.936 -1152.587)"/>
                </g>
                <g id="그룹_1455" transform="translate(18.892 3.608)">
                    <path id="패스_1450" d="M-848.956 1174.9a10.822 10.822 0 0 0-8.059 0c-2.225 1.037-2.225 2.719 0 3.757a10.823 10.823 0 0 0 8.059 0c2.225-1.041 2.225-2.723 0-3.757z" class="cls-2" transform="translate(858.684 -1174.119)"/>
                </g>
                <g id="그룹_1456" transform="translate(9.037 18.418)">
                    <path id="패스_1451" d="M-889.613 1277.945l-2.795-9.812h-.011c.46 1.954-.633 4-3.3 5.5-4.556 2.562-11.943 2.562-16.5 0-2.67-1.5-3.763-3.549-3.3-5.5h-.009l-2.862 10.192c-.778 2.552.573 5.269 4.076 7.238 5.733 3.224 15.029 3.224 20.762 0 3.674-2.063 4.925-4.91 3.939-7.618z" class="cls-3" transform="translate(919.552 -1267.191)"/>
                </g>
                <g id="그룹_1457" transform="translate(1.689 42.435)">
                    <path id="패스_1454" d="M-959.111 1417.517l-.106.5c-.875 3.73 1.225 7.431 5.762 10.154 8.3 4.985 21.8 4.985 30.1 0 4.537-2.723 6.637-6.424 5.762-10.154l-1.731-6.452a12.788 12.788 0 0 1-5.244 5.431c-7.657 4.6-20.118 4.6-27.778 0a12.833 12.833 0 0 1-5.221-5.378z" class="cls-3" transform="translate(961.356 -1405.853)"/>
                </g>
            </g>
        </g>
    </g>
</svg>
