<svg xmlns="http://www.w3.org/2000/svg" width="159.03" height="149.29" viewBox="0 0 159.03 149.29">
    <defs>
        <clipPath id="clip-path">
            <ellipse id="타원_328" cx="68.345" cy="68.466" class="cls-1" rx="68.345" ry="68.466"/>
        </clipPath>
        <clipPath id="clip-path-2">
            <path id="패스_1625" d="M614.382 1444.956l8.406 14.278h-23.757v-14.278z" class="cls-1" transform="translate(-599.031 -1444.956)"/>
        </clipPath>
        <style>
            .cls-1,.cls-23{fill:none}.cls-4{fill:#83bde5}.cls-5,.cls-8,.cls-9{fill:#fff}.cls-5{opacity:.2}.cls-7{fill:#3c8f7c}.cls-8{opacity:.37;mix-blend-mode:screen;isolation:isolate}.cls-11{fill:#1a5948}.cls-12{fill:#875b30}.cls-14{fill:#ff1a1a}.cls-15{fill:#ffe600}.cls-16{fill:#eceff8}.cls-17{fill:#16adb9}.cls-18{fill:#529cce}.cls-19{fill:#ff8f8f}.cls-20{fill:#3bb0ff}.cls-21{fill:#ffce31}.cls-22{fill:#86ff64}.cls-23{stroke:#232323;stroke-miterlimit:10}.cls-24{fill:#f33}.cls-26{fill:#caecff}.cls-27{fill:#232728}.cls-28{fill:#e5e5e5}
        </style>
    </defs>
    <g id="그룹_1734" transform="translate(-126.616 -1035.633)">
        <g id="그룹_1731" transform="translate(148.956 1047.992)">
            <g id="그룹_1730" clip-path="url(#clip-path)">
                <ellipse id="타원_321" cx="68.345" cy="68.466" fill="#ffb727" rx="68.345" ry="68.466"/>
                <g id="그룹_1715" transform="translate(-25.481 52.909)">
                    <path id="패스_1567" d="M320.708 1404.773l62.071-5.925-46.025-33.158-25.206-20.243-98.161 57.884z" class="cls-4" transform="translate(-191.464 -1345.447)"/>
                    <g id="그룹_1713" transform="translate(65.911)">
                        <path id="패스_1568" d="M469.351 1404.537l-5.041-3.554-4.359-3.777v7.427l-25.669-12.6-10.68 1.077 24.061-29.907 30.112-17.756z" class="cls-5" transform="translate(-423.602 -1345.447)"/>
                    </g>
                    <path id="패스_1569" d="M177.669 1417.417l39.937-3.812-29.613-21.334-16.218-13.025-63.158 37.244z" class="cls-4" transform="translate(-108.617 -1372.161)"/>
                    <g id="그룹_1714" transform="translate(12.237 7.085)">
                        <path id="패스_1570" d="M194.938 1414.542l-3.76-1.787h-8.55l-12.774-2.181-2.758-.563 5.754-2.231 26.093-16.89 19.074-11.643z" class="cls-5" transform="translate(-167.096 -1379.246)"/>
                    </g>
                </g>
                <path id="패스_1571" fill="#2a806c" d="M565.565 1452.954l4.7 7.508 7.476-18.993 6.215 14.688 6.112-2.132 1.242 20.075-36.625 9.872z" transform="translate(-486.824 -1368.432)"/>
                <path id="패스_1572" d="M280.814 1454.875l-4.706-14.865-46.94 4.813-5.614-12.593-6.615 11.513-4.747-15.266-3.489 4.3-3.785-11.8-5.412 10.19-8.661-30.834-17.505 51.561 42.807 4.284h20.581z" class="cls-7" transform="translate(-185.279 -1335.912)"/>
                <path id="패스_1573" d="M686.219 1502.831l-18.366-35.265-2.836 11.176-4.215-5.89-2.6 5.979-7.742-14.774-8.373 22.036-7.4-9.194-4.52 10.359-2.466-1.769-2.937 19.856 16.4-.054z" class="cls-7" transform="translate(-542.238 -1386.284)"/>
                <path id="패스_1574" d="M174.124 1281.732c2.479-.223 4.992-.008 7.478-.192a22.944 22.944 0 0 0 7.709-1.948 10.474 10.474 0 0 1 2.048-.793 11.951 11.951 0 0 1 2.978-.048 16.564 16.564 0 0 0 5.728-.794c.619-.2 1.309-.534 1.411-1.132.13-.763-.771-1.308-1.559-1.57s-1.733-.585-1.9-1.341c-.077-.34.026-.724-.173-1.018a1.29 1.29 0 0 0-.62-.4 25.03 25.03 0 0 0-8.289-1.554c-.382-.015-.772-.012-1.166 0a93.322 93.322 0 0 1 14.431-4.374c.32 0 .64-.008.96-.017 3.773-.105 7.828-.445 11.05 1.369a1.931 1.931 0 0 1 .978.97c.34 1.071-1.143 1.8-2.316 2.075-.185.742.878 1.163 1.691 1.3a50.09 50.09 0 0 1 7.708 1.895c1.776.59 3.747 1.533 4.1 3.243a3.362 3.362 0 0 1-1.489 3.215 8.631 8.631 0 0 1-3.654 1.365c-4.437.793-9.025.249-13.524.645a3.644 3.644 0 0 0-1.716.458c-.773.515-.98 1.481-1.52 2.206-1.073 1.438-3.224 1.7-5.114 1.8q-6.314.317-12.642.095a11.4 11.4 0 0 0-3.168.172 17.529 17.529 0 0 0-3.022 1.319 23.792 23.792 0 0 1-6.549 1.686 13.722 13.722 0 0 1-.039-8.045q.081-.303.19-.587z" class="cls-8" transform="translate(-185.279 -1230.101)"/>
                <path id="패스_1575" d="M725.43 1217.351c-1.9-.223-3.834-.008-5.743-.192a14.447 14.447 0 0 1-5.92-1.948 4.577 4.577 0 0 0-3.86-.84 10.011 10.011 0 0 1-4.4-.794 1.565 1.565 0 0 1-1.083-1.132c-.1-.763.592-1.308 1.2-1.57s1.331-.584 1.462-1.34a3.547 3.547 0 0 1 .133-1.018 1.014 1.014 0 0 1 .476-.4 15.352 15.352 0 0 1 6.366-1.554c.293-.015.593-.012.9 0a59.988 59.988 0 0 0-11.083-4.374c-.246 0-.492-.009-.738-.017-2.9-.105-6.012-.445-8.486 1.369a1.773 1.773 0 0 0-.751.97c-.261 1.071.878 1.8 1.778 2.075.142.742-.674 1.163-1.3 1.3a31.33 31.33 0 0 0-5.919 1.895c-1.364.59-2.878 1.532-3.147 3.243a3.821 3.821 0 0 0 1.144 3.215 5.789 5.789 0 0 0 2.806 1.365c3.408.793 6.931.249 10.387.645a2.321 2.321 0 0 1 1.318.458c.593.515.753 1.481 1.167 2.206.824 1.438 2.476 1.7 3.927 1.8a87.293 87.293 0 0 0 9.709.095 6.77 6.77 0 0 1 2.433.172 12.121 12.121 0 0 1 2.321 1.319 14.988 14.988 0 0 0 5.03 1.686 17.706 17.706 0 0 0 .03-8.046q-.073-.304-.157-.588z" class="cls-8" transform="translate(-590.088 -1179.215)"/>
                <path id="사각형_836" d="M0 0H94.619V23.652H0z" class="cls-7" transform="translate(20.713 117.558)"/>
                <path id="패스_1576" d="M490.9 1247.631a4.7 4.7 0 0 0-1.952.092 7.014 7.014 0 0 0-8.442-3.736 8.642 8.642 0 0 0-15.527 1.493 5.9 5.9 0 1 0-.894 10.577 8.149 8.149 0 0 0 13.2.25 7.029 7.029 0 0 0 10.627-.79 4.415 4.415 0 1 0 2.987-7.886z" class="cls-9" transform="translate(-408.872 -1209.034)"/>
                <path id="패스_1577" d="M215.076 1203.255a4.716 4.716 0 0 0-1.952.092 7.015 7.015 0 0 0-8.442-3.736 8.642 8.642 0 0 0-15.527 1.493 5.9 5.9 0 1 0-.894 10.577 8.149 8.149 0 0 0 13.2.25 7.029 7.029 0 0 0 10.627-.79 4.415 4.415 0 1 0 2.987-7.887z" class="cls-9" transform="translate(-190.762 -1173.96)"/>
                <path id="패스_1578" d="M618.874 1148.3a5.022 5.022 0 0 1 2.018.092 7.265 7.265 0 0 1 6.567-4.053 7.454 7.454 0 0 1 2.158.317 9.059 9.059 0 0 1 16.046 1.493 6.193 6.193 0 0 1 3.092-.825 5.9 5.9 0 1 1 0 11.795 6.226 6.226 0 0 1-2.169-.393 8.589 8.589 0 0 1-13.643.251 7.422 7.422 0 0 1-10.983-.791 4.629 4.629 0 0 1-2.81.944 4.417 4.417 0 1 1-.276-8.83z" class="cls-9" transform="translate(-534.195 -1130.522)"/>
                <path id="사각형_837" fill="#262626" d="M0 0H123.711V41.445H0z" transform="translate(4.272 105.155)"/>
                <g id="그룹_1716" transform="translate(112.629 57.509)">
                    <path id="패스_1579" d="M798.523 1367.829a.875.875 0 0 1 1.516 0l3.774 6.549 3.775 6.549a.877.877 0 0 1-.758 1.315h-15.1a.877.877 0 0 1-.758-1.315l3.775-6.549z" class="cls-11" transform="translate(-786.206 -1367.391)"/>
                    <path id="패스_1580" d="M788.983 1399.336a1.13 1.13 0 0 1 1.96 0l4.879 8.465 4.879 8.466a1.134 1.134 0 0 1-.98 1.7h-19.516a1.134 1.134 0 0 1-.98-1.7l4.879-8.466z" class="cls-11" transform="translate(-776.888 -1392.191)"/>
                    <path id="사각형_838" d="M0 0H6.09V13.875H0z" class="cls-12" transform="translate(9.821 34.758)"/>
                    <path id="패스_1581" d="M780.535 1436.482a1.357 1.357 0 0 1 2.353 0l5.857 10.163 5.857 10.163a1.361 1.361 0 0 1-1.177 2.041H770a1.361 1.361 0 0 1-1.177-2.041l5.857-10.163z" class="cls-11" transform="translate(-768.637 -1421.461)"/>
                </g>
                <g id="그룹_1717" transform="translate(98.5 73.095)">
                    <path id="패스_1582" d="M721.423 1442.044a.594.594 0 0 1 1.031 0l2.565 4.45 2.565 4.45a.6.6 0 0 1-.515.894h-10.261a.6.6 0 0 1-.515-.894l2.565-4.45z" class="cls-11" transform="translate(-713.053 -1441.746)"/>
                    <path id="패스_1583" d="M714.94 1463.453a.768.768 0 0 1 1.332 0l3.315 5.752 3.315 5.752a.77.77 0 0 1-.666 1.156h-13.26a.771.771 0 0 1-.666-1.156l3.315-5.752z" class="cls-11" transform="translate(-706.722 -1458.598)"/>
                    <path id="사각형_839" d="M0 0H4.138V9.429H0z" class="cls-12" transform="translate(6.674 23.619)"/>
                    <path id="패스_1584" d="M709.2 1488.695a.922.922 0 0 1 1.6 0l3.98 6.906 3.98 6.906a.925.925 0 0 1-.8 1.387h-15.92a.925.925 0 0 1-.8-1.387l3.98-6.906z" class="cls-11" transform="translate(-701.115 -1478.488)"/>
                </g>
                <g id="그룹_1718" transform="translate(20.015 69.884)">
                    <path id="패스_1585" d="M346.351 1426.725a.6.6 0 0 1 1.031 0l2.565 4.45 2.565 4.45a.6.6 0 0 1-.515.894h-10.26a.6.6 0 0 1-.515-.894l2.565-4.45z" class="cls-11" transform="translate(-337.982 -1426.427)"/>
                    <path id="패스_1586" d="M339.869 1448.134a.768.768 0 0 1 1.332 0l3.315 5.753 3.315 5.752a.77.77 0 0 1-.666 1.156H333.9a.77.77 0 0 1-.666-1.156l3.315-5.752z" class="cls-11" transform="translate(-331.65 -1443.279)"/>
                    <path id="사각형_840" d="M0 0H4.138V9.429H0z" class="cls-12" transform="translate(6.674 23.619)"/>
                    <path id="패스_1587" d="M334.128 1473.376a.922.922 0 0 1 1.6 0l3.98 6.906 3.98 6.906a.925.925 0 0 1-.8 1.387h-15.92a.925.925 0 0 1-.8-1.387l3.98-6.906z" class="cls-11" transform="translate(-326.042 -1463.169)"/>
                </g>
                <path id="사각형_841" fill="#b9c1bf" d="M0 0H4.211V46.153H0z" transform="translate(112.573 59.961)"/>
                <ellipse id="타원_322" cx="15.218" cy="15.244" class="cls-9" rx="15.218" ry="15.244" transform="translate(99.51 36.459)"/>
                <g id="그룹_1719" transform="translate(102.266 39.219)">
                    <path id="패스_1588" d="M731.573 1305.108a12.484 12.484 0 1 1 12.462-12.484 12.487 12.487 0 0 1-12.462 12.484zm0-22.067a9.583 9.583 0 1 0 9.566 9.583 9.586 9.586 0 0 0-9.566-9.583z" class="cls-14" transform="translate(-719.111 -1280.14)"/>
                </g>
                <g id="그룹_1720" transform="translate(105.598 42.826)">
                    <path id="패스_1679" d="M0 0h2.9l-.021 21.6h-2.9z" class="cls-14" transform="rotate(-43.26 2.508 .994)"/>
                </g>
                <path id="패스_1589" d="M348.775 1668.274H326.6l-1.725-3.456h21.686z" class="cls-15" transform="translate(-305.101 -1544.962)"/>
                <path id="패스_1590" d="M506.98 1668.274H484.8l-1.725-3.456h21.686z" class="cls-15" transform="translate(-430.201 -1544.962)"/>
                <path id="패스_1591" d="M665.185 1668.274h-22.179l-1.725-3.456h21.686z" class="cls-15" transform="translate(-555.301 -1544.962)"/>
                <path id="패스_1592" d="M797.481 1668.274H775.3l-1.725-3.456h21.686z" class="cls-15" transform="translate(-659.914 -1544.962)"/>
                <path id="사각형_843" d="M0 0H5.257V19.091H0z" class="cls-12" transform="translate(13.116 84.142)"/>
                <g id="그룹_1721" transform="translate(-2.081 38.928)">
                    <path id="패스_1593" d="M261.568 1279.352a1.2 1.2 0 0 1 2.086 0l5.193 9.011 5.193 9.011a1.207 1.207 0 0 1-1.043 1.81h-20.772a1.207 1.207 0 0 1-1.043-1.81l5.193-9.011z" class="cls-11" transform="translate(-244.621 -1278.748)"/>
                    <path id="패스_1594" d="M248.443 1322.7a1.556 1.556 0 0 1 2.7 0l6.713 11.648 6.709 11.652a1.56 1.56 0 0 1-1.348 2.34h-26.852a1.56 1.56 0 0 1-1.348-2.34l6.713-11.648z" class="cls-11" transform="translate(-231.801 -1312.871)"/>
                    <path id="사각형_844" d="M0 0H8.379V19.091H0z" class="cls-12" transform="translate(13.513 47.824)"/>
                    <path id="패스_1595" d="M236.819 1373.811a1.867 1.867 0 0 1 3.238 0l8.059 13.983 8.059 13.983a1.872 1.872 0 0 1-1.619 2.809H222.32a1.872 1.872 0 0 1-1.619-2.809l8.059-13.983z" class="cls-11" transform="translate(-220.448 -1353.144)"/>
                </g>
                <g id="그룹_1722" transform="translate(28.259 55.917)">
                    <path id="패스_1596" d="M397.2 1360.265a.93.93 0 0 1 1.612 0l4.011 6.96 4.012 6.961a.932.932 0 0 1-.806 1.4h-16.047a.932.932 0 0 1-.806-1.4l4.012-6.961z" class="cls-11" transform="translate(-384.109 -1359.798)"/>
                    <path id="패스_1597" d="M387.061 1393.75a1.2 1.2 0 0 1 2.083 0l5.185 9 5.185 9a1.2 1.2 0 0 1-1.042 1.807h-20.74a1.2 1.2 0 0 1-1.042-1.807l5.185-9z" class="cls-11" transform="translate(-374.206 -1386.157)"/>
                    <path id="사각형_845" d="M0 0H6.472V14.747H0z" class="cls-12" transform="translate(10.438 36.942)"/>
                    <path id="패스_1598" d="M378.082 1433.23a1.443 1.443 0 0 1 2.5 0l6.225 10.8 6.225 10.8a1.446 1.446 0 0 1-1.251 2.17h-24.9a1.446 1.446 0 0 1-1.25-2.17l6.225-10.8z" class="cls-11" transform="translate(-365.436 -1417.266)"/>
                </g>
                <ellipse id="타원_323" cx="68.345" cy="68.466" class="cls-1" rx="68.345" ry="68.466"/>
                <g id="그룹_1729" transform="translate(16.052 55.327)">
                    <rect id="사각형_846" width="65.744" height="45.109" class="cls-16" rx="12" transform="translate(3.345 3.49)"/>
                    <path id="사각형_847" d="M8.055 0H29.77a8.055 8.055 0 0 1 8.055 8.055v7.712a.343.343 0 0 1-.343.343H8.055A8.055 8.055 0 0 1 0 8.055 8.055 8.055 0 0 1 8.055 0z" class="cls-16" transform="translate(61.627 32.489)"/>
                    <path id="패스_1599" d="M610.2 1425.281l14.538 24.488-33.579-2.062v-20.621z" class="cls-16" transform="translate(-531.721 -1410.964)"/>
                    <rect id="사각형_848" width="101.768" height="5.413" class="cls-17" rx="2.707" transform="translate(0 43.186)"/>
                    <rect id="사각형_849" width="50.305" height="14.951" class="cls-16" rx="7.475" transform="translate(35.252 3.49)"/>
                    <path id="사각형_850" d="M2.832 0h2.754a2.833 2.833 0 0 1 2.832 2.833V6.05a2.832 2.832 0 0 1-2.832 2.832H2.832A2.832 2.832 0 0 1 0 6.05V2.832A2.832 2.832 0 0 1 2.832 0z" class="cls-18" transform="translate(7.597 15.594)"/>
                    <path id="사각형_851" d="M2.832 0h2.754a2.833 2.833 0 0 1 2.832 2.833V6.05a2.832 2.832 0 0 1-2.832 2.832H2.832A2.832 2.832 0 0 1 0 6.05V2.832A2.832 2.832 0 0 1 2.832 0z" class="cls-18" transform="translate(17.852 15.594)"/>
                    <path id="사각형_852" d="M2.832 0h2.754a2.833 2.833 0 0 1 2.832 2.833V6.05a2.832 2.832 0 0 1-2.832 2.832H2.832A2.832 2.832 0 0 1 0 6.05V2.832A2.832 2.832 0 0 1 2.832 0z" class="cls-18" transform="translate(28.107 15.594)"/>
                    <g id="그룹_1723" transform="translate(3.301 3.889)">
                        <path id="패스_1600" d="M325.716 1407.077l-1.263-1.917-1.263-1.917 2.289-.137 2.289-.137-1.026 2.054z" class="cls-19" transform="translate(-323.125 -1397.218)"/>
                        <path id="패스_1601" d="M347.084 1405.786l-1.263-1.917-1.263-1.917 2.289-.137 2.289-.137-1.026 2.054z" class="cls-20" transform="translate(-340.022 -1396.197)"/>
                        <path id="패스_1602" d="M368.31 1403.834l-1.3-1.892-1.3-1.892 2.286-.182 2.286-.182-.985 2.074z" class="cls-21" transform="translate(-356.746 -1394.623)"/>
                        <path id="패스_1603" d="M389.557 1402.443l-1.3-1.892-1.3-1.892 2.286-.182 2.286-.183-.985 2.074z" class="cls-19" transform="translate(-373.548 -1393.523)"/>
                        <path id="패스_1604" d="M410.774 1400.435l-1.314-1.882-1.314-1.882 2.284-.2 2.284-.2-.97 2.081z" class="cls-22" transform="translate(-390.304 -1391.925)"/>
                        <path id="패스_1605" d="M431.635 1398.466l-1.314-1.882-1.314-1.882 2.284-.2 2.284-.2-.97 2.081z" class="cls-20" transform="translate(-406.799 -1390.37)"/>
                        <path id="패스_1606" d="M452.892 1396.138l-1.348-1.858-1.348-1.858 2.28-.241 2.28-.241-.932 2.1z" class="cls-21" transform="translate(-423.554 -1388.502)"/>
                        <path id="패스_1607" d="M474.259 1393.623l-1.348-1.858-1.348-1.858 2.28-.241 2.28-.241-.932 2.1z" class="cls-22" transform="translate(-440.45 -1386.514)"/>
                        <path id="패스_1608" d="M495.218 1390.538l-1.414-1.808-1.414-1.808 2.27-.323 2.27-.323-.856 2.131z" class="cls-20" transform="translate(-456.919 -1384.025)"/>
                        <path id="패스_1609" d="M516.241 1387.609l-1.414-1.808-1.414-1.808 2.27-.323 2.27-.323-.856 2.131z" class="cls-19" transform="translate(-473.543 -1381.709)"/>
                        <path id="패스_1610" d="M537.318 1384.182l-1.449-1.78-1.449-1.78 2.263-.367 2.263-.368-.814 2.147z" class="cls-21" transform="translate(-490.154 -1378.975)"/>
                        <path id="패스_1611" d="M558.257 1380.428l-1.476-1.758-1.476-1.757 2.257-.4 2.258-.4-.781 2.16z" class="cls-22" transform="translate(-506.669 -1375.989)"/>
                        <path id="패스_1612" d="M322.879 1381.551s31.851-1.573 53.4-6.016" class="cls-23" transform="translate(-322.879 -1375.535)"/>
                    </g>
                    <g id="그룹_1724" transform="translate(48.878 3.549)">
                        <path id="패스_1613" d="M547.5 1378.927l-.852-2.132-.852-2.133 2.269.327 2.269.327-1.418 1.805z" class="cls-22" transform="translate(-544.728 -1374.505)"/>
                        <path id="패스_1614" d="M568.262 1381.76l-.852-2.132-.852-2.132 2.269.327 2.269.327-1.418 1.805z" class="cls-20" transform="translate(-561.145 -1376.745)"/>
                        <path id="패스_1615" d="M589.419 1384.642l-.891-2.116-.891-2.117 2.275.286 2.275.286-1.384 1.831z" class="cls-21" transform="translate(-577.813 -1379.047)"/>
                        <path id="패스_1616" d="M610.8 1387.057l-.891-2.117-.891-2.116 2.275.286 2.275.286-1.384 1.831z" class="cls-22" transform="translate(-594.718 -1380.956)"/>
                        <path id="패스_1617" d="M631.767 1389.429l-.966-2.083-.966-2.083 2.284.2 2.284.2-1.318 1.88z" class="cls-20" transform="translate(-611.18 -1382.884)"/>
                        <path id="패스_1618" d="M652.905 1391.364l-.966-2.083-.966-2.083 2.284.2 2.284.2-1.318 1.88z" class="cls-19" transform="translate(-627.895 -1384.413)"/>
                        <path id="패스_1619" d="M674.133 1393.151l-1.007-2.064-1.007-2.064 2.287.159 2.287.159-1.281 1.905z" class="cls-21" transform="translate(-644.617 -1385.856)"/>
                        <path id="패스_1620" d="M695.317 1394.518l-1.038-2.048-1.038-2.048 2.289.124 2.289.124-1.252 1.925z" class="cls-22" transform="translate(-661.319 -1386.962)"/>
                        <path id="패스_1621" d="M540.686 1373.913c10.855 1.582 25.13 3.336 36.776 3.648" class="cls-23" transform="translate(-540.686 -1373.913)"/>
                    </g>
                    <path id="사각형_853" d="M0 0H3.354V6.797H0z" class="cls-24" transform="translate(3.345 34.485)"/>
                    <path id="사각형_854" d="M0 0H3.354V1.035H0z" class="cls-24" transform="translate(3.345 32.397)"/>
                    <path id="사각형_855" d="M0 0H3.354V6.797H0z" class="cls-24" transform="translate(96.098 34.485)"/>
                    <g id="그룹_1726" transform="translate(61.086 18.441)">
                        <g id="그룹_1725" clip-path="url(#clip-path-2)">
                            <path id="패스_1622" d="M614.382 1444.956l8.406 14.278h-23.757v-14.278z" class="cls-18" transform="translate(-599.031 -1444.956)"/>
                            <path id="패스_1623" d="M597.171 1453.116h-4.345l8.172-19.2h4.345z" class="cls-26" transform="translate(-594.124 -1436.233)"/>
                            <path id="패스_1624" d="M622.452 1453.116h-1.675l8.172-19.2h1.675z" class="cls-26" transform="translate(-616.227 -1436.233)"/>
                        </g>
                    </g>
                    <g id="그룹_1727" transform="translate(11.789 40.07)">
                        <ellipse id="타원_324" cx="9.132" cy="9.148" class="cls-27" rx="9.132" ry="9.148"/>
                        <path id="패스_1626" d="M392.39 1571.391a5.289 5.289 0 1 1-5.287-5.407 5.348 5.348 0 0 1 5.287 5.407z" class="cls-28" transform="translate(-377.971 -1562.243)"/>
                        <ellipse id="타원_325" cx="1.124" cy="1.126" class="cls-27" rx="1.124" ry="1.126" transform="translate(8.008 8.022)"/>
                    </g>
                    <g id="그룹_1728" transform="translate(68.461 40.07)">
                        <ellipse id="타원_326" cx="9.132" cy="9.148" class="cls-27" rx="9.132" ry="9.148"/>
                        <path id="패스_1627" d="M663.222 1571.391a5.289 5.289 0 1 1-5.288-5.407 5.348 5.348 0 0 1 5.288 5.407z" class="cls-28" transform="translate(-648.803 -1562.243)"/>
                        <ellipse id="타원_327" cx="1.124" cy="1.126" class="cls-27" rx="1.124" ry="1.126" transform="translate(8.008 8.022)"/>
                    </g>
                    <path id="패스_1628" d="M348.648 1362.478v-5.495h16.312l5.912 5.923h-22.224z" class="cls-16" transform="translate(-339.954 -1356.984)"/>
                    <path id="패스_1629" d="M353.106 1440.259h-1.838l3.045-8.882h1.838z" class="cls-26" transform="translate(-342.026 -1415.783)"/>
                    <path id="패스_1630" d="M402.127 1440.259h-1.838l3.045-8.882h1.838z" class="cls-26" transform="translate(-380.789 -1415.783)"/>
                    <path id="패스_1631" d="M450.765 1440.259h-1.838l3.045-8.882h1.838z" class="cls-26" transform="translate(-419.25 -1415.783)"/>
                    <rect id="사각형_856" width=".962" height="2.86" class="cls-18" rx=".481" transform="translate(61.086 34.155)"/>
                </g>
            </g>
        </g>
        <g id="그룹_1733" transform="translate(126.616 1035.633)">
            <circle id="타원_329" cx="30.305" cy="30.305" r="30.305" class="cls-17"/>
            <path id="패스_1632" d="M329.6 1266.87l14.306 4.011-5.883-12.7z" class="cls-17" transform="translate(-285.907 -1210.272)"/>
            <g id="그룹_1732" transform="translate(19.309 14.375)">
                <path id="패스_1633" d="M230.517 1119.09a6.545 6.545 0 0 0-.6 3.109 3.287 3.287 0 0 1-1.012 2.566 3.385 3.385 0 0 1-2.21.956 3.014 3.014 0 0 1-2.229-.787 3.436 3.436 0 0 1-.993-2.735 11.6 11.6 0 0 1 .375-3.128 9.534 9.534 0 0 1 1.011-2.378 13.975 13.975 0 0 1 1.424-1.948q.787-.9 1.611-1.8a5.208 5.208 0 0 0 1.161-1.892 2.808 2.808 0 0 0 .075-1.554 2.294 2.294 0 0 0-.73-1.142 3.584 3.584 0 0 0-1.218-.693 3.864 3.864 0 0 0-1.423-.187 3.019 3.019 0 0 0-1.348.375 2.566 2.566 0 0 0-.974.993 2.792 2.792 0 0 0-.3 1.629 4.625 4.625 0 0 1 .075 2.173 4.171 4.171 0 0 1-.749 1.648 3.418 3.418 0 0 1-1.236 1.011 2.846 2.846 0 0 1-1.386.3 5.874 5.874 0 0 1-1.4-.262 2.72 2.72 0 0 1-1.293-.9 4.385 4.385 0 0 1-.749-1.929 9.7 9.7 0 0 1 .15-3.315 6.319 6.319 0 0 1 .824-2.6 7.306 7.306 0 0 1 1.686-1.967 9.72 9.72 0 0 1 2.322-1.349 11.946 11.946 0 0 1 2.7-.749 14.079 14.079 0 0 1 2.809-.094 13.09 13.09 0 0 1 2.735.468 11.141 11.141 0 0 1 2.379 1.087 6.747 6.747 0 0 1 1.854 1.648 11.987 11.987 0 0 1 1.555 2.7 6.056 6.056 0 0 1 .431 2.772 6.807 6.807 0 0 1-.974 2.866 11.892 11.892 0 0 1-2.622 2.978 8.762 8.762 0 0 0-1.731 2.13zm.038 12.53a3.9 3.9 0 0 1-.936 1.629 4.4 4.4 0 0 1-1.667 1.086 3.787 3.787 0 0 1-2.117.15 3.255 3.255 0 0 1-1.967-1.067 3.392 3.392 0 0 1-.768-1.779 3.826 3.826 0 0 1 .281-1.91 3.69 3.69 0 0 1 1.255-1.611 4.06 4.06 0 0 1 1.48-.524 4.537 4.537 0 0 1 1.742.037 3.709 3.709 0 0 1 1.592.693 3.1 3.1 0 0 1 1.067 1.48 3.011 3.011 0 0 1 .038 1.817z" class="cls-9" transform="translate(-216.311 -1102.409)"/>
            </g>
        </g>
    </g>
</svg>
