<svg xmlns="http://www.w3.org/2000/svg" width="360" height="730" viewBox="0 0 360 730">
    <defs>
        <clipPath id="clip-path">
            <path id="사각형_787" d="M0 0H360V730H0z" class="cls-1" transform="translate(15379.45 5209.658)"/>
        </clipPath>
        <style>
            .cls-1{fill:#a6e7ed}.cls-3{fill:#0f2640}.cls-4{fill:#fff;opacity:.8}.cls-6{fill:#02b5b7}.cls-7{fill:#ffce55}.cls-8{fill:#3c91f2}.cls-9{fill:#d9e3fa}
        </style>
    </defs>
    <g id="배경" clip-path="url(#clip-path)" transform="translate(-15379.45 -5209.658)">
        <g id="그룹_1688" transform="translate(15663.315 5476.473)">
            <g id="그룹_1428">
                <path id="제외_1" d="M16.8 41.994c-1.229 0-5.561-4.353-9.271-9.316A55.346 55.346 0 0 1 2.3 24.349 18.585 18.585 0 0 1 0 16.52 16.276 16.276 0 0 1 4.92 4.839a17 17 0 0 1 23.755 0A16.275 16.275 0 0 1 33.6 16.52a18.585 18.585 0 0 1-2.3 7.829 55.344 55.344 0 0 1-5.229 8.329c-3.712 4.963-8.045 9.316-9.271 9.316zM16.916 4.1a12.275 12.275 0 1 0 12.275 12.279A12.289 12.289 0 0 0 16.916 4.1z" class="cls-3"/>
                <path id="패스_1439" d="M12.554 0a12.31 12.31 0 0 1 12.553 12.051A12.31 12.31 0 0 1 12.554 24.1 12.31 12.31 0 0 1 0 12.051 12.31 12.31 0 0 1 12.554 0z" class="cls-4" transform="translate(4.202 4.456)"/>
            </g>
            <g id="그룹_1429" transform="translate(7.122 8.484)">
                <path id="패스_719" d="M-634.222-1590.826a12.909 12.909 0 0 1-8.967-3.934 1.081 1.081 0 0 1-.343-1.105.968.968 0 0 1 .8-.74 1.014 1.014 0 0 1 .947.353 10.611 10.611 0 0 0 4.807 2.881 10.915 10.915 0 0 0 11.042-2.862 1.048 1.048 0 0 1 1.129-.331 1.047 1.047 0 0 1 .349 1.741 12.9 12.9 0 0 1-3.874 2.764 13.412 13.412 0 0 1-5.89 1.233z" class="cls-3" transform="translate(643.571 1605.55)"/>
                <path id="패스_720" d="M-632.287-1596.208a9.455 9.455 0 0 1-6.16-2.756 1.086 1.086 0 0 1-.375-.964.983.983 0 0 1 .663-.839.953.953 0 0 1 1.066.265 6.645 6.645 0 0 0 2.494 1.657 6.956 6.956 0 0 0 7.639-1.64.992.992 0 0 1 1.035-.3.987.987 0 0 1 .7.775 1 1 0 0 1-.286.963 8.788 8.788 0 0 1-4.556 2.548c-.733.153-1.48.199-2.22.291z" class="cls-3" transform="translate(641.737 1607.18)"/>
                <path id="패스_721" d="M-634.081-1604.03a.975.975 0 0 1 .623-.928.942.942 0 0 1 1.1.236 2.993 2.993 0 0 0 1.786.893 3.009 3.009 0 0 0 2.585-.9.972.972 0 0 1 1.2-.183 1 1 0 0 1 .489 1.137 1.262 1.262 0 0 1-.3.532 5.006 5.006 0 0 1-7.167 0 1.05 1.05 0 0 1-.316-.787z" class="cls-3" transform="translate(639.897 1608.81)"/>
                <path id="패스_722" d="M-628.805-1607.688a1.733 1.733 0 0 1-1.7-1.764 1.732 1.732 0 0 1 1.726-1.739 1.727 1.727 0 0 1 1.7 1.764 1.724 1.724 0 0 1-1.726 1.739z" class="cls-3" transform="translate(638.513 1611.191)"/>
            </g>
        </g>
        <g id="그룹_1689" transform="translate(15666.726 5351.41)">
            <g id="그룹_1425">
                <g id="그룹_1417">
                    <path id="제외_1-2" d="M16.8 41.994c-1.229 0-5.561-4.353-9.271-9.316A55.346 55.346 0 0 1 2.3 24.349 18.585 18.585 0 0 1 0 16.52 16.276 16.276 0 0 1 4.92 4.839a17 17 0 0 1 23.755 0A16.275 16.275 0 0 1 33.6 16.52a18.585 18.585 0 0 1-2.3 7.829 55.344 55.344 0 0 1-5.229 8.329c-3.712 4.963-8.045 9.316-9.271 9.316zM16.916 4.1a12.275 12.275 0 1 0 12.275 12.279A12.289 12.289 0 0 0 16.916 4.1z" class="cls-3"/>
                    <g id="그룹_1423" transform="translate(4.202 4.456)">
                        <path id="패스_1439-2" d="M12.554 0a12.31 12.31 0 0 1 12.553 12.051A12.31 12.31 0 0 1 12.554 24.1 12.31 12.31 0 0 1 0 12.051 12.31 12.31 0 0 1 12.554 0z" class="cls-4"/>
                    </g>
                </g>
                <text id="_13" fill="#0f2640" font-family="NanumSquareEB, NanumSquare" font-size="12px" transform="translate(16.725 21.248)">
                    <tspan x="-7.44" y="0">13</tspan>
                </text>
            </g>
        </g>
        <path id="사각형_98" d="M0 0H360V730H0z" class="cls-1" transform="translate(15379.45 5209.658)"/>
        <path id="패스_1517" d="M35.69 0h422.932c19.711 0 35.69 1.35 35.69 3.015v17.714c0 1.665-15.979 3.015-35.69 3.015H35.69C15.979 23.744 0 22.394 0 20.729V3.015C0 1.35 15.979 0 35.69 0z" class="cls-6" transform="rotate(-17 26758.128 -47891.68)"/>
        <path id="패스_1520" d="M25.542 0h302.675c14.107 0 25.542 4.537 25.542 10.133v59.53c0 5.6-11.436 10.133-25.542 10.133H25.542C11.436 79.8 0 75.259 0 69.663v-59.53C0 4.537 11.436 0 25.542 0z" class="cls-6" transform="rotate(-17 26102.786 -49215.68)"/>
        <path id="패스_1521" d="M25.542 0h302.675c14.107 0 25.542 4.537 25.542 10.133v59.53c0 5.6-11.436 10.133-25.542 10.133H25.542C11.436 79.8 0 75.259 0 69.663v-59.53C0 4.537 11.436 0 25.542 0z" class="cls-6" transform="rotate(-17 26529.866 -49121.07)"/>
        <rect id="사각형_788" width="789.887" height="90.386" class="cls-7" rx="40" transform="rotate(-17 27682.551 -48006.247)"/>
        <rect id="사각형_779" width="800.418" height="25.48" class="cls-7" rx="12.74" transform="rotate(-17 27038.741 -47990.894)"/>
        <rect id="사각형_781" width="370.447" height="42.361" class="cls-8" rx="21.18" transform="rotate(-17 25745.372 -48081.875)"/>
        <rect id="사각형_796" width="370.447" height="42.361" class="cls-8" rx="21.18" transform="rotate(-17 26349.49 -48161.63)"/>
        <rect id="사각형_790" width="421.266" height="129.947" class="cls-8" rx="40" transform="rotate(-17 26968.167 -49086.348)"/>
        <rect id="사각형_795" width="315.559" height="92.367" class="cls-7" rx="40" transform="rotate(-17 25891.59 -49114.683)"/>
        <rect id="사각형_793" width="558.479" height="61.375" class="cls-7" rx="30.687" transform="rotate(-17 25970.178 -47447.296)"/>
        <rect id="사각형_797" width="558.479" height="61.375" class="cls-7" rx="30.687" transform="rotate(-17 26574.298 -47527.046)"/>
        <rect id="사각형_799" width="558.479" height="61.375" class="cls-7" rx="30.687" transform="rotate(-17 27275.451 -47392.943)"/>
        <rect id="사각형_789" width="581.003" height="30.002" class="cls-3" rx="15.001" transform="rotate(163 7519.78 4097.941)"/>
        <rect id="사각형_783" width="616.025" height="30.596" class="cls-9" rx="15.298" transform="rotate(163 7372.447 3886.449)"/>
        <rect id="사각형_801" width="402.368" height="74.471" class="cls-9" rx="37.235" transform="rotate(163 7563.193 3955.681)"/>
        <rect id="사각형_794" width="401.277" height="23.436" class="cls-3" rx="11.718" transform="rotate(163 7378.209 3873.317)"/>
        <rect id="사각형_800" width="401.277" height="23.436" class="cls-3" rx="11.718" transform="rotate(163 7533.794 3922.859)"/>
        <rect id="사각형_798" width="401.277" height="23.436" class="cls-3" rx="11.718" transform="rotate(163 7390.728 3965.446)"/>
    </g>
</svg>
