<svg xmlns="http://www.w3.org/2000/svg" width="54.196" height="67.353" viewBox="0 0 54.196 67.353">
    <g>
        <g>
            <g>
                <g>
                    <g>
                        <path fill="#fff" d="M154.707 152.571a25.077 25.077 0 0 0-50.154 0c0 .21.01.417.016.626h-.016v41.65a17.542 17.542 0 0 0 17.536-17.163h.01V176.5l.022.007v-8.008a7.509 7.509 0 0 1 15.018 0v8.001a25.089 25.089 0 0 0 17.568-23.929zm-25.077 7.509a7.509 7.509 0 1 1 7.509-7.509 7.509 7.509 0 0 1-7.509 7.509z" transform="translate(-104.553 -127.494)"/>
                    </g>
                </g>
            </g>
        </g>
        <path fill="#16adb9" d="M158.749 127.754a12.8 12.8 0 0 0-15.094 9.987l-2.555 12.541a12.8 12.8 0 0 0 15.093-9.988z" transform="translate(-104.553 -127.494)"/>
    </g>
</svg>
