<svg xmlns="http://www.w3.org/2000/svg" width="43.539" height="54.109" viewBox="0 0 43.539 54.109">
    <g>
        <g>
            <g>
                <g>
                    <g>
                        <path fill="#0071c2" d="M144.845 49.594a20.146 20.146 0 1 0-40.292 0c0 .169.008.335.013.5h-.013v33.46a14.093 14.093 0 0 0 14.088-13.788h.008v-.954l.018.006v-6.431a6.032 6.032 0 0 1 12.065 0v6.433a20.155 20.155 0 0 0 14.113-19.226zM124.7 55.626a6.032 6.032 0 1 1 6.032-6.032 6.033 6.033 0 0 1-6.032 6.032z" transform="translate(-104.553 -29.448) translate(104.553 29.448) translate(-104.553 -29.448)"/>
                    </g>
                </g>
            </g>
        </g>
        <path fill="#16adb9" d="M155.279 29.657a10.282 10.282 0 0 0-12.126 8.023L141.1 47.755a10.281 10.281 0 0 0 12.125-8.023z" transform="translate(-104.553 -29.448) translate(-7.187)"/>
    </g>
</svg>
