<svg xmlns="http://www.w3.org/2000/svg" width="184.579" height="183.765" viewBox="0 0 184.579 183.765">
    <defs>
        <clipPath id="clip-path">
            <circle id="타원_349" cx="70.328" cy="70.328" r="70.328" class="cls-1"/>
        </clipPath>
        <clipPath id="clip-path-2">
            <path id="패스_1781" d="M626.923 584.836l.1 12.23a.683.683 0 0 0 .654.7H645a.72.72 0 0 0 .376-1.289l-12.17-12.359c-.15-.112-4.715.156-5.529.01a.673.673 0 0 0-.754.708z" class="cls-1" transform="translate(-626.923 -584.093)"/>
        </clipPath>
        <style>
            .cls-1{fill:none}.cls-5{fill:#83bde5}.cls-10,.cls-6,.cls-9{fill:#fff}.cls-6{opacity:.2}.cls-8{fill:#3c8f7c}.cls-9{opacity:.37;mix-blend-mode:screen;isolation:isolate}.cls-12{fill:#1a5948}.cls-13{fill:#875b30}.cls-15{fill:#ff1a1a}.cls-16{fill:#ffe600}.cls-17{fill:#eceff8}.cls-18{fill:#286699}.cls-20{fill:#f5fcff}.cls-22{fill:#0f2640}.cls-23{fill:#232728}.cls-24{fill:#e5e5e5}.cls-25{fill:#184655}.cls-26{fill:#f33}.cls-28{fill:#16adb9}
        </style>
    </defs>
    <g id="일러스트" transform="translate(-87.706 -244.888)">
        <g id="그룹_1516">
            <path id="패스_1317" fill="none" stroke="#16adb9" stroke-linecap="round" stroke-linejoin="round" stroke-miterlimit="10" stroke-width="2px" d="M50.627-150.854a78.315 78.315 0 0 1 78.316 78.316A78.315 78.315 0 0 1 50.627 5.775a78.313 78.313 0 0 1-78.315-78.313" transform="rotate(-10.02 2449.828 -607.925)"/>
        </g>
        <g id="그룹_1799" transform="translate(-37.691 80.278)">
            <g id="그룹_1796" transform="translate(147.742 186.085)">
                <g id="그룹_1795" clip-path="url(#clip-path)">
                    <circle id="타원_344" cx="70.328" cy="70.328" r="70.328" fill="#c0f0ff"/>
                    <g id="그룹_1780" transform="translate(-26.221 54.348)">
                        <path id="패스_1742" d="M322.6 544.478l63.872-6.086-47.36-34.06-25.938-20.794L212.168 543z" class="cls-5" transform="translate(-189.609 -483.538)"/>
                        <g id="그룹_1778" transform="translate(67.823)">
                            <path id="패스_1743" d="M469.459 544.235l-5.187-3.651-4.485-3.879v7.629l-26.414-12.943-10.99 1.106 24.759-30.72 30.985-18.239z" class="cls-6" transform="translate(-422.383 -483.538)"/>
                        </g>
                        <path id="패스_1744" d="M178.453 556.546l41.1-3.916-30.472-21.915-16.689-13.379-64.992 38.257z" class="cls-5" transform="translate(-107.398 -510.059)"/>
                        <g id="그룹_1779" transform="translate(12.592 7.278)">
                            <path id="패스_1745" d="M194.527 553.592l-3.87-1.835h-8.8l-13.144-2.24-2.838-.579 5.921-2.292 26.85-17.349 19.627-11.96z" class="cls-6" transform="translate(-165.877 -517.336)"/>
                        </g>
                    </g>
                    <path id="패스_1746" fill="#2a806c" d="M564.661 591.357l4.835 7.712 7.693-19.51 6.4 15.088 6.289-2.19 1.278 20.621-37.688 10.14z" transform="translate(-483.636 -504.536)"/>
                    <path id="패스_1747" d="M282.713 594.45l-4.842-15.269-48.3 4.944-5.776-12.936-6.807 11.826-4.888-15.682-3.591 4.414-3.9-12.125-5.569 10.467-8.912-31.673-18.013 52.964 44.049 4.4h21.178z" class="cls-8" transform="translate(-184.406 -472.251)"/>
                    <path id="패스_1748" d="M686.782 641.976l-18.9-36.225-2.919 11.48-4.337-6.051-2.677 6.142-7.967-15.176-8.616 22.635-7.616-9.444-4.651 10.64-2.538-1.817-3.022 20.4 16.875-.055z" class="cls-8" transform="translate(-538.625 -522.259)"/>
                    <path id="패스_1749" d="M172.928 420.239c2.552-.229 5.137-.008 7.7-.2a23.641 23.641 0 0 0 7.933-2 10.769 10.769 0 0 1 2.107-.815 12.315 12.315 0 0 1 3.065-.049 17.073 17.073 0 0 0 5.894-.816c.637-.207 1.347-.549 1.452-1.163.134-.784-.793-1.344-1.6-1.613s-1.784-.6-1.959-1.377c-.079-.349.027-.744-.178-1.046a1.327 1.327 0 0 0-.638-.415 25.8 25.8 0 0 0-8.53-1.6c-.393-.015-.795-.012-1.2 0a96.165 96.165 0 0 1 14.849-4.493c.329 0 .659-.009.988-.018 3.882-.108 8.056-.458 11.371 1.406a1.984 1.984 0 0 1 1.006 1c.35 1.1-1.176 1.851-2.383 2.131-.19.762.9 1.2 1.74 1.332a51.586 51.586 0 0 1 7.931 1.946c1.827.606 3.856 1.574 4.216 3.331a3.452 3.452 0 0 1-1.533 3.3 8.891 8.891 0 0 1-3.76 1.4c-4.566.815-9.287.256-13.917.662a3.757 3.757 0 0 0-1.766.471c-.795.529-1.008 1.522-1.564 2.266-1.1 1.478-3.317 1.748-5.262 1.845q-6.5.326-13.008.1a11.756 11.756 0 0 0-3.26.177 18.053 18.053 0 0 0-3.109 1.355 24.517 24.517 0 0 1-6.739 1.732 14.073 14.073 0 0 1-.04-8.264c.051-.195.12-.391.194-.585z" class="cls-9" transform="translate(-184.406 -367.202)"/>
                    <path id="패스_1750" d="M725.376 355.857c-1.959-.229-3.945-.008-5.91-.2a14.887 14.887 0 0 1-6.092-2 4.716 4.716 0 0 0-3.972-.863 10.324 10.324 0 0 1-4.526-.816 1.609 1.609 0 0 1-1.115-1.163c-.1-.784.61-1.344 1.232-1.613s1.37-.6 1.5-1.377a3.639 3.639 0 0 1 .137-1.046 1.041 1.041 0 0 1 .49-.415 15.824 15.824 0 0 1 6.551-1.6c.3-.015.61-.012.922 0a61.806 61.806 0 0 0-11.4-4.493c-.253 0-.506-.009-.759-.018-2.982-.108-6.187-.457-8.733 1.406a1.823 1.823 0 0 0-.773 1c-.268 1.1.9 1.851 1.83 2.131.146.762-.694 1.2-1.336 1.332a32.277 32.277 0 0 0-6.091 1.946c-1.4.606-2.962 1.574-3.238 3.331a3.92 3.92 0 0 0 1.177 3.3 5.96 5.96 0 0 0 2.887 1.4c3.507.815 7.133.256 10.688.662a2.393 2.393 0 0 1 1.356.47c.61.529.774 1.522 1.2 2.266.848 1.477 2.548 1.747 4.041 1.845a90.016 90.016 0 0 0 9.99.1 6.978 6.978 0 0 1 2.5.177 12.46 12.46 0 0 1 2.388 1.355 15.456 15.456 0 0 0 5.176 1.732 18.156 18.156 0 0 0 .031-8.265c-.041-.193-.094-.389-.151-.584z" class="cls-9" transform="translate(-586.108 -316.684)"/>
                    <path id="사각형_915" d="M0 0H97.364V24.295H0z" class="cls-8" transform="translate(21.314 120.756)"/>
                    <path id="패스_1751" d="M490.694 385.934a4.858 4.858 0 0 0-2.009.095 7.225 7.225 0 0 0-8.685-3.838 8.9 8.9 0 0 0-15.978 1.534 6.059 6.059 0 1 0-.92 10.865 8.394 8.394 0 0 0 13.585.257 7.241 7.241 0 0 0 10.936-.812 4.539 4.539 0 1 0 3.074-8.1z" class="cls-10" transform="translate(-406.282 -346.288)"/>
                    <path id="패스_1752" d="M214.867 341.559a4.849 4.849 0 0 0-2.009.095 7.225 7.225 0 0 0-8.687-3.838 8.9 8.9 0 0 0-15.978 1.534 6.059 6.059 0 1 0-.92 10.865 8.394 8.394 0 0 0 13.585.257 7.241 7.241 0 0 0 10.936-.812 4.539 4.539 0 1 0 3.073-8.1z" class="cls-10" transform="translate(-189.847 -311.468)"/>
                    <path id="패스_1753" d="M617.78 286.6a5.186 5.186 0 0 1 2.076.095 7.476 7.476 0 0 1 6.758-4.163 7.679 7.679 0 0 1 2.22.325 9.329 9.329 0 0 1 16.512 1.534 6.378 6.378 0 0 1 3.182-.848 6.061 6.061 0 1 1 0 12.116 6.416 6.416 0 0 1-2.231-.4 8.847 8.847 0 0 1-14.039.257 7.646 7.646 0 0 1-11.3-.812 4.769 4.769 0 0 1-2.892.969 4.537 4.537 0 1 1-.284-9.07z" class="cls-10" transform="translate(-530.644 -268.342)"/>
                    <path id="사각형_916" fill="#262626" d="M0 0H127.3V42.572H0z" transform="translate(4.395 108.015)"/>
                    <g id="그룹_1781" transform="translate(115.896 59.073)">
                        <path id="패스_1754" d="M797.526 505.932a.9.9 0 0 1 1.56 0l3.884 6.727 3.884 6.727a.9.9 0 0 1-.78 1.351h-15.536a.9.9 0 0 1-.78-1.351l3.884-6.727z" class="cls-12" transform="translate(-784.852 -505.481)"/>
                        <path id="패스_1755" d="M788.052 537.442a1.164 1.164 0 0 1 2.017 0l5.02 8.7 5.02 8.7a1.165 1.165 0 0 1-1.008 1.747h-20.082a1.165 1.165 0 0 1-1.009-1.747l5.02-8.7z" class="cls-12" transform="translate(-775.606 -530.103)"/>
                        <path id="사각형_917" d="M0 0H6.266V14.253H0z" class="cls-13" transform="translate(10.106 35.704)"/>
                        <path id="패스_1756" d="M779.661 574.591a1.4 1.4 0 0 1 2.421 0l6.027 10.439 6.027 10.439a1.4 1.4 0 0 1-1.211 2.1h-24.107a1.4 1.4 0 0 1-1.211-2.1l6.027-10.439z" class="cls-12" transform="translate(-767.417 -559.162)"/>
                    </g>
                    <g id="그룹_1782" transform="translate(101.357 75.084)">
                        <path id="패스_1757" d="M720.355 580.143a.612.612 0 0 1 1.06 0l2.639 4.571 2.639 4.571a.612.612 0 0 1-.53.918h-10.556a.612.612 0 0 1-.53-.918l2.639-4.571z" class="cls-12" transform="translate(-711.743 -579.837)"/>
                        <path id="패스_1758" d="M713.917 601.554a.791.791 0 0 1 1.37 0l3.411 5.909 3.411 5.909a.791.791 0 0 1-.685 1.187h-13.645a.791.791 0 0 1-.685-1.187l3.411-5.909z" class="cls-12" transform="translate(-705.46 -596.568)"/>
                        <path id="사각형_918" d="M0 0H4.258V9.685H0z" class="cls-13" transform="translate(6.867 24.261)"/>
                        <path id="패스_1759" d="M708.215 626.8a.95.95 0 0 1 1.645 0l4.1 7.093 4.1 7.094a.95.95 0 0 1-.822 1.425h-16.391a.95.95 0 0 1-.823-1.425l4.1-7.094z" class="cls-12" transform="translate(-699.895 -616.313)"/>
                    </g>
                    <g id="그룹_1783" transform="translate(20.596 71.785)">
                        <path id="패스_1760" d="M345.283 564.824a.612.612 0 0 1 1.06 0l2.639 4.571 2.639 4.571a.612.612 0 0 1-.53.918h-10.556a.612.612 0 0 1-.53-.918l2.639-4.571z" class="cls-12" transform="translate(-336.671 -564.518)"/>
                        <path id="패스_1761" d="M338.845 586.235a.791.791 0 0 1 1.37 0l3.412 5.909 3.411 5.909a.791.791 0 0 1-.685 1.187h-13.646a.791.791 0 0 1-.685-1.187l3.412-5.909z" class="cls-12" transform="translate(-330.388 -581.248)"/>
                        <path id="사각형_919" d="M0 0H4.258V9.685H0z" class="cls-13" transform="translate(6.867 24.261)"/>
                        <path id="패스_1762" d="M333.143 611.478a.95.95 0 0 1 1.645 0l4.1 7.094 4.1 7.094a.95.95 0 0 1-.823 1.425h-16.39a.95.95 0 0 1-.823-1.425l4.1-7.094z" class="cls-12" transform="translate(-324.823 -600.994)"/>
                    </g>
                    <path id="사각형_920" fill="#b9c1bf" d="M0 0H4.334V47.408H0z" transform="translate(115.838 61.592)"/>
                    <circle id="타원_345" cx="15.659" cy="15.659" r="15.659" class="cls-10" transform="translate(102.397 37.451)"/>
                    <g id="그룹_1784" transform="translate(105.232 40.286)">
                        <path id="패스_1763" d="M730.715 443.878a12.824 12.824 0 1 1 12.823-12.823 12.838 12.838 0 0 1-12.823 12.823zm0-22.667a9.844 9.844 0 1 0 9.844 9.844 9.855 9.855 0 0 0-9.844-9.844z" class="cls-15" transform="translate(-717.892 -418.231)"/>
                    </g>
                    <g id="그룹_1785" transform="translate(108.661 43.99)">
                        <path id="사각형_921" d="M0 0H2.98V22.205H0z" class="cls-15" transform="matrix(.728 -.685 .685 .728 0 2.042)"/>
                    </g>
                    <path id="패스_1764" d="M348.249 806.458h-22.822l-1.775-3.55h22.316z" class="cls-16" transform="translate(-303.308 -679.792)"/>
                    <path id="패스_1765" d="M506.454 806.458h-22.822l-1.775-3.55h22.316z" class="cls-16" transform="translate(-427.448 -679.792)"/>
                    <path id="패스_1766" d="M664.659 806.458h-22.822l-1.775-3.55h22.316z" class="cls-16" transform="translate(-551.588 -679.792)"/>
                    <path id="패스_1767" d="M796.955 806.458h-22.823l-1.775-3.55h22.315z" class="cls-16" transform="translate(-655.397 -679.792)"/>
                    <path id="사각형_922" d="M0 0H5.41V19.611H0z" class="cls-13" transform="translate(13.497 86.43)"/>
                    <g id="그룹_1786" transform="translate(-2.141 39.986)">
                        <path id="패스_1768" d="M260.655 417.458a1.24 1.24 0 0 1 2.147 0l5.344 9.256 5.344 9.256a1.239 1.239 0 0 1-1.073 1.859h-21.376a1.24 1.24 0 0 1-1.074-1.859l5.344-9.256z" class="cls-12" transform="translate(-243.216 -416.839)"/>
                        <path id="패스_1769" d="M247.619 460.813a1.6 1.6 0 0 1 2.775 0l6.908 11.965 6.908 11.965a1.6 1.6 0 0 1-1.388 2.4h-27.631a1.6 1.6 0 0 1-1.388-2.4l6.908-11.965z" class="cls-12" transform="translate(-230.495 -450.716)"/>
                        <path id="사각형_923" d="M0 0H8.622V19.611H0z" class="cls-13" transform="translate(13.905 49.125)"/>
                        <path id="패스_1770" d="M236.074 511.927a1.924 1.924 0 0 1 3.332 0l8.293 14.364 8.293 14.363a1.923 1.923 0 0 1-1.666 2.885h-33.171a1.924 1.924 0 0 1-1.666-2.885l8.293-14.363z" class="cls-12" transform="translate(-219.228 -490.698)"/>
                    </g>
                    <g id="그룹_1787" transform="translate(29.078 57.438)">
                        <path id="패스_1771" d="M396.217 498.368a.958.958 0 0 1 1.658 0l4.128 7.15 4.128 7.15a.957.957 0 0 1-.829 1.436H388.79a.957.957 0 0 1-.829-1.436l4.128-7.15z" class="cls-12" transform="translate(-382.747 -497.889)"/>
                        <path id="패스_1772" d="M386.147 531.857a1.238 1.238 0 0 1 2.144 0l5.336 9.242 5.336 9.242a1.238 1.238 0 0 1-1.072 1.857h-21.344a1.238 1.238 0 0 1-1.072-1.857l5.336-9.242z" class="cls-12" transform="translate(-372.92 -524.057)"/>
                        <path id="사각형_924" d="M0 0H6.66V15.148H0z" class="cls-13" transform="translate(10.741 37.947)"/>
                        <path id="패스_1773" d="M377.23 571.34a1.486 1.486 0 0 1 2.574 0l6.406 11.095 6.406 11.095a1.486 1.486 0 0 1-1.287 2.229h-25.624a1.486 1.486 0 0 1-1.287-2.229l6.406-11.095z" class="cls-12" transform="translate(-364.217 -554.942)"/>
                    </g>
                    <circle id="타원_346" cx="70.328" cy="70.328" r="70.328" class="cls-1"/>
                    <g id="그룹_1794" transform="translate(19.658 55.509)">
                        <path id="패스_1774" d="M376.3 494.292v-5.364h8.063l3.225 5.9z" class="cls-17" transform="translate(-364.275 -488.928)"/>
                        <g id="그룹_1791" transform="translate(1.776 3.665)">
                            <path id="패스_1775" d="M421.736 554.062l-.25-4.752a19.238 19.238 0 0 0-4.584-11.584c-1.777-2.06-3.853-4.189-13.652-14.294h9.057a2.591 2.591 0 0 0 2.584-2.584v-12.315a2.591 2.591 0 0 0-2.584-2.584h-77.929a2.591 2.591 0 0 0-2.584 2.584l-.877 12.315a2.581 2.581 0 0 0 .02.3l-2.223 32.91H342c-1.014-4.857 2.588-9.415 7.206-9.017 4.2.364 7.05 4.845 6.087 9.017h47.551c-.955-4.14 1.85-8.651 6.084-9.017 4.621-.4 8.22 4.16 7.206 9.017z" class="cls-17" transform="translate(-328.713 -505.949)"/>
                            <g id="그룹_1790" transform="translate(5.591 16.826)">
                                <path id="사각형_925" d="M2.832 0h11.661a2.833 2.833 0 0 1 2.833 2.833v.183a2.832 2.832 0 0 1-2.832 2.832H2.832A2.832 2.832 0 0 1 0 3.015v-.183A2.832 2.832 0 0 1 2.832 0z" class="cls-18" transform="translate(0 .028)"/>
                                <g id="그룹_1789" transform="translate(58.62)">
                                    <g id="그룹_1788" clip-path="url(#clip-path-2)">
                                        <path id="패스_1776" d="M626.923 584.836l.1 12.23a.683.683 0 0 0 .654.7H645a.72.72 0 0 0 .376-1.289l-12.17-12.359c-.15-.112-4.715.156-5.529.01a.673.673 0 0 0-.754.708z" class="cls-18" transform="translate(-626.923 -584.093)"/>
                                        <path id="패스_1777" d="M626.923 584.836l.1 12.23a.683.683 0 0 0 .654.7H645a.72.72 0 0 0 .376-1.289l-12.17-12.359c-.15-.112-4.715.156-5.529.01a.673.673 0 0 0-.754.708z" class="cls-18" transform="translate(-626.923 -584.093)"/>
                                        <path id="패스_1778" d="M626.923 584.836l.1 12.23a.683.683 0 0 0 .654.7H645a.72.72 0 0 0 .376-1.289l-12.17-12.359c-.15-.112-4.715.156-5.529.01a.673.673 0 0 0-.754.708z" class="cls-18" transform="translate(-626.923 -584.093)"/>
                                        <path id="패스_1779" d="M630.611 596.678h-3.689l8.876-21.229h3.689z" class="cls-20" transform="translate(-626.923 -577.31)"/>
                                        <path id="패스_1780" d="M653.079 596.678h-3.689l8.876-21.229h3.689z" class="cls-20" transform="translate(-644.553 -577.31)"/>
                                    </g>
                                </g>
                            </g>
                        </g>
                        <path id="사각형_926" fill="#88d0d3" d="M0 0H20.084V34.484H0z" transform="translate(35.844 16.674)"/>
                        <rect id="사각형_927" width="14.88" height="8.951" class="cls-22" rx="4.476" transform="translate(0 43.606)"/>
                        <rect id="사각형_928" width="89.06" height="3.317" class="cls-22" rx="1.658" transform="translate(5.738 49.24)"/>
                        <rect id="사각형_929" width="11.775" height="8.951" class="cls-22" rx="4.476" transform="translate(87.439 43.606)"/>
                        <g id="그룹_1792" transform="translate(11.715 40.84)">
                            <ellipse id="타원_347" cx="8.805" cy="8.988" class="cls-23" rx="8.805" ry="8.988"/>
                            <path id="패스_1782" d="M399.646 697.664a6.1 6.1 0 1 1-6.1-6.223 6.16 6.16 0 0 1 6.1 6.223z" class="cls-24" transform="translate(-384.745 -688.676)"/>
                            <path id="패스_1783" d="M411.272 714.021a1.7 1.7 0 1 1-1.7-1.734 1.717 1.717 0 0 1 1.7 1.734z" class="cls-25" transform="translate(-400.768 -705.033)"/>
                        </g>
                        <g id="그룹_1793" transform="translate(71.759 40.84)">
                            <ellipse id="타원_348" cx="8.805" cy="8.988" class="cls-23" rx="8.805" ry="8.988"/>
                            <path id="패스_1784" d="M678.505 697.664a6.1 6.1 0 1 1-6.1-6.223 6.16 6.16 0 0 1 6.1 6.223z" class="cls-24" transform="translate(-663.604 -688.676)"/>
                            <path id="패스_1785" d="M690.13 714.021a1.7 1.7 0 1 1-1.7-1.734 1.717 1.717 0 0 1 1.7 1.734z" class="cls-25" transform="translate(-679.626 -705.033)"/>
                        </g>
                        <rect id="사각형_930" width="3.842" height=".663" class="cls-18" rx=".331" transform="translate(37.859 33.585)"/>
                        <path id="패스_1786" d="M336.784 658.318H331.4l.564-7.532h4.817z" class="cls-26" transform="translate(-329.048 -615.935)"/>
                        <rect id="사각형_931" width="4.789" height="1.957" class="cls-26" rx=".979" transform="translate(12.485 34.852)"/>
                        <rect id="사각형_932" width="7.594" height="5.168" fill="#ffb743" rx="2.584" transform="translate(86.66 37.216)"/>
                        <path id="사각형_933" d="M5.935 0H16.6a5.935 5.935 0 0 1 5.935 5.935H0A5.935 5.935 0 0 1 5.935 0z" class="cls-22" transform="translate(34.715 14.584)"/>
                    </g>
                </g>
            </g>
            <g id="그룹_1798" transform="translate(125.397 173.724)">
                <circle id="타원_350" cx="30.312" cy="30.312" r="30.312" class="cls-28"/>
                <path id="패스_1787" d="M328.386 404.963l14.309 4.012-5.884-12.7z" class="cls-28" transform="translate(-284.678 -348.351)"/>
                <g id="그룹_1797" transform="translate(19.313 14.378)">
                    <path id="패스_1788" d="M229.3 257.185a6.542 6.542 0 0 0-.6 3.11 3.288 3.288 0 0 1-1.012 2.566 3.387 3.387 0 0 1-2.21.956 3.015 3.015 0 0 1-2.229-.787 3.437 3.437 0 0 1-.993-2.735 11.6 11.6 0 0 1 .375-3.129 9.538 9.538 0 0 1 1.012-2.379 13.969 13.969 0 0 1 1.424-1.948q.787-.9 1.611-1.8a5.209 5.209 0 0 0 1.162-1.892 2.809 2.809 0 0 0 .075-1.555 2.294 2.294 0 0 0-.731-1.142 3.584 3.584 0 0 0-1.218-.693 3.86 3.86 0 0 0-1.424-.187 3.018 3.018 0 0 0-1.349.375 2.564 2.564 0 0 0-.974.993 2.794 2.794 0 0 0-.3 1.63 4.626 4.626 0 0 1 .081 2.172 4.173 4.173 0 0 1-.749 1.649 3.418 3.418 0 0 1-1.237 1.012 2.847 2.847 0 0 1-1.386.3 5.878 5.878 0 0 1-1.4-.262 2.722 2.722 0 0 1-1.293-.9 4.385 4.385 0 0 1-.749-1.929 9.712 9.712 0 0 1 .15-3.316 6.324 6.324 0 0 1 .824-2.6 7.3 7.3 0 0 1 1.686-1.967 9.74 9.74 0 0 1 2.323-1.349 11.946 11.946 0 0 1 2.7-.749 14.076 14.076 0 0 1 2.81-.094 13.1 13.1 0 0 1 2.721.465 11.142 11.142 0 0 1 2.379 1.087 6.741 6.741 0 0 1 1.855 1.648 11.982 11.982 0 0 1 1.555 2.7 6.06 6.06 0 0 1 .431 2.772 6.815 6.815 0 0 1-.975 2.867 11.891 11.891 0 0 1-2.623 2.979 8.763 8.763 0 0 0-1.722 2.132zm.037 12.533a3.9 3.9 0 0 1-.936 1.63 4.405 4.405 0 0 1-1.667 1.087 3.786 3.786 0 0 1-2.117.15 3.252 3.252 0 0 1-1.967-1.068 3.393 3.393 0 0 1-.768-1.78 3.824 3.824 0 0 1 .281-1.911 3.688 3.688 0 0 1 1.255-1.611 4.064 4.064 0 0 1 1.48-.525 4.553 4.553 0 0 1 1.742.037 3.715 3.715 0 0 1 1.593.693 3.1 3.1 0 0 1 1.068 1.48 3.01 3.01 0 0 1 .038 1.818z" class="cls-10" transform="translate(-215.092 -240.499)"/>
                </g>
            </g>
        </g>
    </g>
</svg>
