<svg xmlns="http://www.w3.org/2000/svg" id="핀" width="29.676" height="44.007" viewBox="0 0 29.676 44.007">
    <defs>
        <style>
            .cls-2{fill:#fff}
        </style>
    </defs>
    <path id="패스_718" fill="#0f2640" d="M-616.814-1602.042a15.062 15.062 0 0 0-14.837-15.277 15.062 15.062 0 0 0-14.838 15.277 15.454 15.454 0 0 0 3.963 10.369h-.006s6.754 8.021 8.123 10.317 2.832 8.044 2.832 8.044 1.577-5.614 2.946-7.909 7.855-10.452 7.855-10.452a15.454 15.454 0 0 0 3.962-10.369z" transform="translate(646.489 1617.319)"/>
    <g id="그룹_510" transform="translate(2.317 4.867)">
        <path id="패스_719" d="M-631.453-1589.109a16.733 16.733 0 0 1-11.623-5.1 1.4 1.4 0 0 1-.444-1.433 1.254 1.254 0 0 1 1.034-.959 1.312 1.312 0 0 1 1.227.458 13.76 13.76 0 0 0 6.23 3.734 14.147 14.147 0 0 0 14.312-3.71 1.359 1.359 0 0 1 1.464-.429 1.357 1.357 0 0 1 .453 2.256 16.721 16.721 0 0 1-5.021 3.582 17.386 17.386 0 0 1-7.632 1.601z" class="cls-2" transform="translate(643.571 1608.194)"/>
        <path id="패스_720" d="M-630.348-1594.838a12.252 12.252 0 0 1-7.984-3.572 1.406 1.406 0 0 1-.486-1.249 1.274 1.274 0 0 1 .859-1.087 1.234 1.234 0 0 1 1.382.344 8.614 8.614 0 0 0 3.233 2.148 9.015 9.015 0 0 0 9.9-2.126 1.286 1.286 0 0 1 1.342-.387 1.278 1.278 0 0 1 .905 1 1.293 1.293 0 0 1-.371 1.248 11.393 11.393 0 0 1-5.906 3.3c-.943.201-1.915.259-2.874.381z" class="cls-2" transform="translate(642.597 1609.06)"/>
        <path id="패스_721" d="M-634.08-1603.73a1.264 1.264 0 0 1 .808-1.2 1.222 1.222 0 0 1 1.422.306 3.88 3.88 0 0 0 2.315 1.158 3.9 3.9 0 0 0 3.35-1.162 1.26 1.26 0 0 1 1.554-.237 1.3 1.3 0 0 1 .634 1.473 1.636 1.636 0 0 1-.384.69 6.488 6.488 0 0 1-9.289 0 1.36 1.36 0 0 1-.41-1.028z" class="cls-2" transform="translate(641.619 1609.926)"/>
        <path id="패스_722" d="M-628.3-1606.651a2.246 2.246 0 0 1-2.206-2.286 2.244 2.244 0 0 1 2.237-2.254 2.238 2.238 0 0 1 2.2 2.286 2.235 2.235 0 0 1-2.231 2.254z" class="cls-2" transform="translate(640.884 1611.191)"/>
    </g>
</svg>
