<svg xmlns="http://www.w3.org/2000/svg" width="207.304" height="205.107" viewBox="0 0 207.304 205.107">
    <defs>
        <clipPath id="clip-path">
            <circle id="타원_319" cx="79.394" cy="79.394" r="79.394" class="cls-1"/>
        </clipPath>
        <clipPath id="clip-path-2">
            <rect id="사각형_824" width="21.35" height="17.305" class="cls-1" rx="8.653"/>
        </clipPath>
        <style>
            .cls-1{fill:none}.cls-4{fill:#83bde5}.cls-5,.cls-8,.cls-9{fill:#fff}.cls-5{opacity:.2}.cls-7{fill:#3c8f7c}.cls-8{opacity:.37;mix-blend-mode:screen;isolation:isolate}.cls-11{fill:#1a5948}.cls-12{fill:#875b30}.cls-14{fill:#ff1a1a}.cls-15{fill:#ffe600}.cls-16{fill:#aaa}.cls-17{fill:#eae9e7}.cls-18{fill:#2785f7}.cls-22{fill:#caecff}.cls-26{fill:#b7d7f7}.cls-29{fill:#f33}.cls-30{fill:#16adb9}.cls-31{fill:#ffce55}
        </style>
    </defs>
    <g id="일러스트" transform="translate(-83.676 -183.888)">
        <g id="그룹_1711" transform="translate(83.676 193.062)">
            <g id="그룹_1708" transform="translate(25.225 13.955)">
                <g id="그룹_1707" clip-path="url(#clip-path)">
                    <circle id="타원_314" cx="79.394" cy="79.394" r="79.394" fill="#0f2640"/>
                    <g id="그룹_1695" transform="translate(-29.601 61.355)">
                        <path id="패스_1522" d="M1925.122 1414.243l72.105-6.871-53.466-38.451-29.281-23.474-114.03 67.124z" class="cls-4" transform="translate(-1774.983 -1345.447)"/>
                        <g id="그룹_1693" transform="translate(76.567)">
                            <path id="패스_1523" d="M2063.81 1413.969l-5.855-4.122-5.063-4.379v8.612l-29.82-14.611-12.406 1.249 27.951-34.681 34.98-20.591z" class="cls-5" transform="translate(-2010.666 -1345.447)"/>
                        </g>
                        <path id="패스_1524" d="M1775.9 1423.51l46.394-4.421-34.4-24.74-18.84-15.1-73.369 43.189z" class="cls-4" transform="translate(-1695.681 -1371.03)"/>
                        <g id="그룹_1694" transform="translate(14.215 8.216)">
                            <path id="패스_1525" d="M1786.5 1420.175l-4.368-2.072h-9.932l-14.839-2.529-3.2-.654 6.685-2.587 30.312-19.585 22.157-13.5z" class="cls-5" transform="translate(-1754.16 -1379.246)"/>
                        </g>
                    </g>
                    <path id="패스_1526" fill="#2a806c" d="M2154.388 1454.788l5.458 8.706 8.684-22.025 7.22 17.033 7.1-2.472 1.442 23.28-42.546 11.448z" transform="translate(-2062.917 -1356.774)"/>
                    <path id="패스_1527" d="M1885.253 1463.582l-5.467-17.238-54.528 5.581-6.521-14.6-7.684 13.35-5.514-17.7-4.054 4.983-4.4-13.688-6.287 11.816-10.061-35.756-20.335 59.791 49.728 4.968h23.908z" class="cls-7" transform="translate(-1774.272 -1325.631)"/>
                    <path id="패스_1528" d="M2283.218 1509.02l-21.335-40.895-3.294 12.96-4.9-6.831-3.022 6.934-8.993-17.132-9.727 25.553-8.6-10.661-5.251 12.012-2.865-2.051-3.412 23.025 19.05-.062z" class="cls-7" transform="translate(-2115.961 -1373.87)"/>
                    <path id="패스_1529" d="M1761.314 1284.172c2.88-.259 5.8-.009 8.687-.222a26.7 26.7 0 0 0 8.955-2.259 12.178 12.178 0 0 1 2.379-.92 13.916 13.916 0 0 1 3.46-.055 19.273 19.273 0 0 0 6.654-.921c.719-.234 1.52-.62 1.639-1.313.151-.885-.9-1.517-1.811-1.82s-2.014-.678-2.211-1.555c-.089-.394.03-.839-.2-1.18a1.5 1.5 0 0 0-.72-.469 29.127 29.127 0 0 0-9.629-1.8c-.444-.017-.9-.013-1.355 0a108.54 108.54 0 0 1 16.764-5.072c.372-.005.744-.01 1.116-.02 4.383-.122 9.094-.517 12.836 1.587a2.241 2.241 0 0 1 1.136 1.125c.395 1.242-1.327 2.089-2.69 2.406-.215.86 1.019 1.349 1.964 1.5a58.273 58.273 0 0 1 8.953 2.2c2.063.684 4.353 1.777 4.76 3.761a3.9 3.9 0 0 1-1.731 3.728 10.042 10.042 0 0 1-4.244 1.583c-5.155.92-10.484.288-15.711.748a4.239 4.239 0 0 0-1.993.531c-.9.6-1.138 1.718-1.766 2.558-1.246 1.668-3.745 1.973-5.94 2.083q-7.335.368-14.685.11a13.27 13.27 0 0 0-3.68.2 20.384 20.384 0 0 0-3.51 1.529 27.679 27.679 0 0 1-7.608 1.955 15.887 15.887 0 0 1-.045-9.33c.066-.228.143-.449.226-.668z" class="cls-8" transform="translate(-1774.273 -1224.298)"/>
                    <path id="패스_1530" d="M2318.986 1219.791c-2.212-.259-4.454-.009-6.672-.222a16.81 16.81 0 0 1-6.878-2.259 5.321 5.321 0 0 0-4.484-.975 11.653 11.653 0 0 1-5.11-.921 1.816 1.816 0 0 1-1.259-1.313c-.116-.884.688-1.517 1.391-1.821s1.546-.678 1.7-1.554a4.107 4.107 0 0 1 .154-1.18 1.178 1.178 0 0 1 .553-.469 17.864 17.864 0 0 1 7.4-1.8c.341-.017.689-.013 1.04 0a69.756 69.756 0 0 0-12.874-5.072c-.286-.005-.571-.01-.857-.02-3.366-.122-6.984-.516-9.859 1.587a2.057 2.057 0 0 0-.872 1.125c-.3 1.242 1.02 2.089 2.066 2.406.165.86-.783 1.349-1.508 1.5a36.443 36.443 0 0 0-6.876 2.2c-1.585.684-3.344 1.777-3.656 3.761a4.425 4.425 0 0 0 1.329 3.729 6.728 6.728 0 0 0 3.26 1.583c3.959.92 8.052.289 12.066.748a2.7 2.7 0 0 1 1.531.531c.689.6.874 1.718 1.356 2.558.957 1.668 2.876 1.973 4.562 2.083a101.585 101.585 0 0 0 11.278.11 7.882 7.882 0 0 1 2.827.2 14.1 14.1 0 0 1 2.7 1.529 17.434 17.434 0 0 0 5.843 1.956 20.492 20.492 0 0 0 .035-9.33c-.062-.23-.121-.451-.186-.67z" class="cls-8" transform="translate(-2161.764 -1175.567)"/>
                    <path id="사각형_807" d="M0 0H109.915V27.427H0z" class="cls-7" transform="translate(24.062 136.323)"/>
                    <path id="패스_1531" d="M2083.594 1248.882a5.474 5.474 0 0 0-2.268.107 8.155 8.155 0 0 0-9.807-4.333 10.047 10.047 0 0 0-18.038 1.731 6.839 6.839 0 1 0-1.039 12.266 9.477 9.477 0 0 0 15.336.29 8.174 8.174 0 0 0 12.345-.916 5.124 5.124 0 1 0 3.47-9.145z" class="cls-9" transform="translate(-1988.3 -1204.124)"/>
                    <path id="패스_1532" d="M1807.767 1204.506a5.486 5.486 0 0 0-2.268.107 8.158 8.158 0 0 0-9.807-4.333 10.047 10.047 0 0 0-18.038 1.732 6.839 6.839 0 1 0-1.038 12.266 9.476 9.476 0 0 0 15.336.291 8.175 8.175 0 0 0 12.345-.917 5.124 5.124 0 1 0 3.469-9.145z" class="cls-9" transform="translate(-1779.521 -1170.535)"/>
                    <path id="패스_1533" d="M2206.631 1149.547a5.841 5.841 0 0 1 2.344.107 8.441 8.441 0 0 1 7.629-4.7 8.667 8.667 0 0 1 2.506.367 10.532 10.532 0 0 1 18.64 1.731 7.2 7.2 0 0 1 3.593-.957 6.843 6.843 0 1 1 0 13.678 7.244 7.244 0 0 1-2.519-.455 9.988 9.988 0 0 1-15.849.291 8.632 8.632 0 0 1-12.758-.917 5.384 5.384 0 0 1-3.265 1.094 5.122 5.122 0 1 1-.321-10.24z" class="cls-9" transform="translate(-2108.262 -1128.935)"/>
                    <path id="사각형_808" fill="#262626" d="M0 0H143.711V48.06H0z" transform="translate(4.962 121.94)"/>
                    <g id="그룹_1696" transform="translate(130.837 66.689)">
                        <path id="패스_1534" d="M2386.826 1367.9a1.017 1.017 0 0 1 1.761 0l4.385 7.594 4.385 7.594a1.017 1.017 0 0 1-.881 1.525h-17.538a1.017 1.017 0 0 1-.881-1.525l4.385-7.594z" class="cls-11" transform="translate(-2372.518 -1367.391)"/>
                        <path id="패스_1535" d="M2377.649 1399.426a1.315 1.315 0 0 1 2.277 0l5.668 9.817 5.668 9.817a1.315 1.315 0 0 1-1.138 1.972h-22.671a1.315 1.315 0 0 1-1.138-1.972l5.667-9.817z" class="cls-11" transform="translate(-2363.599 -1391.141)"/>
                        <path id="사각형_809" d="M0 0H7.074V16.09H0z" class="cls-12" transform="translate(11.409 40.306)"/>
                        <path id="패스_1536" d="M2369.522 1436.59a1.578 1.578 0 0 1 2.733 0l6.8 11.785 6.8 11.785a1.578 1.578 0 0 1-1.366 2.367h-27.216a1.578 1.578 0 0 1-1.366-2.367l6.8-11.785z" class="cls-11" transform="translate(-2355.701 -1419.172)"/>
                    </g>
                    <g id="그룹_1697" transform="translate(114.424 84.763)">
                        <path id="패스_1537" d="M2309.329 1442.092a.691.691 0 0 1 1.2 0l2.979 5.16 2.979 5.16a.691.691 0 0 1-.6 1.037h-11.917a.691.691 0 0 1-.6-1.037l2.979-5.16z" class="cls-11" transform="translate(-2299.606 -1441.746)"/>
                        <path id="패스_1538" d="M2303.093 1463.514a.893.893 0 0 1 1.548 0l3.851 6.671 3.851 6.671a.893.893 0 0 1-.774 1.34h-15.4a.893.893 0 0 1-.774-1.34l3.852-6.671z" class="cls-11" transform="translate(-2293.546 -1457.885)"/>
                        <path id="사각형_810" d="M0 0H4.807V10.934H0z" class="cls-12" transform="translate(7.752 27.389)"/>
                        <path id="패스_1539" d="M2297.571 1488.768a1.072 1.072 0 0 1 1.857 0l4.623 8.008 4.623 8.008a1.072 1.072 0 0 1-.928 1.608h-18.494a1.072 1.072 0 0 1-.929-1.608l4.624-8.008z" class="cls-11" transform="translate(-2288.178 -1476.932)"/>
                    </g>
                    <g id="그룹_1698" transform="translate(23.251 81.039)">
                        <path id="패스_1540" d="M1934.257 1426.772a.691.691 0 0 1 1.2 0l2.979 5.161 2.98 5.16a.691.691 0 0 1-.6 1.037H1928.9a.691.691 0 0 1-.6-1.037l2.979-5.16z" class="cls-11" transform="translate(-1924.535 -1426.427)"/>
                        <path id="패스_1541" d="M1928.021 1448.2a.893.893 0 0 1 1.547 0l3.851 6.671 3.851 6.671a.893.893 0 0 1-.774 1.34h-15.405a.893.893 0 0 1-.774-1.34l3.851-6.671z" class="cls-11" transform="translate(-1918.474 -1442.566)"/>
                        <path id="사각형_811" d="M0 0H4.807V10.934H0z" class="cls-12" transform="translate(7.752 27.389)"/>
                        <path id="패스_1542" d="M1922.5 1473.449a1.072 1.072 0 0 1 1.857 0l4.624 8.008 4.623 8.008a1.072 1.072 0 0 1-.928 1.609h-18.494a1.072 1.072 0 0 1-.929-1.609l4.624-8.008z" class="cls-11" transform="translate(-1913.106 -1461.613)"/>
                    </g>
                    <path id="사각형_812" fill="#b9c1bf" d="M0 0H4.892V53.519H0z" transform="translate(130.772 69.532)"/>
                    <circle id="타원_315" cx="17.678" cy="17.678" r="17.678" class="cls-9" transform="translate(115.597 42.279)"/>
                    <g id="그룹_1699" transform="translate(118.798 45.48)">
                        <path id="패스_1543" d="M2320.652 1309.094a14.477 14.477 0 1 1 14.476-14.477 14.493 14.493 0 0 1-14.476 14.477zm0-25.59a11.113 11.113 0 1 0 11.113 11.113 11.125 11.125 0 0 0-11.113-11.117z" class="cls-14" transform="translate(-2306.175 -1280.14)"/>
                    </g>
                    <g id="그룹_1700" transform="translate(122.67 49.662)">
                        <path id="사각형_813" d="M0 0H3.364V25.068H0z" class="cls-14" transform="matrix(.728 -.685 .685 .728 0 2.305)"/>
                    </g>
                    <path id="패스_1544" d="M1939.7 1668.826h-25.765l-2-4.008h25.192z" class="cls-15" transform="translate(-1888.968 -1525.83)"/>
                    <path id="패스_1545" d="M2097.908 1668.826h-25.765l-2-4.008h25.192z" class="cls-15" transform="translate(-2008.717 -1525.83)"/>
                    <path id="패스_1546" d="M2256.114 1668.826h-25.765l-2-4.008h25.192z" class="cls-15" transform="translate(-2128.465 -1525.83)"/>
                    <path id="패스_1547" d="M2388.409 1668.826h-25.765l-2-4.008h25.192z" class="cls-15" transform="translate(-2228.602 -1525.83)"/>
                    <path id="사각형_814" d="M0 0H6.107V22.139H0z" class="cls-12" transform="translate(15.237 97.573)"/>
                    <g id="그룹_1701" transform="translate(-2.417 45.141)">
                        <path id="패스_1548" d="M1850.337 1279.448a1.4 1.4 0 0 1 2.424 0l6.033 10.449 6.033 10.449a1.4 1.4 0 0 1-1.212 2.1h-24.131a1.4 1.4 0 0 1-1.212-2.1l6.033-10.449z" class="cls-11" transform="translate(-1830.651 -1278.748)"/>
                        <path id="패스_1549" d="M1837.711 1322.826a1.809 1.809 0 0 1 3.133 0l7.8 13.507 7.8 13.507a1.809 1.809 0 0 1-1.566 2.713h-31.193a1.809 1.809 0 0 1-1.567-2.713l7.8-13.507z" class="cls-11" transform="translate(-1818.379 -1311.427)"/>
                        <path id="사각형_815" d="M0 0H9.733V22.139H0z" class="cls-12" transform="translate(15.698 55.458)"/>
                        <path id="패스_1550" d="M1826.529 1373.961a2.171 2.171 0 0 1 3.761 0l9.362 16.215 9.362 16.215a2.171 2.171 0 0 1-1.881 3.257h-37.447a2.171 2.171 0 0 1-1.881-3.257l9.362-16.215z" class="cls-11" transform="translate(-1807.511 -1349.995)"/>
                    </g>
                    <g id="그룹_1702" transform="translate(32.827 64.843)">
                        <path id="패스_1551" d="M1985.581 1360.339a1.08 1.08 0 0 1 1.872 0l4.66 8.071 4.66 8.072a1.081 1.081 0 0 1-.936 1.621H1977.2a1.081 1.081 0 0 1-.936-1.621l4.66-8.072z" class="cls-11" transform="translate(-1970.374 -1359.798)"/>
                        <path id="패스_1552" d="M1975.827 1393.847a1.4 1.4 0 0 1 2.42 0l6.024 10.433 6.023 10.433a1.4 1.4 0 0 1-1.21 2.1h-24.094a1.4 1.4 0 0 1-1.21-2.1l6.024-10.433z" class="cls-11" transform="translate(-1960.895 -1385.041)"/>
                        <path id="사각형_816" d="M0 0H7.519V17.101H0z" class="cls-12" transform="translate(12.125 42.839)"/>
                        <path id="패스_1553" d="M1967.19 1433.346a1.678 1.678 0 0 1 2.906 0l7.231 12.525 7.231 12.526a1.677 1.677 0 0 1-1.452 2.516h-28.926a1.677 1.677 0 0 1-1.453-2.516l7.231-12.526z" class="cls-11" transform="translate(-1952.5 -1414.833)"/>
                    </g>
                    <circle id="타원_316" cx="79.394" cy="79.394" r="79.394" class="cls-1"/>
                    <g id="그룹_1706" transform="translate(29.31 63.188)">
                        <rect id="사각형_817" width="23.46" height="8.813" class="cls-16" rx="4.406" transform="translate(26.584)"/>
                        <rect id="사각형_818" width="2.703" height="14.634" class="cls-17" rx="1.352" transform="translate(81.455 54.531)"/>
                        <rect id="사각형_819" width="2.703" height="13.282" class="cls-17" rx="1.352" transform="rotate(90 10.816 78.63)"/>
                        <rect id="사각형_820" width="11.502" height="3.869" class="cls-18" rx="1.934" transform="translate(81.455 50.663)"/>
                        <path id="사각형_821" d="M6.04 0h33.51a27.081 27.081 0 0 1 27.081 27.081 27.081 27.081 0 0 1-27.081 27.08H27.081A27.081 27.081 0 0 1 0 27.081V6.04A6.04 6.04 0 0 1 6.04 0z" class="cls-17" transform="translate(22.604 4.406)"/>
                        <path id="패스_1554" d="M1940.807 1398.2v8.3c.015 12.3 13.281 18.778 26.566 18.778 15.442 0 27.959-12.125 27.959-27.081s-12.518-27.081-27.959-27.081-26.566 12.124-26.566 27.084z" class="cls-17" transform="translate(-1940.133 -1366.709)"/>
                        <path id="패스_1555" d="M2029.367 1516.679h-88.558s-.614 17.768 18.116 18.778 70.442 0 70.442 0z" class="cls-18" transform="translate(-1940.132 -1476.889)"/>
                        <rect id="사각형_822" width="22.412" height="38.382" fill="#dbdbdb" rx="10.892" transform="translate(51.981 18.343)"/>
                        <g id="그룹_1704" transform="translate(17.157 13.999)">
                            <g id="그룹_1703" clip-path="url(#clip-path-2)">
                                <rect id="사각형_823" width="21.35" height="17.305" fill="#286699" rx="8.653"/>
                                <path id="패스_1556" d="M2018.638 1416.425a2.656 2.656 0 0 1-2.648-2.648l6.951-21.887a2.656 2.656 0 0 1 2.648-2.648 2.656 2.656 0 0 1 2.648 2.648l-6.951 21.887a2.656 2.656 0 0 1-2.648 2.648z" class="cls-22" transform="translate(-2014.197 -1394.428)"/>
                                <path id="패스_1557" d="M2039.479 1416.425h2.9a2.656 2.656 0 0 1-2.648-2.648l6.951-21.887a2.656 2.656 0 0 1 2.648-2.648c1.456 0-.248 1.192-.248 2.648l-6.951 21.887a2.656 2.656 0 0 1-2.652 2.648z" class="cls-22" transform="translate(-2031.977 -1394.428)"/>
                            </g>
                        </g>
                        <path id="사각형_825" d="M5.116 0h12.468A5.116 5.116 0 0 1 22.7 5.116H0A5.116 5.116 0 0 1 5.116 0z" class="cls-16" transform="translate(16.482 12.509)"/>
                        <circle id="타원_317" cx="12.079" cy="12.079" r="12.079" fill="#232728" stroke="#000" stroke-miterlimit="10" transform="translate(18.352 46.489)"/>
                        <path id="패스_1558" fill="#e5e5e5" d="M2048.673 1572.054a6.883 6.883 0 1 1-6.882-7.025 6.955 6.955 0 0 1 6.882 7.025z" transform="translate(-2011.36 -1513.486)"/>
                        <circle id="타원_318" cx="2.494" cy="2.494" r="2.494" fill="#232728" transform="translate(27.936 56.073)"/>
                        <g id="그룹_1705" transform="translate(51.026 15.892)">
                            <path id="사각형_826" d="M8.54 0h7.234a8.54 8.54 0 0 1 8.54 8.54H0A8.54 8.54 0 0 1 8.54 0z" class="cls-18"/>
                            <path id="사각형_827" d="M0 0H2.062V8.54H0z" class="cls-26" transform="translate(2.696)"/>
                            <path id="사각형_828" d="M0 0H2.062V8.54H0z" class="cls-26" transform="translate(6.866)"/>
                            <path id="사각형_829" d="M0 0H2.062V8.54H0z" class="cls-26" transform="translate(11.036)"/>
                            <path id="사각형_830" d="M0 0H2.062V8.54H0z" class="cls-26" transform="translate(15.206)"/>
                            <path id="사각형_831" d="M0 0H2.062V8.54H0z" class="cls-26" transform="translate(19.377)"/>
                        </g>
                        <rect id="사각형_832" width="8.523" height="6.184" fill="#ffb743" rx="3.092" transform="translate(0 41.107)"/>
                        <rect id="사각형_833" width="3.724" height="1.538" fill="#a8a8a8" rx=".769" transform="translate(53.457 35.996)"/>
                        <rect id="사각형_834" width="5.407" height="2.209" class="cls-29" rx="1.105" transform="translate(11.751 46.489)"/>
                        <rect id="사각형_835" width="5.407" height="2.209" class="cls-29" rx="1.105" transform="translate(78.751 46.489)"/>
                    </g>
                </g>
            </g>
            <g id="그룹_1710">
                <circle id="타원_320" cx="34.219" cy="34.219" r="34.219" class="cls-30"/>
                <path id="패스_1559" d="M1916.669 1267.993l16.154 4.529-6.642-14.342z" class="cls-30" transform="translate(-1867.326 -1204.083)"/>
                <g id="그룹_1709" transform="translate(21.803 16.232)">
                    <path id="패스_1560" d="M1819.416 1121.245a7.389 7.389 0 0 0-.677 3.511 3.712 3.712 0 0 1-1.142 2.9 3.822 3.822 0 0 1-2.5 1.079 3.4 3.4 0 0 1-2.517-.888 3.881 3.881 0 0 1-1.121-3.088 13.11 13.11 0 0 1 .423-3.532 10.771 10.771 0 0 1 1.142-2.686 15.792 15.792 0 0 1 1.608-2.2q.888-1.015 1.819-2.03a5.88 5.88 0 0 0 1.311-2.136 3.172 3.172 0 0 0 .085-1.755 2.593 2.593 0 0 0-.825-1.29 4.05 4.05 0 0 0-1.375-.782 4.357 4.357 0 0 0-1.607-.212 3.408 3.408 0 0 0-1.523.423 2.9 2.9 0 0 0-1.1 1.121 3.152 3.152 0 0 0-.339 1.84 5.225 5.225 0 0 1 .085 2.453 4.706 4.706 0 0 1-.846 1.861 3.853 3.853 0 0 1-1.4 1.142 3.21 3.21 0 0 1-1.565.339 6.648 6.648 0 0 1-1.586-.3 3.073 3.073 0 0 1-1.46-1.016 4.955 4.955 0 0 1-.846-2.178 10.97 10.97 0 0 1 .169-3.743 7.138 7.138 0 0 1 .931-2.94 8.246 8.246 0 0 1 1.9-2.221 10.992 10.992 0 0 1 2.623-1.523 13.5 13.5 0 0 1 3.046-.846 15.9 15.9 0 0 1 3.172-.106 14.763 14.763 0 0 1 3.088.529 12.576 12.576 0 0 1 2.686 1.227 7.613 7.613 0 0 1 2.094 1.861 13.54 13.54 0 0 1 1.755 3.046 6.843 6.843 0 0 1 .487 3.13 7.7 7.7 0 0 1-1.1 3.236 13.429 13.429 0 0 1-2.961 3.363 9.888 9.888 0 0 0-1.934 2.411zm.043 14.149a4.4 4.4 0 0 1-1.057 1.84 4.972 4.972 0 0 1-1.883 1.226 4.274 4.274 0 0 1-2.39.169 3.673 3.673 0 0 1-2.22-1.205 3.827 3.827 0 0 1-.867-2.009 4.32 4.32 0 0 1 .317-2.157 4.171 4.171 0 0 1 1.417-1.819 4.59 4.59 0 0 1 1.671-.592 5.124 5.124 0 0 1 1.966.042 4.189 4.189 0 0 1 1.8.782 3.5 3.5 0 0 1 1.2 1.671 3.4 3.4 0 0 1 .046 2.052z" class="cls-9" transform="translate(-1803.375 -1102.409)"/>
                </g>
            </g>
            <path id="패스_1561" d="M2014.769 1157.957l.508.928.928.508-.928.508-.508.928-.508-.928-.928-.508.928-.508z" class="cls-31" transform="translate(-1940.493 -1128.223)"/>
            <path id="패스_1562" d="M2218.546 1115.662l.508.928.928.508-.928.508-.508.928-.508-.928-.928-.508.928-.508z" class="cls-31" transform="translate(-2094.736 -1096.209)"/>
            <path id="패스_1563" d="M2174.12 1142.819l.508.928.928.508-.928.508-.508.928-.508-.928-.928-.508.928-.508z" class="cls-31" transform="translate(-2061.109 -1116.764)"/>
            <path id="패스_1564" d="M1995.652 1265.79l.508.928.928.508-.928.508-.508.928-.508-.928-.928-.508.928-.508z" class="cls-31" transform="translate(-1926.023 -1209.843)"/>
            <path id="패스_1565" d="M2226.971 1334.726l.508.929.929.508-.929.508-.508.929-.508-.929-.928-.508.928-.508z" class="cls-31" transform="translate(-2101.113 -1262.022)"/>
            <path id="패스_1566" d="M2446.383 1354.641l.507.928.929.508-.929.508-.507.928-.508-.928-.929-.508.929-.508z" class="cls-31" transform="translate(-2267.19 -1277.097)"/>
        </g>
        <path id="패스_816" fill="none" stroke="#16adb9" stroke-linecap="round" stroke-linejoin="round" stroke-miterlimit="10" stroke-width="2px" d="M87.527 0A87.526 87.526 0 1 1 0 87.527" transform="matrix(.985 -.174 .174 .985 87.03 215.444)"/>
    </g>
</svg>
