<svg xmlns="http://www.w3.org/2000/svg" width="33.86" height="33.86" viewBox="0 0 33.86 33.86">
    <defs>
        <style>
            .cls-2{fill:#fff}
        </style>
    </defs>
    <g id="전화" transform="translate(-.457 .153)">
        <g id="전화-2">
            <g id="전화_아이콘" transform="translate(.457 -.153)">
                <path id="Healthy_Water" fill="#1c63f3" d="M16.93 0A16.93 16.93 0 1 1 0 16.93 16.93 16.93 0 0 1 16.93 0z"/>
            </g>
            <g id="그룹_2867" transform="translate(191.276 188.046)">
                <path id="패스_2164" d="M-180.425-98.2a2.187 2.187 0 0 1 1.4.524 1.59 1.59 0 0 1 .473.88c.26 1.063.52 2.126.752 3.2a9.492 9.492 0 0 1 .154 1.277 1.025 1.025 0 0 1-.529 1.041c-.293.17-.576.356-.87.523-.119.068-.15.122-.076.252a13.789 13.789 0 0 0 1.67 2.355 12.579 12.579 0 0 0 3.937 2.961c.122.06.193.048.261-.076.188-.341.4-.672.58-1.016a.926.926 0 0 1 .873-.474 8.269 8.269 0 0 1 1.877.194c.837.163 1.671.347 2.5.529a1.836 1.836 0 0 1 1.345 2.488 4.2 4.2 0 0 1-3.275 2.744 6.09 6.09 0 0 1-2.475-.077 14.7 14.7 0 0 1-5.18-2.4 19.719 19.719 0 0 1-3.273-2.7 13.736 13.736 0 0 1-2.833-4.222A8.241 8.241 0 0 1-183.8-94a4.785 4.785 0 0 1 1.454-3.253 3.768 3.768 0 0 1 1.29-.808 4.455 4.455 0 0 1 .631-.139z" class="cls-2" transform="translate(0 -80.136)"/>
                <path id="패스_2165" d="M89.193-181.2a11.224 11.224 0 0 1 2.4.428 11.1 11.1 0 0 1 6.341 4.734 11.434 11.434 0 0 1 1.748 4.755.63.63 0 0 1-.394.763.613.613 0 0 1-.808-.5 10.447 10.447 0 0 0-1.963-4.9 9.756 9.756 0 0 0-4.129-3.25 9.79 9.79 0 0 0-3.054-.766 3.407 3.407 0 0 1-.341-.04.61.61 0 0 1-.51-.687.607.607 0 0 1 .625-.543z" class="cls-2" transform="translate(-262.913)"/>
                <path id="패스_2166" d="M88.5-96.283a.616.616 0 0 1 .729-.621 8.54 8.54 0 0 1 3.12 1.007 8.227 8.227 0 0 1 3.627 4.075 8.094 8.094 0 0 1 .562 1.961.623.623 0 0 1-.555.716.635.635 0 0 1-.659-.532 7.2 7.2 0 0 0-2.3-4.223 7.118 7.118 0 0 0-3.516-1.7c-.163-.031-.329-.047-.493-.074a.576.576 0 0 1-.515-.609z" class="cls-2" transform="translate(-262.933 -81.383)"/>
                <path id="패스_2167" d="M87.184-9.377a4.315 4.315 0 0 1 1.354.37 5.174 5.174 0 0 1 2.962 3.42.941.941 0 0 1 .044.672.613.613 0 0 1-.595.388.59.59 0 0 1-.563-.451 4.271 4.271 0 0 0-.652-1.507 3.881 3.881 0 0 0-2.654-1.65c-.31-.048-.621-.351-.587-.625a.63.63 0 0 1 .691-.617z" class="cls-2" transform="translate(-260.994 -165.899)"/>
            </g>
        </g>
    </g>
</svg>
