<svg xmlns="http://www.w3.org/2000/svg" width="22.522" height="25.72" viewBox="0 0 22.522 25.72">
    <defs>
        <style>
            .cls-1{fill:#161615}
        </style>
    </defs>
    <g id="온수" transform="translate(-68.894 -202.926)">
        <g id="그룹_2110">
            <g id="그룹_2100">
                <g id="그룹_2099">
                    <path id="패스_1910" d="M75.945 228.646a7.05 7.05 0 0 1-3.578-13.125v-8.282a3.579 3.579 0 1 1 7.157 0v8.282a7.05 7.05 0 0 1-3.579 13.125zm0-23.986a2.582 2.582 0 0 0-2.578 2.579v8.874l-.265.141a6.052 6.052 0 1 0 5.687 0l-.265-.141v-8.874a2.581 2.581 0 0 0-2.579-2.579z" class="cls-1"/>
                </g>
            </g>
            <g id="그룹_2102">
                <g id="그룹_2101">
                    <path id="패스_1911" d="M75.973 226.176a4.489 4.489 0 0 1-1.709-8.645v-5.951a1.708 1.708 0 0 1 3.417 0v5.951a4.489 4.489 0 0 1-1.708 8.645zm0-15.3a.709.709 0 0 0-.709.708v6.666l-.348.111a3.5 3.5 0 1 0 2.113 0l-.348-.111v-6.67a.709.709 0 0 0-.708-.708z" class="cls-1"/>
                </g>
            </g>
            <g id="그룹_2109">
                <g id="그룹_2104">
                    <g id="그룹_2103">
                        <path id="패스_1912" d="M82.944 211.754a2.072 2.072 0 0 1-.837-1.573 2.488 2.488 0 0 1 .828-1.737l.087-.062a1.118 1.118 0 0 0 .5-.7 1.754 1.754 0 0 0-.621-1.271 2.51 2.51 0 0 1-.886-2.117 2.037 2.037 0 0 1 1.016-1.364l.46.887-.23-.443.234.442a1.026 1.026 0 0 0-.5.646 1.73 1.73 0 0 0 .621 1.254 2.552 2.552 0 0 1 .889 2.12 2.1 2.1 0 0 1-.944 1.385 1.492 1.492 0 0 0-.464.955 1.111 1.111 0 0 0 .48.815z" class="cls-1"/>
                    </g>
                </g>
                <g id="그룹_2106">
                    <g id="그룹_2105">
                        <path id="패스_1913" d="M86.385 211.754a2.069 2.069 0 0 1-.837-1.573 2.488 2.488 0 0 1 .828-1.737l.087-.062a1.122 1.122 0 0 0 .505-.7 1.754 1.754 0 0 0-.621-1.271 2.51 2.51 0 0 1-.886-2.117 2.034 2.034 0 0 1 1.016-1.364l.46.887-.23-.443.234.442a1.026 1.026 0 0 0-.5.646 1.733 1.733 0 0 0 .62 1.254 2.551 2.551 0 0 1 .89 2.12 2.1 2.1 0 0 1-.944 1.385 1.492 1.492 0 0 0-.464.955 1.111 1.111 0 0 0 .48.815z" class="cls-1"/>
                    </g>
                </g>
                <g id="그룹_2108">
                    <g id="그룹_2107">
                        <path id="패스_1914" d="M89.826 211.754a2.069 2.069 0 0 1-.837-1.573 2.493 2.493 0 0 1 .827-1.737l.088-.062a1.122 1.122 0 0 0 .5-.7 1.754 1.754 0 0 0-.621-1.271 2.514 2.514 0 0 1-.887-2.117 2.037 2.037 0 0 1 1.017-1.364l.46.887-.23-.443.233.442a1.029 1.029 0 0 0-.494.646 1.732 1.732 0 0 0 .62 1.254 2.551 2.551 0 0 1 .89 2.12 2.1 2.1 0 0 1-.944 1.385 1.492 1.492 0 0 0-.464.955 1.111 1.111 0 0 0 .48.815z" class="cls-1"/>
                    </g>
                </g>
            </g>
        </g>
        <g id="그룹_2112" style="mix-blend-mode:multiply;isolation:isolate">
            <g id="그룹_2111">
                <rect id="사각형_1016" width="10.104" height="10.104" fill="#16adb9" rx="5.052" transform="translate(74.444 218.478)"/>
            </g>
        </g>
    </g>
</svg>
