<svg xmlns="http://www.w3.org/2000/svg" width="33.422" height="26.734" viewBox="0 0 33.422 26.734">
    <defs>
        <style>
            .cls-1{fill:#161615}
        </style>
    </defs>
    <g id="캠핑카" transform="translate(-14.249 -50.958)">
        <g id="그룹_1917">
            <g id="그룹_1900">
                <g id="그룹_1899">
                    <path id="사각형_976" d="M0 0H6.049V1H0z" class="cls-1" transform="translate(26.652 72.422)"/>
                </g>
            </g>
            <g id="그룹_1902">
                <g id="그룹_1901">
                    <path id="패스_1866" d="M45.267 73.422h-4.032v-1h3.032V54.984H20.756L15.249 66.5v5.921h2.864v1h-3.864l.049-7.25 5.829-12.188h25.14z" class="cls-1"/>
                </g>
            </g>
            <g id="그룹_1904">
                <g id="그룹_1903">
                    <path id="패스_1867" d="M22.382 77.692a4.77 4.77 0 1 1 4.77-4.77 4.775 4.775 0 0 1-4.77 4.77zm0-8.539a3.77 3.77 0 1 0 3.77 3.769 3.774 3.774 0 0 0-3.77-3.769z" class="cls-1"/>
                </g>
            </g>
            <g id="그룹_1906">
                <g id="그룹_1905">
                    <path id="패스_1868" d="M22.382 75.169a2.246 2.246 0 1 1 2.247-2.247 2.249 2.249 0 0 1-2.247 2.247zm0-3.493a1.246 1.246 0 1 0 1.247 1.246 1.247 1.247 0 0 0-1.247-1.246z" class="cls-1"/>
                </g>
            </g>
            <g id="그룹_1908">
                <g id="그룹_1907">
                    <path id="패스_1869" d="M36.971 77.692a4.77 4.77 0 1 1 4.77-4.77 4.775 4.775 0 0 1-4.77 4.77zm0-8.539a3.77 3.77 0 1 0 3.77 3.769 3.774 3.774 0 0 0-3.77-3.769z" class="cls-1"/>
                </g>
            </g>
            <g id="그룹_1910">
                <g id="그룹_1909">
                    <path id="패스_1870" d="M36.971 75.169a2.246 2.246 0 1 1 2.247-2.247 2.249 2.249 0 0 1-2.247 2.247zm0-3.493a1.246 1.246 0 1 0 1.247 1.246 1.248 1.248 0 0 0-1.247-1.246z" class="cls-1"/>
                </g>
            </g>
            <g id="그룹_1912">
                <g id="그룹_1911">
                    <path id="사각형_977" d="M0 0H1.86V1H0z" class="cls-1" transform="translate(14.749 70.013)"/>
                </g>
            </g>
            <g id="그룹_1914">
                <g id="그룹_1913">
                    <path id="패스_1871" d="M42.717 64.705H18l4.074-8.424h20.643zm-23.128-1h22.128v-6.424H22.7z" class="cls-1"/>
                </g>
            </g>
            <g id="그룹_1916">
                <g id="그룹_1915">
                    <path id="사각형_978" d="M0 0H1V7.424H0z" class="cls-1" transform="translate(27.414 56.781)"/>
                </g>
            </g>
        </g>
        <g id="그룹_1919" style="mix-blend-mode:multiply;isolation:isolate">
            <g id="그룹_1918">
                <rect id="사각형_979" width="10.104" height="10.104" fill="#16adb9" rx="5.052" transform="translate(37.567 50.958)"/>
            </g>
        </g>
    </g>
</svg>
