<svg xmlns="http://www.w3.org/2000/svg" width="31.785" height="24.747" viewBox="0 0 31.785 24.747">
    <defs>
        <style>
            .cls-1{fill:#161615}
        </style>
    </defs>
    <g id="일반차" transform="translate(-114.466 -52.945)">
        <g id="그룹_1939">
            <g id="그룹_1938">
                <path id="패스_1879" d="M146.251 73.273h-5.18v-1h4.18v-6.859h-4.834l-3.613-7.86h-16.595v7.86h-3.361v6.859h2.675v1h-3.675v-8.859h3.361v-7.86h18.235l3.613 7.86h5.194z" class="cls-1"/>
            </g>
        </g>
        <g id="그룹_1941">
            <g id="그룹_1940">
                <path id="사각형_981" d="M0 0H4.474V1H0z" class="cls-1" transform="translate(128.058 72.273)"/>
            </g>
        </g>
        <g id="그룹_1943">
            <g id="그룹_1942">
                <path id="패스_1880" d="M123.788 77.692a4.77 4.77 0 1 1 4.77-4.77 4.775 4.775 0 0 1-4.77 4.77zm0-8.539a3.77 3.77 0 1 0 3.77 3.769 3.774 3.774 0 0 0-3.77-3.769z" class="cls-1"/>
            </g>
        </g>
        <g id="그룹_1945">
            <g id="그룹_1944">
                <path id="패스_1881" d="M123.788 75.169a2.246 2.246 0 1 1 2.247-2.247 2.248 2.248 0 0 1-2.247 2.247zm0-3.493a1.246 1.246 0 1 0 1.247 1.246 1.247 1.247 0 0 0-1.247-1.246z" class="cls-1"/>
            </g>
        </g>
        <g id="그룹_1947">
            <g id="그룹_1946">
                <path id="패스_1882" d="M136.8 77.692a4.77 4.77 0 1 1 4.769-4.77 4.774 4.774 0 0 1-4.769 4.77zm0-8.539a3.77 3.77 0 1 0 3.769 3.769 3.774 3.774 0 0 0-3.769-3.769z" class="cls-1"/>
            </g>
        </g>
        <g id="그룹_1949">
            <g id="그룹_1948">
                <path id="패스_1883" d="M136.8 75.169a2.246 2.246 0 1 1 2.246-2.247 2.249 2.249 0 0 1-2.246 2.247zm0-3.493a1.246 1.246 0 1 0 1.246 1.246 1.248 1.248 0 0 0-1.246-1.246z" class="cls-1"/>
            </g>
        </g>
        <g id="그룹_1951">
            <g id="그룹_1950">
                <path id="사각형_982" d="M0 0H1.95V1H0z" class="cls-1" transform="translate(143.801 69.816)"/>
            </g>
        </g>
        <g id="그룹_1953">
            <g id="그룹_1952">
                <path id="사각형_983" d="M0 0H1.95V1H0z" class="cls-1" transform="translate(116.482 69.816)"/>
            </g>
        </g>
        <g id="그룹_1955">
            <g id="그룹_1954">
                <path id="패스_1884" d="M138.1 65.414h-16.012v-6.8h13.043zm-15.008-1h13.481l-2.093-4.8h-11.392z" class="cls-1"/>
            </g>
        </g>
        <g id="그룹_1957">
            <g id="그룹_1956">
                <path id="사각형_984" d="M0 0H1V5.799H0z" class="cls-1" transform="translate(128.088 59.114)"/>
            </g>
        </g>
        <g id="그룹_1959" style="mix-blend-mode:multiply;isolation:isolate">
            <g id="그룹_1958">
                <rect id="사각형_985" width="10.104" height="10.104" fill="#16adb9" rx="5.052" transform="translate(114.466 52.945)"/>
            </g>
        </g>
    </g>
</svg>
