<svg xmlns="http://www.w3.org/2000/svg" width="31.742" height="26.777" viewBox="0 0 31.742 26.777">
    <defs>
        <style>
            .cls-1{fill:#161615}
        </style>
    </defs>
    <g id="카라반" transform="translate(-62.953 -51.334)">
        <g id="그룹_1922">
            <g id="그룹_1921">
                <path id="패스_1872" d="M78.174 55.544h-1a.969.969 0 0 0-.968-.968h-4.879a.969.969 0 0 0-.968.968h-1a1.97 1.97 0 0 1 1.968-1.968h4.879a1.97 1.97 0 0 1 1.968 1.968z" class="cls-1"/>
            </g>
        </g>
        <g id="그룹_1924">
            <g id="그룹_1923">
                <path id="패스_1873" d="M62.954 67.333v-2.768a9.23 9.23 0 0 1 9.346-9.521c.073 0 .145 0 .217.009l.113.007a.483.483 0 0 1 .137-.016h11.167a9.533 9.533 0 0 1 9.522 9.521l.006.588c.008.651.019 1.461-.007 1.9l-1-.057c.024-.414.012-1.225 0-1.83l-.006-.6a8.532 8.532 0 0 0-8.522-8.521l-11.481.007c-.049 0-.1-.007-.149-.007a8.252 8.252 0 0 0-8.351 8.521v2.766z" class="cls-1"/>
            </g>
        </g>
        <g id="그룹_1926">
            <g id="그룹_1925">
                <path id="패스_1874" d="M77.39 74.237v-1c5.889 0 13.134-.111 15.066-.142v-1.352h1.1a.144.144 0 0 0 0-.289h-1.1v-3.622H63.971A5.366 5.366 0 0 0 68.648 73a8.4 8.4 0 0 0 .867.089l-.053 1a9.174 9.174 0 0 1-.97-.1c-5.671-.9-5.539-6.613-5.537-6.671l.016-.482h30.485v3.622h.1a1.144 1.144 0 0 1 0 2.289h-.1v1.336l-.492.008c-.086-.003-8.74.143-15.574.146z" class="cls-1"/>
            </g>
        </g>
        <g id="그룹_1928">
            <g id="그룹_1927">
                <path id="패스_1875" d="M73.366 78.111a4.524 4.524 0 1 1 4.524-4.524 4.529 4.529 0 0 1-4.524 4.524zm0-8.048a3.524 3.524 0 1 0 3.524 3.524 3.528 3.528 0 0 0-3.524-3.524z" class="cls-1"/>
            </g>
        </g>
        <g id="그룹_1930">
            <g id="그룹_1929">
                <path id="패스_1876" d="M73.366 75.683a2.1 2.1 0 1 1 2.1-2.1 2.1 2.1 0 0 1-2.1 2.1zm0-3.192a1.1 1.1 0 1 0 1.1 1.1 1.1 1.1 0 0 0-1.1-1.1z" class="cls-1"/>
            </g>
        </g>
        <g id="그룹_1932">
            <g id="그룹_1931">
                <path id="패스_1877" d="M73.488 64.363H66.23v-2.726a3.128 3.128 0 0 1 3.124-3.125h4.134zm-6.258-1h5.258v-3.851h-3.134a2.127 2.127 0 0 0-2.124 2.125z" class="cls-1"/>
            </g>
        </g>
        <g id="그룹_1934">
            <g id="그룹_1933">
                <path id="패스_1878" d="M79.3 64.363h-5.288v-5.851H79.3zm-4.292-1H78.3v-3.851h-3.288z" class="cls-1"/>
            </g>
        </g>
        <g id="그룹_1936" style="mix-blend-mode:multiply;isolation:isolate">
            <g id="그룹_1935">
                <rect id="사각형_980" width="10.104" height="10.104" fill="#16adb9" rx="5.052" transform="translate(83.323 51.334)"/>
            </g>
        </g>
    </g>
</svg>
