<svg xmlns="http://www.w3.org/2000/svg" width="30.773" height="23.422" viewBox="0 0 30.773 23.422">
    <defs>
        <style>
            .cls-1{fill:#161615}
        </style>
    </defs>
    <g id="도시근접" transform="translate(-165.819 -354.957)">
        <g id="그룹_2453">
            <g id="그룹_2452">
                <path id="패스_1973" d="M196.592 378.378h-1v-9.221h-9.551v-1h10.551z" class="cls-1"/>
            </g>
        </g>
        <g id="그룹_2455">
            <g id="그룹_2454">
                <path id="사각형_1083" d="M0 0H1V7.072H0z" class="cls-1" transform="translate(181.474 371.307)"/>
            </g>
        </g>
        <g id="그룹_2457">
            <g id="그룹_2456">
                <path id="사각형_1084" d="M0 0H1V9.11H0z" class="cls-1" transform="translate(179.937 369.268)"/>
            </g>
        </g>
        <g id="그룹_2459">
            <g id="그룹_2458">
                <path id="패스_1974" d="M166.819 378.378h-1V363.2h11.214v1h-10.214z" class="cls-1"/>
            </g>
        </g>
        <g id="그룹_2461" style="mix-blend-mode:multiply;isolation:isolate">
            <g id="그룹_2460">
                <rect id="사각형_1085" width="10.104" height="10.104" fill="#16adb9" rx="5.052" transform="translate(181.974 354.957)"/>
            </g>
        </g>
        <g id="그룹_2468">
            <g id="그룹_2463">
                <g id="그룹_2462">
                    <path id="사각형_1086" d="M0 0H1V1.309H0z" class="cls-1" transform="translate(168.959 367.349)"/>
                </g>
            </g>
            <g id="그룹_2465">
                <g id="그룹_2464">
                    <path id="사각형_1087" d="M0 0H1V1.309H0z" class="cls-1" transform="translate(172.878 367.349)"/>
                </g>
            </g>
            <g id="그룹_2467">
                <g id="그룹_2466">
                    <path id="사각형_1088" d="M0 0H1V1.309H0z" class="cls-1" transform="translate(176.797 367.349)"/>
                </g>
            </g>
        </g>
        <g id="그룹_2475">
            <g id="그룹_2470">
                <g id="그룹_2469">
                    <path id="사각형_1089" d="M0 0H1V1.309H0z" class="cls-1" transform="translate(168.959 371.498)"/>
                </g>
            </g>
            <g id="그룹_2472">
                <g id="그룹_2471">
                    <path id="사각형_1090" d="M0 0H1V1.309H0z" class="cls-1" transform="translate(172.878 371.498)"/>
                </g>
            </g>
            <g id="그룹_2474">
                <g id="그룹_2473">
                    <path id="사각형_1091" d="M0 0H1V1.309H0z" class="cls-1" transform="translate(176.797 371.498)"/>
                </g>
            </g>
        </g>
        <g id="그룹_2482">
            <g id="그룹_2477">
                <g id="그룹_2476">
                    <path id="사각형_1092" d="M0 0H1V1.309H0z" class="cls-1" transform="translate(184.706 371.307)"/>
                </g>
            </g>
            <g id="그룹_2479">
                <g id="그룹_2478">
                    <path id="사각형_1093" d="M0 0H1V1.309H0z" class="cls-1" transform="translate(188.625 371.307)"/>
                </g>
            </g>
            <g id="그룹_2481">
                <g id="그룹_2480">
                    <path id="사각형_1094" d="M0 0H1V1.309H0z" class="cls-1" transform="translate(192.544 371.307)"/>
                </g>
            </g>
        </g>
        <g id="그룹_2489">
            <g id="그룹_2484">
                <g id="그룹_2483">
                    <path id="사각형_1095" d="M0 0H1V1.309H0z" class="cls-1" transform="translate(184.706 375.456)"/>
                </g>
            </g>
            <g id="그룹_2486">
                <g id="그룹_2485">
                    <path id="사각형_1096" d="M0 0H1V1.309H0z" class="cls-1" transform="translate(188.625 375.456)"/>
                </g>
            </g>
            <g id="그룹_2488">
                <g id="그룹_2487">
                    <path id="사각형_1097" d="M0 0H1V1.309H0z" class="cls-1" transform="translate(192.544 375.456)"/>
                </g>
            </g>
        </g>
        <g id="그룹_2495">
            <g id="그룹_2492">
                <g id="그룹_2491">
                    <path id="패스_1975" d="M182.977 372.977l-.36-.373c-.257-.267-6.288-6.558-6.288-10.115a6.648 6.648 0 1 1 13.3 0c0 3.557-6.032 9.848-6.288 10.115zm0-16.136a5.654 5.654 0 0 0-5.648 5.648c0 2.449 3.788 7.036 5.648 9.039 1.86-2 5.648-6.591 5.648-9.039a5.655 5.655 0 0 0-5.648-5.648z" class="cls-1"/>
                </g>
            </g>
            <g id="그룹_2494">
                <g id="그룹_2493">
                    <path id="패스_1976" d="M182.977 365.359a3.334 3.334 0 1 1 3.334-3.334 3.338 3.338 0 0 1-3.334 3.334zm0-5.668a2.334 2.334 0 1 0 2.334 2.334 2.337 2.337 0 0 0-2.334-2.334z" class="cls-1"/>
                </g>
            </g>
        </g>
    </g>
</svg>
