<svg xmlns="http://www.w3.org/2000/svg" width="30.773" height="25.113" viewBox="0 0 30.773 25.113">
    <defs>
        <style>
            .cls-1{fill:#161615}
        </style>
    </defs>
    <g id="도심뷰" transform="translate(-169.43 -248.985)">
        <g id="그룹_2143">
            <g id="그룹_2142">
                <path id="패스_1915" d="M200.2 274.1h-1v-9.221h-13.115v9.221h-1v-10.222H200.2z" class="cls-1"/>
            </g>
        </g>
        <g id="그룹_2145">
            <g id="그룹_2144">
                <path id="패스_1916" d="M184.548 274.1h-1v-14.183H170.43V274.1h-1v-15.183h15.118z" class="cls-1"/>
            </g>
        </g>
        <g id="그룹_2147">
            <g id="그룹_2146">
                <path id="패스_1917" d="M194.889 264.378h-1v-9.84h-14.064v4.88h-1v-5.88h16.064z" class="cls-1"/>
            </g>
        </g>
        <g id="그룹_2149" style="mix-blend-mode:multiply;isolation:isolate">
            <g id="그룹_2148">
                <rect id="사각형_1018" width="10.104" height="10.104" fill="#16adb9" rx="5.052" transform="translate(188.634 248.985)"/>
            </g>
        </g>
        <g id="그룹_2156">
            <g id="그룹_2151">
                <g id="그룹_2150">
                    <path id="사각형_1019" d="M0 0H1V1.309H0z" class="cls-1" transform="translate(172.57 263.069)"/>
                </g>
            </g>
            <g id="그룹_2153">
                <g id="그룹_2152">
                    <path id="사각형_1020" d="M0 0H1V1.309H0z" class="cls-1" transform="translate(176.489 263.069)"/>
                </g>
            </g>
            <g id="그룹_2155">
                <g id="그룹_2154">
                    <path id="사각형_1021" d="M0 0H1V1.309H0z" class="cls-1" transform="translate(180.408 263.069)"/>
                </g>
            </g>
        </g>
        <g id="그룹_2163">
            <g id="그룹_2158">
                <g id="그룹_2157">
                    <path id="사각형_1022" d="M0 0H1V1.309H0z" class="cls-1" transform="translate(172.57 267.218)"/>
                </g>
            </g>
            <g id="그룹_2160">
                <g id="그룹_2159">
                    <path id="사각형_1023" d="M0 0H1V1.309H0z" class="cls-1" transform="translate(176.489 267.218)"/>
                </g>
            </g>
            <g id="그룹_2162">
                <g id="그룹_2161">
                    <path id="사각형_1024" d="M0 0H1V1.309H0z" class="cls-1" transform="translate(180.408 267.218)"/>
                </g>
            </g>
        </g>
        <g id="그룹_2170">
            <g id="그룹_2165">
                <g id="그룹_2164">
                    <path id="사각형_1025" d="M0 0H1V1.309H0z" class="cls-1" transform="translate(188.316 267.027)"/>
                </g>
            </g>
            <g id="그룹_2167">
                <g id="그룹_2166">
                    <path id="사각형_1026" d="M0 0H1V1.309H0z" class="cls-1" transform="translate(192.236 267.027)"/>
                </g>
            </g>
            <g id="그룹_2169">
                <g id="그룹_2168">
                    <path id="사각형_1027" d="M0 0H1V1.309H0z" class="cls-1" transform="translate(196.155 267.027)"/>
                </g>
            </g>
        </g>
        <g id="그룹_2177">
            <g id="그룹_2172">
                <g id="그룹_2171">
                    <path id="사각형_1028" d="M0 0H1V1.309H0z" class="cls-1" transform="translate(182.508 256.431)"/>
                </g>
            </g>
            <g id="그룹_2174">
                <g id="그룹_2173">
                    <path id="사각형_1029" d="M0 0H1V1.309H0z" class="cls-1" transform="translate(186.427 256.431)"/>
                </g>
            </g>
            <g id="그룹_2176">
                <g id="그룹_2175">
                    <path id="사각형_1030" d="M0 0H1V1.309H0z" class="cls-1" transform="translate(190.347 256.431)"/>
                </g>
            </g>
        </g>
        <g id="그룹_2182">
            <g id="그룹_2179">
                <g id="그룹_2178">
                    <path id="사각형_1031" d="M0 0H1V1.309H0z" class="cls-1" transform="translate(186.427 260.325)"/>
                </g>
            </g>
            <g id="그룹_2181">
                <g id="그룹_2180">
                    <path id="사각형_1032" d="M0 0H1V1.309H0z" class="cls-1" transform="translate(190.347 260.325)"/>
                </g>
            </g>
        </g>
        <g id="그룹_2189">
            <g id="그룹_2184">
                <g id="그룹_2183">
                    <path id="사각형_1033" d="M0 0H1V1.309H0z" class="cls-1" transform="translate(188.316 271.176)"/>
                </g>
            </g>
            <g id="그룹_2186">
                <g id="그룹_2185">
                    <path id="사각형_1034" d="M0 0H1V1.309H0z" class="cls-1" transform="translate(192.236 271.176)"/>
                </g>
            </g>
            <g id="그룹_2188">
                <g id="그룹_2187">
                    <path id="사각형_1035" d="M0 0H1V1.309H0z" class="cls-1" transform="translate(196.155 271.176)"/>
                </g>
            </g>
        </g>
    </g>
</svg>
