<svg xmlns="http://www.w3.org/2000/svg" width="36.428" height="25.217" viewBox="0 0 36.428 25.217">
    <defs>
        <style>
            .cls-1{fill:#161615}
        </style>
    </defs>
    <g id="깨끗한편" transform="translate(-14.482 -419.225)">
        <g id="그룹_2615">
            <g id="그룹_2597">
                <g id="그룹_2590">
                    <g id="그룹_2589">
                        <path id="패스_1998" d="M31.832 444.442H20.149v-14.906h11.683zm-10.683-1h9.683v-12.906h-9.683z" class="cls-1"/>
                    </g>
                </g>
                <g id="그룹_2592">
                    <g id="그룹_2591">
                        <path id="사각형_1108" d="M0 0H1V13.906H0z" class="cls-1" transform="translate(23.342 430.036)"/>
                    </g>
                </g>
                <g id="그룹_2594">
                    <g id="그룹_2593">
                        <path id="사각형_1109" d="M0 0H1V13.906H0z" class="cls-1" transform="translate(27.402 430.036)"/>
                    </g>
                </g>
                <g id="그룹_2596">
                    <g id="그룹_2595">
                        <path id="패스_1999" d="M33.3 430.536H18.677v-3.589H33.3zm-13.627-1H32.3v-1.589H19.677z" class="cls-1"/>
                    </g>
                </g>
            </g>
            <g id="그룹_2605">
                <g id="그룹_2599">
                    <g id="그룹_2598">
                        <path id="패스_2000" d="M50.91 437.891H32.3v-3.562h18.61zm-17.606-1H49.91v-1.562H33.3z" class="cls-1"/>
                    </g>
                </g>
                <g id="그룹_2604">
                    <g id="그룹_2601">
                        <g id="그룹_2600">
                            <path id="사각형_1110" d="M0 0H1V6.954H0z" class="cls-1" transform="translate(34.39 437.391)"/>
                        </g>
                    </g>
                    <g id="그룹_2603">
                        <g id="그룹_2602">
                            <path id="사각형_1111" d="M0 0H1V6.954H0z" class="cls-1" transform="translate(47.824 437.391)"/>
                        </g>
                    </g>
                </g>
            </g>
            <g id="그룹_2608">
                <g id="그룹_2607">
                    <g id="그룹_2606">
                        <path id="패스_2001" d="M16.869 427.065h-.992a2.092 2.092 0 0 0-1.395-1.731v-.944a2.087 2.087 0 0 0 1.394-1.73h.992a2.088 2.088 0 0 0 1.4 1.73v.944a2.093 2.093 0 0 0-1.399 1.731zm-1.181-2.2a3.063 3.063 0 0 1 .685.734 3.063 3.063 0 0 1 .685-.734 3.054 3.054 0 0 1-.685-.732 3.054 3.054 0 0 1-.685.729z" class="cls-1"/>
                    </g>
                </g>
            </g>
            <g id="그룹_2611">
                <g id="그룹_2610">
                    <g id="그룹_2609">
                        <path id="패스_2002" d="M20.128 423.631h-.993a2.086 2.086 0 0 0-1.4-1.731v-.944a2.089 2.089 0 0 0 1.4-1.731h.993a2.089 2.089 0 0 0 1.4 1.731v.944a2.086 2.086 0 0 0-1.4 1.731zm-1.182-2.2a3.059 3.059 0 0 1 .685.733 3.059 3.059 0 0 1 .685-.733 3.078 3.078 0 0 1-.685-.733 3.078 3.078 0 0 1-.685.73z" class="cls-1"/>
                    </g>
                </g>
            </g>
            <g id="그룹_2614">
                <g id="그룹_2613">
                    <g id="그룹_2612">
                        <path id="패스_2003" d="M37.157 431.876h-.992a2.084 2.084 0 0 0-1.394-1.73v-.946a2.086 2.086 0 0 0 1.394-1.729h.992a2.087 2.087 0 0 0 1.395 1.729v.946a2.085 2.085 0 0 0-1.395 1.73zm-1.18-2.2a3.089 3.089 0 0 1 .684.732 3.073 3.073 0 0 1 .685-.732 3.059 3.059 0 0 1-.685-.733 3.075 3.075 0 0 1-.684.73z" class="cls-1"/>
                    </g>
                </g>
            </g>
        </g>
        <g id="그룹_2617" style="mix-blend-mode:multiply;isolation:isolate">
            <g id="그룹_2616">
                <rect id="사각형_1112" width="10.104" height="10.104" fill="#16adb9" rx="5.052" transform="translate(26.589 419.81)"/>
            </g>
        </g>
    </g>
</svg>
