<svg xmlns="http://www.w3.org/2000/svg" width="32.234" height="24.632" viewBox="0 0 32.234 24.632">
    <defs>
        <style>
            .cls-1{fill:#161615}
        </style>
    </defs>
    <g id="보통" transform="translate(-66.462 -419.81)">
        <g id="그룹_2645">
            <g id="그룹_2636">
                <g id="그룹_2627">
                    <g id="그룹_2620">
                        <g id="그룹_2619">
                            <path id="패스_2004" d="M79.618 444.442H67.934v-14.906h11.684zm-10.684-1h9.684v-12.906h-9.684z" class="cls-1"/>
                        </g>
                    </g>
                    <g id="그룹_2622">
                        <g id="그룹_2621">
                            <path id="사각형_1113" d="M0 0H1V13.906H0z" class="cls-1" transform="translate(71.128 430.036)"/>
                        </g>
                    </g>
                    <g id="그룹_2624">
                        <g id="그룹_2623">
                            <path id="사각형_1114" d="M0 0H1V13.906H0z" class="cls-1" transform="translate(75.188 430.036)"/>
                        </g>
                    </g>
                    <g id="그룹_2626">
                        <g id="그룹_2625">
                            <path id="패스_2005" d="M81.09 430.536H66.462v-3.589H81.09zm-13.628-1H80.09v-1.589H67.462z" class="cls-1"/>
                        </g>
                    </g>
                </g>
                <g id="그룹_2635">
                    <g id="그룹_2629">
                        <g id="그룹_2628">
                            <path id="패스_2006" d="M98.7 437.891H80.09v-3.562H98.7zm-17.606-1H97.7v-1.562H81.09z" class="cls-1"/>
                        </g>
                    </g>
                    <g id="그룹_2634">
                        <g id="그룹_2631">
                            <g id="그룹_2630">
                                <path id="사각형_1115" d="M0 0H1V6.954H0z" class="cls-1" transform="translate(82.176 437.391)"/>
                            </g>
                        </g>
                        <g id="그룹_2633">
                            <g id="그룹_2632">
                                <path id="사각형_1116" d="M0 0H1V6.954H0z" class="cls-1" transform="translate(95.609 437.391)"/>
                            </g>
                        </g>
                    </g>
                </g>
            </g>
            <g id="그룹_2638">
                <g id="그룹_2637">
                    <path id="패스_2007" d="M72.338 427.619l-.857-2.349-1.343-.5-.505 1.066-.256.246-.792.336-.321 1.161-.964-.266.385-1.395.287-.327.838-.355.621-1.31.626-.255 1.989.741.295.3.936 2.564z" class="cls-1"/>
                </g>
            </g>
            <g id="그룹_2640">
                <g id="그룹_2639">
                    <path id="패스_2008" d="M76.368 427.518l-.21-1.484-.888-.869-1.533-.511-2.689.391-.144-.99 2.807-.407.23.021 1.755.585.191.117 1.092 1.068.146.287.234 1.652z" class="cls-1"/>
                </g>
            </g>
            <g id="그룹_2642">
                <g id="그룹_2641">
                    <path id="패스_2009" d="M77.189 427.115l-.825-.564.513-.749a4.671 4.671 0 0 1-.824-2.091 1.362 1.362 0 0 0-.666-1.075l-1.85-.577-2.621 2.683-.716-.7 2.835-2.9.509-.127 2.222.7a2.351 2.351 0 0 1 1.284 1.922 4.119 4.119 0 0 0 .828 1.845l.022.6z" class="cls-1"/>
                </g>
            </g>
            <g id="그룹_2644">
                <g id="그룹_2643">
                    <path id="패스_2010" d="M79.859 427.447h-1v-2.3l-2.495-1 .374-.928 2.808 1.131.313.464z" class="cls-1"/>
                </g>
            </g>
        </g>
        <g id="그룹_2647" style="mix-blend-mode:multiply;isolation:isolate">
            <g id="그룹_2646">
                <rect id="사각형_1117" width="10.104" height="10.104" fill="#16adb9" rx="5.052" transform="translate(74.073 419.81)"/>
            </g>
        </g>
    </g>
</svg>
