<svg xmlns="http://www.w3.org/2000/svg" width="31.218" height="19.777" viewBox="0 0 31.218 19.777">
    <defs>
        <style>
            .cls-1{fill:#161615}
        </style>
    </defs>
    <g id="커플캠" transform="translate(-114.87 -9.581)">
        <g id="그룹_1853">
            <g id="그룹_1848">
                <g id="그룹_1847">
                    <path id="패스_1851" d="M124.143 29.357h-1v-3.746a5.26 5.26 0 0 1 2.609-4.516 4 4 0 1 1 5.324.043 5.262 5.262 0 0 1 1.99 2.166l.053.1v1.354h-1v-1.112a4.264 4.264 0 0 0-2.2-1.97l-1-.394.942-.51a3 3 0 1 0-2.893-.024l.935.526-1 .378a4.257 4.257 0 0 0-2.757 3.959z" class="cls-1"/>
                </g>
            </g>
            <g id="그룹_1850">
                <g id="그룹_1849">
                    <path id="패스_1852" d="M115.87 29.357h-1v-3.746a5.26 5.26 0 0 1 2.609-4.516 4 4 0 1 1 5.324.043 5.271 5.271 0 0 1 1.991 2.166l-.9.444a4.269 4.269 0 0 0-2.253-2.072l-1-.394.942-.51a3 3 0 1 0-2.893-.024l.936.526-1.005.378a4.256 4.256 0 0 0-2.758 3.959z" class="cls-1"/>
                </g>
            </g>
            <g id="그룹_1852" style="mix-blend-mode:multiply;isolation:isolate">
                <g id="그룹_1851">
                    <rect id="사각형_972" width="10.104" height="10.104" fill="#16adb9" rx="5.052" transform="translate(119.294 9.581)"/>
                </g>
            </g>
        </g>
        <g id="그룹_1855">
            <g id="그룹_1854">
                <path id="패스_1853" d="M146.088 29.358h-7.223l-1.059-4.758-1.06 4.755h-7.223l6.664-11.967-.957-3.3h1.915l.661 1.59.66-1.59h1.915l-.957 3.3zm-6.421-1h4.72l-6.039-10.845.511-1.764-1.053 2.535-1.054-2.537.511 1.766-6.039 10.845h4.72L137.806 20z" class="cls-1"/>
            </g>
        </g>
    </g>
</svg>
