<svg xmlns="http://www.w3.org/2000/svg" width="32.233" height="29.946" viewBox="0 0 32.233 29.946">
    <defs>
        <style>
            .cls-1{fill:#161615}
        </style>
    </defs>
    <g id="더러운편" transform="translate(-115.771 -414.899)">
        <g id="그룹_2695">
            <g id="그룹_2666">
                <g id="그룹_2657">
                    <g id="그룹_2650">
                        <g id="그룹_2649">
                            <path id="패스_2011" d="M128.926 444.442h-11.683v-14.906h11.683zm-10.683-1h9.683v-12.906h-9.683z" class="cls-1"/>
                        </g>
                    </g>
                    <g id="그룹_2652">
                        <g id="그룹_2651">
                            <path id="사각형_1118" d="M0 0H1V13.906H0z" class="cls-1" transform="translate(120.436 430.036)"/>
                        </g>
                    </g>
                    <g id="그룹_2654">
                        <g id="그룹_2653">
                            <path id="사각형_1119" d="M0 0H1V13.906H0z" class="cls-1" transform="translate(124.497 430.036)"/>
                        </g>
                    </g>
                    <g id="그룹_2656">
                        <g id="그룹_2655">
                            <path id="패스_2012" d="M130.4 430.536h-14.629v-3.589H130.4zm-13.628-1H129.4v-1.589h-12.629z" class="cls-1"/>
                        </g>
                    </g>
                </g>
                <g id="그룹_2665">
                    <g id="그룹_2659">
                        <g id="그룹_2658">
                            <path id="패스_2013" d="M148 437.891h-18.6v-3.562H148zm-17.6-1H147v-1.562h-16.6z" class="cls-1"/>
                        </g>
                    </g>
                    <g id="그룹_2664">
                        <g id="그룹_2661">
                            <g id="그룹_2660">
                                <path id="사각형_1120" d="M0 0H1V6.954H0z" class="cls-1" transform="translate(131.484 437.391)"/>
                            </g>
                        </g>
                        <g id="그룹_2663">
                            <g id="그룹_2662">
                                <path id="사각형_1121" d="M0 0H1V6.954H0z" class="cls-1" transform="translate(144.918 437.391)"/>
                            </g>
                        </g>
                    </g>
                </g>
            </g>
            <g id="그룹_2668">
                <g id="그룹_2667">
                    <path id="패스_2014" d="M121.647 427.619l-.856-2.349-1.343-.5-.506 1.066-.256.246-.792.336-.321 1.161-.964-.266.385-1.395.287-.327.839-.355.621-1.31.626-.255 1.989.741.295.3.936 2.563z" class="cls-1"/>
                </g>
            </g>
            <g id="그룹_2670">
                <g id="그룹_2669">
                    <path id="패스_2015" d="M125.677 427.518l-.21-1.484-.889-.869-1.532-.511-2.69.391-.144-.99 2.807-.407.23.021 1.754.585.191.117 1.092 1.068.146.287.234 1.652z" class="cls-1"/>
                </g>
            </g>
            <g id="그룹_2672">
                <g id="그룹_2671">
                    <path id="패스_2016" d="M126.5 427.115l-.825-.564.512-.749a4.683 4.683 0 0 1-.823-2.091 1.362 1.362 0 0 0-.666-1.075l-1.851-.577-2.62 2.683-.716-.7 2.835-2.9.508-.128 2.223.7a2.351 2.351 0 0 1 1.284 1.922 4.126 4.126 0 0 0 .828 1.845l.022.6z" class="cls-1"/>
                </g>
            </g>
            <g id="그룹_2674">
                <g id="그룹_2673">
                    <path id="패스_2017" d="M129.168 427.447h-1v-2.3l-2.495-1 .374-.928 2.808 1.131.313.464z" class="cls-1"/>
                </g>
            </g>
            <g id="그룹_2676">
                <g id="그룹_2675">
                    <path id="패스_2018" d="M141.674 435.339l-1.342-1.068.636-2.334 2.815-.535 1.61 1.469.694 2.224zm-.2-1.441l.529.421 2.751-.152-.231-.739-1.041-.949-1.709.323z" class="cls-1"/>
                </g>
            </g>
            <g id="그룹_2678">
                <g id="그룹_2677">
                    <path id="패스_2019" d="M144.325 444.845h-3.214l-1.382-1.306.6-1.572 2.062-.5 1.93 1.237zm-2.816-1h1.816v-.6l-1.11-.712-1.136.277-.176.457z" class="cls-1"/>
                </g>
            </g>
            <g id="그룹_2680">
                <g id="그룹_2679">
                    <path id="패스_2020" d="M134.293 435.053h-3.34l-.529-1.2-.372-1.547 1.321-1.17 1.044-.728.294.251a16.143 16.143 0 0 1 1.86 1.662c.116.173.192.288-.2 2.321zm-2.693-1h1.864c.091-.5.171-1 .195-1.245-.205-.183-.749-.657-1.3-1.133l-.386.269-.808.718.207.88z" class="cls-1"/>
                </g>
            </g>
            <g id="그룹_2687">
                <g id="그룹_2682">
                    <g id="그룹_2681">
                        <path id="패스_2021" d="M135.186 430.031a1.931 1.931 0 0 1-.783-1.473 2.324 2.324 0 0 1 .772-1.623l.087-.062a.98.98 0 0 0 .443-.615 1.582 1.582 0 0 0-.558-1.13 2.342 2.342 0 0 1-.824-1.976 1.878 1.878 0 0 1 .953-1.279l.46.888-.23-.445.235.442a.9.9 0 0 0-.432.562 1.483 1.483 0 0 0 .557 1.115 2.376 2.376 0 0 1 .827 1.976 1.943 1.943 0 0 1-.882 1.3 1.314 1.314 0 0 0-.408.839.98.98 0 0 0 .424.715z" class="cls-1"/>
                    </g>
                </g>
                <g id="그룹_2684">
                    <g id="그룹_2683">
                        <path id="패스_2022" d="M138.339 430.031a1.935 1.935 0 0 1-.783-1.473 2.32 2.32 0 0 1 .773-1.623l.087-.062a.977.977 0 0 0 .442-.615 1.575 1.575 0 0 0-.558-1.13 2.342 2.342 0 0 1-.824-1.976 1.876 1.876 0 0 1 .954-1.279l.46.888-.23-.445.234.442a.9.9 0 0 0-.432.562 1.482 1.482 0 0 0 .558 1.115 2.378 2.378 0 0 1 .826 1.976 1.94 1.94 0 0 1-.882 1.3 1.318 1.318 0 0 0-.408.839.985.985 0 0 0 .425.715z" class="cls-1"/>
                    </g>
                </g>
                <g id="그룹_2686">
                    <g id="그룹_2685">
                        <path id="패스_2023" d="M141.491 430.03a1.935 1.935 0 0 1-.782-1.472 2.32 2.32 0 0 1 .773-1.623l.086-.062a.977.977 0 0 0 .443-.615 1.571 1.571 0 0 0-.558-1.129 2.345 2.345 0 0 1-.824-1.977 1.879 1.879 0 0 1 .954-1.279l.46.888-.23-.445.234.442a.905.905 0 0 0-.432.562 1.483 1.483 0 0 0 .557 1.115 2.376 2.376 0 0 1 .827 1.976 1.937 1.937 0 0 1-.882 1.3 1.318 1.318 0 0 0-.408.839.986.986 0 0 0 .425.716z" class="cls-1"/>
                    </g>
                </g>
            </g>
            <g id="그룹_2694">
                <g id="그룹_2689">
                    <g id="그룹_2688">
                        <path id="패스_2024" d="M119.335 420.5a1.938 1.938 0 0 1-.783-1.473 2.327 2.327 0 0 1 .772-1.624l.088-.062a.984.984 0 0 0 .441-.614 1.577 1.577 0 0 0-.558-1.131l.72-.694a2.375 2.375 0 0 1 .826 1.977 1.931 1.931 0 0 1-.881 1.3 1.322 1.322 0 0 0-.408.841.981.981 0 0 0 .424.715z" class="cls-1"/>
                    </g>
                </g>
                <g id="그룹_2691">
                    <g id="그룹_2690">
                        <path id="패스_2025" d="M122.487 420.5a1.939 1.939 0 0 1-.782-1.473 2.323 2.323 0 0 1 .772-1.624l.088-.062a.977.977 0 0 0 .441-.614 1.573 1.573 0 0 0-.558-1.131l.72-.694a2.379 2.379 0 0 1 .827 1.977 1.932 1.932 0 0 1-.883 1.3 1.326 1.326 0 0 0-.407.841.981.981 0 0 0 .424.715z" class="cls-1"/>
                    </g>
                </g>
                <g id="그룹_2693">
                    <g id="그룹_2692">
                        <path id="패스_2026" d="M125.641 420.5a1.938 1.938 0 0 1-.783-1.473 2.327 2.327 0 0 1 .772-1.624l.088-.062a.98.98 0 0 0 .441-.614 1.579 1.579 0 0 0-.557-1.131l.719-.694a2.379 2.379 0 0 1 .827 1.977 1.935 1.935 0 0 1-.882 1.3 1.322 1.322 0 0 0-.408.841.985.985 0 0 0 .424.715z" class="cls-1"/>
                    </g>
                </g>
            </g>
        </g>
        <g id="그룹_2697" style="mix-blend-mode:multiply;isolation:isolate">
            <g id="그룹_2696">
                <rect id="사각형_1122" width="10.104" height="10.104" fill="#16adb9" rx="5.052" transform="translate(122.382 419.81)"/>
            </g>
        </g>
    </g>
</svg>
