<svg xmlns="http://www.w3.org/2000/svg" width="31.218" height="19.187" viewBox="0 0 31.218 19.187">
    <defs>
        <style>
            .cls-1{fill:#161615}
        </style>
    </defs>
    <g id="가족캠" transform="translate(-166.37 -10.171)">
        <g id="그룹_1873">
            <g id="그룹_1868">
                <g id="그룹_1867">
                    <path id="패스_1857" d="M184.618 24.763h-1v-1.117a4.257 4.257 0 0 0-2.2-1.97l-1-.393.942-.511a3 3 0 1 0-2.894-.024l.934.525-1 .378c-.139.053-.887.4-1.043.48l-.455-.89c.053-.028.181-.089.333-.16a4 4 0 1 1 5.34.057 5.258 5.258 0 0 1 1.991 2.166l.052.1z" class="cls-1"/>
                </g>
            </g>
            <g id="그룹_1870">
                <g id="그룹_1869">
                    <path id="패스_1858" d="M167.37 29.357h-1v-3.746a5.259 5.259 0 0 1 2.608-4.516 4 4 0 1 1 4.758.459l-.167.318a4.39 4.39 0 0 0-.424-.195l-1-.394.942-.511a3 3 0 1 0-2.894-.024l.936.526-1.005.378a4.257 4.257 0 0 0-2.757 3.959z" class="cls-1"/>
                </g>
            </g>
            <g id="그룹_1872" style="mix-blend-mode:multiply;isolation:isolate">
                <g id="그룹_1871">
                    <rect id="사각형_974" width="10.104" height="10.104" fill="#16adb9" rx="5.052" transform="translate(178.659 10.171)"/>
                </g>
            </g>
        </g>
        <g id="그룹_1875">
            <g id="그룹_1874">
                <path id="패스_1859" d="M197.588 29.358h-7.223L189.3 24.6l-1.059 4.756h-7.224l6.665-11.967-.958-3.3h1.915l.661 1.59.661-1.59h1.915l-.957 3.3zm-6.421-1h4.72l-6.039-10.845.511-1.766-1.059 2.537-1.054-2.537.512 1.766-6.04 10.845h4.721L189.3 20z" class="cls-1"/>
            </g>
        </g>
        <g id="그룹_1877">
            <g id="그룹_1876">
                <path id="패스_1860" d="M178.664 29.357h-1V27.18a2.272 2.272 0 0 0-1.431-2.093l-.055-.9a1.536 1.536 0 1 0-1.479-.013l-.07.9a2.266 2.266 0 0 0-1.467 2.106v2.177h-1V27.18a3.262 3.262 0 0 1 1.4-2.662 2.533 2.533 0 1 1 3.755.031 3.276 3.276 0 0 1 1.351 2.631z" class="cls-1"/>
            </g>
        </g>
    </g>
</svg>
