<svg xmlns="http://www.w3.org/2000/svg" width="28.282" height="18.863" viewBox="0 0 28.282 18.863">
    <defs>
        <style>
            .cls-1{fill:#161615}
        </style>
    </defs>
    <g id="마트" transform="translate(-18.874 -306.338)">
        <g id="그룹_2354">
            <g id="그룹_2339">
                <g id="그룹_2338">
                    <path id="패스_1947" d="M25.439 319.665c-.385 0-.777-.967-3.824-8.881l.933-.359c1.066 2.767 2.79 7.157 3.279 8.2.844-.021 3.413-.031 11.536 0l4.617-10.664h5.176v1h-4.519l-4.618 10.669h-.33c-4.633-.02-11.672-.039-12.082 0a.508.508 0 0 1-.168.035z" class="cls-1"/>
                </g>
            </g>
            <g id="그룹_2341">
                <g id="그룹_2340">
                    <path id="패스_1948" d="M27.595 325.2a2.551 2.551 0 1 1 2.552-2.551 2.553 2.553 0 0 1-2.552 2.551zm0-4.1a1.551 1.551 0 1 0 1.552 1.551 1.552 1.552 0 0 0-1.552-1.551z" class="cls-1"/>
                </g>
            </g>
            <g id="그룹_2343">
                <g id="그룹_2342">
                    <path id="패스_1949" d="M35.16 325.2a2.551 2.551 0 1 1 2.552-2.551 2.554 2.554 0 0 1-2.552 2.551zm0-4.1a1.551 1.551 0 1 0 1.552 1.551 1.553 1.553 0 0 0-1.552-1.551z" class="cls-1"/>
                </g>
            </g>
            <g id="그룹_2345">
                <g id="그룹_2344">
                    <path id="사각형_1063" d="M0 0H15.432V1H0z" class="cls-1" transform="translate(23.926 314.823)"/>
                </g>
            </g>
            <g id="그룹_2347">
                <g id="그룹_2346">
                    <path id="사각형_1064" d="M0 0H2.468V1H0z" class="cls-1" transform="rotate(-64.33 273.439 131.777)"/>
                </g>
            </g>
            <g id="그룹_2349">
                <g id="그룹_2348">
                    <path id="사각형_1065" d="M0 0H18.55V1H0z" class="cls-1" transform="translate(22.472 311.114)"/>
                </g>
            </g>
            <g id="그룹_2351">
                <g id="그룹_2350">
                    <path id="사각형_1066" d="M0 0H1V7.786H0z" class="cls-1" transform="rotate(-15.172 1183.795 55.23)"/>
                </g>
            </g>
            <g id="그룹_2353">
                <g id="그룹_2352">
                    <path id="사각형_1067" d="M0 0H7.603V1H0z" class="cls-1" transform="rotate(-81.25 202.616 140.237)"/>
                </g>
            </g>
        </g>
        <g id="그룹_2356" style="mix-blend-mode:multiply;isolation:isolate">
            <g id="그룹_2355">
                <rect id="사각형_1068" width="10.104" height="10.104" fill="#16adb9" rx="5.052" transform="translate(18.874 306.338)"/>
            </g>
        </g>
    </g>
</svg>
