<svg xmlns="http://www.w3.org/2000/svg" width="38.674" height="19.705" viewBox="0 0 38.674 19.705">
    <defs>
        <style>
            .cls-1{fill:#161615}
        </style>
    </defs>
    <g id="산뷰" transform="translate(-112.419 -255.299)">
        <g id="그룹_2269">
            <g id="그룹_2262">
                <g id="그룹_2261">
                    <path id="패스_1932" d="M138.1 275l-12.43-17.948L113.241 275l-.822-.569 13.252-19.131 13.252 19.136z" class="cls-1"/>
                </g>
            </g>
            <g id="그룹_2264">
                <g id="그룹_2263">
                    <path id="패스_1933" d="M150.271 273.781L138.9 257.37l-6.009 8.677-.822-.569 6.832-9.865 12.188 17.6z" class="cls-1"/>
                </g>
            </g>
            <g id="그룹_2266">
                <g id="그룹_2265">
                    <path id="패스_1934" d="M125.86 263.678a2.034 2.034 0 0 1-.233-.013 2.287 2.287 0 0 1-1.228-.54 2.694 2.694 0 0 1-2.3.242 1.808 1.808 0 0 1-.981-1.22l.978-.21a.815.815 0 0 0 .427.524 2.135 2.135 0 0 0 1.726-.385l.378-.211.263.343a1.376 1.376 0 0 0 .855.464 1.782 1.782 0 0 0 1.279-.516l.332-.281.323.289a1.374 1.374 0 0 0 .97.344 1.085 1.085 0 0 0 .7-.629l.878.478a2.011 2.011 0 0 1-1.407 1.137 2.133 2.133 0 0 1-1.46-.334 2.617 2.617 0 0 1-1.5.518z" class="cls-1"/>
                </g>
            </g>
            <g id="그룹_2268">
                <g id="그룹_2267">
                    <path id="패스_1935" d="M138.943 264.244a2.039 2.039 0 0 1-.234-.013 2.287 2.287 0 0 1-1.228-.54 2.706 2.706 0 0 1-2.3.243 1.812 1.812 0 0 1-.981-1.221l.98-.2-.49.1.488-.108a.817.817 0 0 0 .427.524 2.124 2.124 0 0 0 1.726-.385l.378-.211.263.343a1.376 1.376 0 0 0 .855.464 1.793 1.793 0 0 0 1.28-.516l.331-.28.324.288a1.37 1.37 0 0 0 .97.344 1.083 1.083 0 0 0 .7-.63l.878.48a2.012 2.012 0 0 1-1.407 1.136 2.127 2.127 0 0 1-1.459-.333 2.625 2.625 0 0 1-1.501.515z" class="cls-1"/>
                </g>
            </g>
        </g>
        <g id="그룹_2271" style="mix-blend-mode:multiply;isolation:isolate">
            <g id="그룹_2270">
                <rect id="사각형_1053" width="10.104" height="10.104" fill="#16adb9" rx="5.052" transform="translate(139.56 259.383)"/>
            </g>
        </g>
    </g>
</svg>
