<svg xmlns="http://www.w3.org/2000/svg" width="28.283" height="18.863" viewBox="0 0 28.283 18.863">
    <defs>
        <style>
            .cls-1{fill:#848484}
        </style>
    </defs>
    <g id="마트없음" transform="translate(-67.628 -306.338)">
        <g id="그룹_2374">
            <g id="그룹_2359">
                <g id="그룹_2358">
                    <path id="패스_1950" d="M74.192 319.665c-.383 0-.776-.968-3.823-8.881l.934-.359c1.065 2.767 2.789 7.157 3.278 8.2.845-.021 3.413-.032 11.536 0l4.618-10.664h5.176v1h-4.52l-4.618 10.669h-.331c-4.632-.02-11.671-.039-12.081 0a.507.507 0 0 1-.169.035z" class="cls-1"/>
                </g>
            </g>
            <g id="그룹_2361">
                <g id="그룹_2360">
                    <path id="패스_1951" d="M76.35 325.2a2.551 2.551 0 1 1 2.55-2.551 2.554 2.554 0 0 1-2.55 2.551zm0-4.1a1.551 1.551 0 1 0 1.55 1.551 1.553 1.553 0 0 0-1.55-1.551z" class="cls-1"/>
                </g>
            </g>
            <g id="그룹_2363">
                <g id="그룹_2362">
                    <path id="패스_1952" d="M83.915 325.2a2.551 2.551 0 1 1 2.55-2.551 2.554 2.554 0 0 1-2.55 2.551zm0-4.1a1.551 1.551 0 1 0 1.55 1.551 1.553 1.553 0 0 0-1.55-1.551z" class="cls-1"/>
                </g>
            </g>
            <g id="그룹_2365">
                <g id="그룹_2364">
                    <path id="사각형_1069" d="M0 0H15.432V1H0z" class="cls-1" transform="translate(72.68 314.823)"/>
                </g>
            </g>
            <g id="그룹_2367">
                <g id="그룹_2366">
                    <path id="사각형_1070" d="M0 0H2.468V1H0z" class="cls-1" transform="rotate(-64.33 297.825 93.002)"/>
                </g>
            </g>
            <g id="그룹_2369">
                <g id="그룹_2368">
                    <path id="사각형_1071" d="M0 0H18.549V1H0z" class="cls-1" transform="translate(71.227 311.114)"/>
                </g>
            </g>
            <g id="그룹_2371">
                <g id="그룹_2370">
                    <path id="사각형_1072" d="M0 0H1V7.786H0z" class="cls-1" transform="rotate(-15.172 1208.172 -127.808)"/>
                </g>
            </g>
            <g id="그룹_2373">
                <g id="그룹_2372">
                    <path id="사각형_1073" d="M0 0H7.603V1H0z" class="cls-1" transform="rotate(-81.25 227.002 111.812)"/>
                </g>
            </g>
        </g>
        <g id="그룹_2376" style="mix-blend-mode:multiply;isolation:isolate">
            <g id="그룹_2375">
                <rect id="사각형_1074" width="10.104" height="10.104" fill="#c4c3c3" rx="5.052" transform="translate(67.628 306.338)"/>
            </g>
        </g>
    </g>
</svg>
