<svg xmlns="http://www.w3.org/2000/svg" width="26.477" height="24.585" viewBox="0 0 26.477 24.585">
    <defs>
        <style>
            .cls-1{fill:#848484}
        </style>
    </defs>
    <g id="물놀이가능" transform="translate(-215.202 -354.645)">
        <g id="그룹_2516">
            <g id="그룹_2498">
                <g id="그룹_2497">
                    <path id="패스_1977" d="M238.723 370.113h-6.539l-1.749-1.423-1.654 1.423h-6.653a1.715 1.715 0 0 1-1.713-1.713v-7.83a1.715 1.715 0 0 1 1.713-1.713h16.6a1.715 1.715 0 0 1 1.713 1.713v7.83a1.715 1.715 0 0 1-1.718 1.713zm-6.183-1h6.183a.714.714 0 0 0 .713-.713v-7.83a.714.714 0 0 0-.713-.713h-16.6a.714.714 0 0 0-.713.713v7.83a.714.714 0 0 0 .713.713h6.282l2.006-1.727z" class="cls-1"/>
                </g>
            </g>
            <g id="그룹_2507">
                <g id="그룹_2500">
                    <g id="그룹_2499">
                        <path id="사각형_1098" d="M0 0H1V1.199H0z" class="cls-1" transform="translate(215.766 363.464)"/>
                    </g>
                </g>
                <g id="그룹_2502">
                    <g id="그룹_2501">
                        <path id="패스_1978" d="M223.809 379.23c-5.928 0-7.848-4.09-8.035-6.253l-.007-.152v-6.175h1v6.263c.159 1.824 1.836 5.317 7.038 5.317s6.716-2.942 7.127-4.2l-2.208.006c-.323.75-1.4 2.194-4.919 2.194-4.348 0-4.96-2.868-5.038-3.443v-6.058h1v5.99c.078.537.614 2.511 4.043 2.511 3.719 0 4.051-1.7 4.063-1.776l.071-.415 4.19-.013-.062.557c-.007.057-.838 5.647-8.263 5.647z" class="cls-1"/>
                    </g>
                </g>
                <g id="그룹_2504">
                    <g id="그룹_2503">
                        <path id="사각형_1099" d="M0 0H1V1.173H0z" class="cls-1" transform="translate(218.766 363.538)"/>
                    </g>
                </g>
                <g id="그룹_2506">
                    <g id="그룹_2505">
                        <path id="패스_1979" d="M219.766 361.081h-1v-5.436h-2v5.436h-1v-6.436h4z" class="cls-1"/>
                    </g>
                </g>
            </g>
            <g id="그룹_2509">
                <g id="그룹_2508">
                    <path id="패스_1980" d="M233.521 373.9h-7.063v-3.171h7.063zm-6.063-1h5.063v-1.171h-5.063z" class="cls-1"/>
                </g>
            </g>
            <g id="그룹_2511">
                <g id="그룹_2510">
                    <path id="패스_1981" d="M220.239 363.624H215.2v-3.043h5.037zm-4.037-1h3.037v-1.043H216.2z" class="cls-1"/>
                </g>
            </g>
            <g id="그룹_2513">
                <g id="그룹_2512">
                    <path id="패스_1982" d="M220.239 367.229H215.2v-3.042h5.037zm-4.037-1h3.037v-1.042H216.2z" class="cls-1"/>
                </g>
            </g>
            <g id="그룹_2515">
                <g id="그룹_2514">
                    <path id="사각형_1100" d="M0 0H3V1H0z" class="cls-1" transform="translate(216.266 356.613)"/>
                </g>
            </g>
        </g>
        <g id="그룹_2518" style="mix-blend-mode:multiply;isolation:isolate">
            <g id="그룹_2517">
                <rect id="사각형_1101" width="10.104" height="10.104" fill="#c4c3c3" rx="5.052" transform="translate(231.574 354.968)"/>
            </g>
        </g>
    </g>
</svg>
