<svg xmlns="http://www.w3.org/2000/svg" width="28.541" height="21.927" viewBox="0 0 28.541 21.927">
    <defs>
        <style>
            .cls-1{fill:#848484}
        </style>
    </defs>
    <g id="인생샷불가능" transform="translate(-67.57 -527.377)">
        <g id="그룹_2721">
            <g id="그룹_2720">
                <path id="패스_2034" d="M92.845 549.3H76.834a3.27 3.27 0 0 1-3.267-3.266v-9.716a3.27 3.27 0 0 1 3.267-3.266h16.011a3.27 3.27 0 0 1 3.266 3.266v9.716a3.27 3.27 0 0 1-3.266 3.266zm-16.011-15.244a2.269 2.269 0 0 0-2.267 2.266v9.716a2.269 2.269 0 0 0 2.267 2.266h16.011a2.269 2.269 0 0 0 2.266-2.266v-9.716a2.268 2.268 0 0 0-2.266-2.266z" class="cls-1"/>
            </g>
        </g>
        <g id="그룹_2723">
            <g id="그룹_2722">
                <path id="패스_2035" d="M82.008 546.18a5 5 0 1 1 5-5 5.006 5.006 0 0 1-5 5zm0-9a4 4 0 1 0 4 4 4 4 0 0 0-4-4z" class="cls-1"/>
            </g>
        </g>
        <g id="그룹_2725">
            <g id="그룹_2724">
                <path id="패스_2036" d="M93.437 533.9h-5.049v-2.059a1.217 1.217 0 0 1 1.212-1.221h2.617a1.218 1.218 0 0 1 1.216 1.216zm-4.049-1h3.049v-1.059a.216.216 0 0 0-.216-.216H89.6a.218.218 0 0 0-.216.216z" class="cls-1"/>
            </g>
        </g>
        <g id="그룹_2727">
            <g id="그룹_2726">
                <path id="패스_2037" d="M82.008 544.829a3.649 3.649 0 1 1 3.649-3.649 3.653 3.653 0 0 1-3.649 3.649zm0-6.3a2.649 2.649 0 1 0 2.649 2.649 2.653 2.653 0 0 0-2.649-2.647z" class="cls-1"/>
            </g>
        </g>
        <g id="그룹_2729">
            <g id="그룹_2728">
                <path id="패스_2038" d="M91.933 538.531h-2.382a1.5 1.5 0 1 1 0-3.007h2.382a1.5 1.5 0 1 1 0 3.007zm-2.382-2.007a.5.5 0 1 0 0 1.007h2.382a.5.5 0 1 0 0-1.007z" class="cls-1"/>
            </g>
        </g>
        <g id="그룹_2732">
            <g id="그룹_2731">
                <g id="그룹_2730">
                    <path id="패스_2039" d="M71.233 535.707h-.992a2.321 2.321 0 0 0-1.551-1.926v-.944a2.326 2.326 0 0 0 1.552-1.927h.992a2.329 2.329 0 0 0 1.553 1.927v.944a2.325 2.325 0 0 0-1.554 1.926zm-1.319-2.4a3.289 3.289 0 0 1 .823.882 3.325 3.325 0 0 1 .824-.882 3.333 3.333 0 0 1-.824-.884 3.3 3.3 0 0 1-.823.886z" class="cls-1"/>
                </g>
            </g>
        </g>
        <g id="그룹_2735">
            <g id="그룹_2734">
                <g id="그룹_2733">
                    <path id="패스_2040" d="M75.336 532.173h-.993a2.318 2.318 0 0 0-1.551-1.925v-.948a2.325 2.325 0 0 0 1.551-1.927h.993a2.326 2.326 0 0 0 1.553 1.927v.944a2.322 2.322 0 0 0-1.553 1.929zm-1.319-2.4a3.293 3.293 0 0 1 .823.883 3.3 3.3 0 0 1 .824-.883 3.314 3.314 0 0 1-.824-.883 3.31 3.31 0 0 1-.823.885z" class="cls-1"/>
                </g>
            </g>
        </g>
        <g id="그룹_2737" style="mix-blend-mode:multiply;isolation:isolate">
            <g id="그룹_2736">
                <rect id="사각형_1124" width="10.104" height="10.104" fill="#c4c3c3" rx="5.052" transform="translate(67.57 530.972)"/>
            </g>
        </g>
    </g>
</svg>
