<svg xmlns="http://www.w3.org/2000/svg" width="27.526" height="22.701" viewBox="0 0 27.526 22.701">
    <defs>
        <style>
            .cls-1{fill:#c4c3c3}
        </style>
    </defs>
    <g id="주변식당있음" transform="translate(-263.354 -356.029)">
        <g id="그룹_2530">
            <g id="그룹_2521">
                <g id="그룹_2520">
                    <path id="패스_1983" d="M276.832 378.35a9.62 9.62 0 1 1 9.621-9.62 9.63 9.63 0 0 1-9.621 9.62zm0-18.241a8.62 8.62 0 1 0 8.621 8.621 8.631 8.631 0 0 0-8.621-8.621z" class="cls-1"/>
                </g>
            </g>
            <g id="그룹_2523">
                <g id="그룹_2522">
                    <path id="패스_1984" d="M276.832 375.965a7.235 7.235 0 1 1 7.235-7.235 7.244 7.244 0 0 1-7.235 7.235zm0-13.47a6.235 6.235 0 1 0 6.235 6.235 6.242 6.242 0 0 0-6.235-6.235z" class="cls-1"/>
                </g>
            </g>
            <g id="그룹_2525">
                <g id="그룹_2524">
                    <path id="패스_1985" d="M290.88 364.64h-4.16v-5.961h1v4.961h2.16v-4.961h1z" class="cls-1"/>
                </g>
            </g>
            <g id="그룹_2527">
                <g id="그룹_2526">
                    <path id="사각형_1102" d="M0 0H1V20.051H0z" class="cls-1" transform="translate(288.3 358.679)"/>
                </g>
            </g>
            <g id="그룹_2529">
                <g id="그룹_2528">
                    <path id="패스_1986" d="M264.354 378.73h-1v-20.788l.684.272c.661.262 2.8 1.525 2.8 6.909a9.678 9.678 0 0 1-2.483 6.255zm0-19.1v10.11a8.445 8.445 0 0 0 1.483-4.618c0-3.322-.837-4.822-1.483-5.491z" class="cls-1"/>
                </g>
            </g>
        </g>
        <g id="그룹_2532" style="mix-blend-mode:multiply;isolation:isolate">
            <g id="그룹_2531">
                <rect id="사각형_1103" width="10.104" height="10.104" class="cls-1" rx="5.052" transform="translate(268.733 356.029)"/>
            </g>
        </g>
    </g>
</svg>
