<svg xmlns="http://www.w3.org/2000/svg" width="26.642" height="25.95" viewBox="0 0 26.642 25.95">
    <defs>
        <style>
            .cls-1{fill:#848484}
        </style>
    </defs>
    <g id="수도없음" transform="translate(-161.146 -151.089)">
        <g id="그룹_2030">
            <g id="그룹_2027">
                <g id="그룹_2026">
                    <path id="패스_1896" d="M175.246 168a5.764 5.764 0 0 1-5.389-3.715h-1.57v1h1.519V168h-8.66v-2.715h1.511v-6.855h8.2a5.8 5.8 0 0 1 2.917-1.844v-1.4h-4.005v-2.659h4.005v-1.437h2.947v1.437h4.005v2.659h-4.005v1.4a5.793 5.793 0 0 1 2.917 1.844h3.662v-2.085h4.489v9.723H183.3v-1.787h-2.664a5.765 5.765 0 0 1-5.39 3.719zm-7.959-4.715h3.29l.111.349a4.769 4.769 0 0 0 9.116 0l.11-.349h4.386v1.787h2.489v-7.723H184.3v2.085h-5.142l-.151-.191a4.788 4.788 0 0 0-2.878-1.762l-.409-.076v-3.216h4.005v-.659h-4.005v-1.437h-.947v1.437h-4.005v.659h4.005v3.211l-.408.076a4.793 4.793 0 0 0-2.88 1.762l-.15.191h-7.677v6.851h-1.511v.72h6.66v-.715h-1.519z" class="cls-1"/>
                </g>
            </g>
            <g id="그룹_2029">
                <g id="그룹_2028">
                    <path id="패스_1897" d="M165.548 177.039a2.677 2.677 0 0 1-2.656-3.918l2.665-4.517 2.65 4.522a2.678 2.678 0 0 1-2.659 3.913zm.009-6.475l-1.805 3.069a1.984 1.984 0 0 0-.173.789 2.007 2.007 0 0 0 3.938 0 1.974 1.974 0 0 0-.169-.782z" class="cls-1"/>
                </g>
            </g>
        </g>
        <g id="그룹_2032" style="mix-blend-mode:multiply;isolation:isolate">
            <g id="그룹_2031">
                <rect id="사각형_1001" width="10.104" height="10.104" fill="#c4c3c3" rx="5.052" transform="translate(172.365 159.568)"/>
            </g>
        </g>
    </g>
</svg>
