<svg xmlns="http://www.w3.org/2000/svg" width="34.55" height="19.932" viewBox="0 0 34.55 19.932">
    <defs>
        <style>
            .cls-1{fill:#161615}
        </style>
    </defs>
    <g id="해수욕장근접" transform="translate(-16.983 -356.543)">
        <g id="그룹_2546">
            <g id="그룹_2543">
                <g id="그룹_2540">
                    <g id="그룹_2535">
                        <g id="그룹_2534">
                            <path id="패스_1987" d="M20.4 376.475a11.679 11.679 0 0 1 16.517-16.517l-.707.708a10.679 10.679 0 1 0-15.1 15.1z" class="cls-1"/>
                        </g>
                    </g>
                    <g id="그룹_2537">
                        <g id="그룹_2536">
                            <path id="패스_1988" d="M20.4 376.475c-1.2-1.2-.824-3.45.852-5.125s3.927-2.049 5.125-.852l-.707.707c-.777-.776-2.475-.385-3.711.852s-1.627 2.936-.852 3.711z" class="cls-1"/>
                        </g>
                    </g>
                    <g id="그룹_2539">
                        <g id="그룹_2538">
                            <path id="패스_1989" d="M25.7 371.23c-.242-.209-5.934-5.159-6.073-8.973a3.176 3.176 0 0 1 .94-2.458 3.09 3.09 0 0 1 2.461-.92c2.544.151 5.528 2.92 7.248 4.767a5.141 5.141 0 0 1 1.518-2.836 5.235 5.235 0 0 1 2.645-1.478 2.68 2.68 0 0 1 2.481.626l-.707.708a1.715 1.715 0 0 0-1.585-.352 4.233 4.233 0 0 0-2.127 1.2c-1.131 1.131-1.554 2.65-1.024 3.494.117.142.19.235.212.261l-.746.664a1.715 1.715 0 0 0-1.585-.353 4.24 4.24 0 0 0-2.126 1.2c-1.237 1.236-1.627 2.936-.852 3.711zm-2.9-11.357a2.073 2.073 0 0 0-1.532.634 2.186 2.186 0 0 0-.648 1.714c.084 2.3 2.686 5.277 4.354 6.953a5 5 0 0 1 1.545-3.094 5.229 5.229 0 0 1 2.644-1.478 3.5 3.5 0 0 1 .563-.066c-1.586-1.732-4.479-4.523-6.764-4.658-.052-.003-.106-.005-.162-.005z" class="cls-1"/>
                        </g>
                    </g>
                </g>
                <g id="그룹_2542">
                    <g id="그룹_2541">
                        <path id="사각형_1104" d="M0 0H1V12.656H0z" class="cls-1" transform="rotate(-44.998 456.033 151.378)"/>
                    </g>
                </g>
            </g>
            <g id="그룹_2545" style="mix-blend-mode:multiply;isolation:isolate">
                <g id="그룹_2544">
                    <rect id="사각형_1105" width="10.104" height="10.104" fill="#16adb9" rx="5.052" transform="translate(41.43 365.007)"/>
                </g>
            </g>
        </g>
        <g id="그룹_2551">
            <g id="그룹_2548">
                <g id="그룹_2547">
                    <path id="패스_1990" d="M40.334 375.958l-.36-.373c-.257-.266-6.289-6.557-6.289-10.113a6.648 6.648 0 1 1 13.3 0c0 3.556-6.032 9.847-6.289 10.113zm0-16.135a5.655 5.655 0 0 0-5.649 5.649c0 2.448 3.789 7.035 5.649 9.038 1.859-2 5.648-6.592 5.648-9.038a5.655 5.655 0 0 0-5.648-5.649z" class="cls-1"/>
                </g>
            </g>
            <g id="그룹_2550">
                <g id="그룹_2549">
                    <path id="패스_1991" d="M40.334 368.341a3.334 3.334 0 1 1 3.334-3.334 3.337 3.337 0 0 1-3.334 3.334zm0-5.668a2.334 2.334 0 1 0 2.334 2.334 2.336 2.336 0 0 0-2.334-2.334z" class="cls-1"/>
                </g>
            </g>
        </g>
    </g>
</svg>
