<svg xmlns="http://www.w3.org/2000/svg" width="24.511" height="22.064" viewBox="0 0 24.511 22.064">
    <defs>
        <style>
            .cls-3{fill:#161615}
        </style>
    </defs>
    <g id="오션뷰" transform="translate(-20.585 -254.404)">
        <g id="그룹_2743" style="mix-blend-mode:multiply;isolation:isolate">
            <g id="그룹_2742">
                <rect id="사각형_1126" width="10.104" height="10.104" fill="#15a2b4" rx="5.052" transform="translate(32.3 256.096)"/>
            </g>
        </g>
        <g id="그룹_2762">
            <g id="그룹_2746">
                <g id="그룹_2744">
                    <path id="패스_2043" d="M37.04 276.17h-1v-7.2h2.2v-1h-2.772v-5.57h1v4.572h2.768v3h-2.2z" class="cls-3"/>
                </g>
                <g id="그룹_2745">
                    <path id="패스_2044" d="M29.641 275.7h-1v-5.728h-2.2v-3h2.768V262.4h1v5.572h-2.764v1h2.2z" class="cls-3"/>
                </g>
            </g>
            <g id="그룹_2747">
                <path id="패스_2045" d="M32.837 267.192a1.97 1.97 0 1 1 .234-.014 1.863 1.863 0 0 1-.234.014zm.006-2.922a.885.885 0 0 0-.115.006.962.962 0 1 0 1.067.842.962.962 0 0 0-.952-.847z" class="cls-3"/>
            </g>
            <g id="그룹_2748">
                <path id="패스_2046" d="M38.722 262.9H26.959v-.5a5.882 5.882 0 0 1 11.763 0zm-10.738-1H37.7a4.882 4.882 0 0 0-9.713 0z" class="cls-3"/>
            </g>
            <g id="그룹_2749">
                <path id="사각형_1127" d="M0 0H1V2.612H0z" class="cls-3" transform="translate(32.341 254.404)"/>
            </g>
            <g id="그룹_2752">
                <g id="그룹_2751">
                    <g id="그룹_2750">
                        <path id="패스_2047" d="M20.585 276.468v-1a3.589 3.589 0 0 0 3.585-3.585h1a4.589 4.589 0 0 1-4.585 4.585z" class="cls-3"/>
                    </g>
                </g>
            </g>
            <g id="그룹_2755">
                <g id="그룹_2754">
                    <g id="그룹_2753">
                        <path id="패스_2048" d="M28.755 276.468a4.59 4.59 0 0 1-4.585-4.585h1a3.585 3.585 0 0 0 7.171 0h1a4.59 4.59 0 0 1-4.586 4.585z" class="cls-3"/>
                    </g>
                </g>
            </g>
            <g id="그룹_2758">
                <g id="그룹_2757">
                    <g id="그룹_2756">
                        <path id="패스_2049" d="M36.926 276.468a4.589 4.589 0 0 1-4.585-4.585h1a3.585 3.585 0 0 0 7.17 0h1a4.59 4.59 0 0 1-4.585 4.585z" class="cls-3"/>
                    </g>
                </g>
            </g>
            <g id="그룹_2761">
                <g id="그룹_2760">
                    <g id="그룹_2759">
                        <path id="패스_2050" d="M45.1 276.468a4.589 4.589 0 0 1-4.585-4.585h1a3.589 3.589 0 0 0 3.585 3.585z" class="cls-3"/>
                    </g>
                </g>
            </g>
        </g>
    </g>
</svg>
