<svg xmlns="http://www.w3.org/2000/svg" width="30.313" height="16.857" viewBox="0 0 30.313 16.857">
    <defs>
        <style>
            .cls-1{fill:#161615}
        </style>
    </defs>
    <g id="사람많음" transform="translate(-67.521 -475.253)">
        <g id="그룹_2566">
            <g id="그룹_2565">
                <path id="패스_1992" d="M86.369 492.11h-1v-3.8a4.338 4.338 0 0 0-2.732-4l-1-.393.941-.511a3.05 3.05 0 1 0-2.94-.024l.936.525-1.005.378a4.324 4.324 0 0 0-2.8 4.021v3.8h-1v-3.8a5.329 5.329 0 0 1 2.649-4.578 4.046 4.046 0 1 1 5.373.045 5.347 5.347 0 0 1 2.573 4.533z" class="cls-1"/>
            </g>
        </g>
        <g id="그룹_2568">
            <g id="그룹_2567">
                <path id="패스_1993" d="M94.436 490.68h-1v-3.8a4.337 4.337 0 0 0-2.731-3.995l-1-.395.941-.51a3.049 3.049 0 1 0-2.939-.024l.936.525-1.006.378a4.351 4.351 0 0 0-2.453 2.338l-.918-.4a5.358 5.358 0 0 1 2.221-2.5 4.047 4.047 0 1 1 5.372.045 5.343 5.343 0 0 1 2.573 4.532z" class="cls-1"/>
            </g>
        </g>
        <g id="그룹_2570">
            <g id="그룹_2569">
                <path id="패스_1994" d="M68.521 490.68h-1v-3.8a5.324 5.324 0 0 1 2.649-4.58 4.046 4.046 0 1 1 5.374.045 5.343 5.343 0 0 1 2.21 2.616l-.931.365a4.345 4.345 0 0 0-2.439-2.444l-1-.394.942-.511a3.05 3.05 0 1 0-2.94-.024l.936.525-1.006.378a4.324 4.324 0 0 0-2.8 4.021z" class="cls-1"/>
            </g>
        </g>
        <g id="그룹_2576" style="mix-blend-mode:multiply;isolation:isolate">
            <g id="그룹_2575">
                <rect id="사각형_1106" width="10.104" height="10.104" fill="#16adb9" rx="5.052" transform="translate(87.73 476.633)"/>
            </g>
        </g>
    </g>
</svg>
