<svg xmlns="http://www.w3.org/2000/svg" width="28.541" height="21.927" viewBox="0 0 28.541 21.927">
    <defs>
        <style>
            .cls-1{fill:#161615}
        </style>
    </defs>
    <g id="인생샷가능" transform="translate(-16.897 -527.377)">
        <g id="그룹_2702">
            <g id="그룹_2701">
                <path id="패스_2027" d="M42.172 549.3H26.161a3.27 3.27 0 0 1-3.266-3.266v-9.716a3.27 3.27 0 0 1 3.266-3.266h16.011a3.27 3.27 0 0 1 3.266 3.266v9.716a3.27 3.27 0 0 1-3.266 3.266zm-16.011-15.244a2.268 2.268 0 0 0-2.266 2.266v9.716a2.269 2.269 0 0 0 2.266 2.266h16.011a2.269 2.269 0 0 0 2.266-2.266v-9.716a2.268 2.268 0 0 0-2.266-2.266z" class="cls-1"/>
            </g>
        </g>
        <g id="그룹_2704">
            <g id="그룹_2703">
                <path id="패스_2028" d="M31.336 546.18a5 5 0 1 1 5-5 5.006 5.006 0 0 1-5 5zm0-9a4 4 0 1 0 4 4 4 4 0 0 0-4-4z" class="cls-1"/>
            </g>
        </g>
        <g id="그룹_2706">
            <g id="그룹_2705">
                <path id="패스_2029" d="M42.764 533.9h-5.049v-2.059a1.217 1.217 0 0 1 1.216-1.216h2.617a1.218 1.218 0 0 1 1.216 1.216zm-4.049-1h3.049v-1.059a.219.219 0 0 0-.216-.216h-2.617a.219.219 0 0 0-.216.216z" class="cls-1"/>
            </g>
        </g>
        <g id="그룹_2708">
            <g id="그룹_2707">
                <path id="패스_2030" d="M31.336 544.829a3.649 3.649 0 1 1 3.648-3.649 3.653 3.653 0 0 1-3.648 3.649zm0-6.3a2.649 2.649 0 1 0 2.648 2.649 2.652 2.652 0 0 0-2.648-2.647z" class="cls-1"/>
            </g>
        </g>
        <g id="그룹_2710">
            <g id="그룹_2709">
                <path id="패스_2031" d="M41.26 538.531h-2.382a1.5 1.5 0 0 1 0-3.007h2.382a1.5 1.5 0 1 1 0 3.007zm-2.382-2.007a.5.5 0 0 0 0 1.007h2.382a.5.5 0 1 0 0-1.007z" class="cls-1"/>
            </g>
        </g>
        <g id="그룹_2713">
            <g id="그룹_2712">
                <g id="그룹_2711">
                    <path id="패스_2032" d="M20.561 535.707h-.993a2.319 2.319 0 0 0-1.552-1.926v-.944a2.324 2.324 0 0 0 1.552-1.927h.993a2.326 2.326 0 0 0 1.552 1.927v.944a2.322 2.322 0 0 0-1.552 1.926zm-1.32-2.4a3.309 3.309 0 0 1 .824.882.885.885 0 0 0 0-1.766 3.316 3.316 0 0 1-.824.886z" class="cls-1"/>
                </g>
            </g>
        </g>
        <g id="그룹_2716">
            <g id="그룹_2715">
                <g id="그룹_2714">
                    <path id="패스_2033" d="M24.663 532.173h-.993a2.32 2.32 0 0 0-1.551-1.925v-.948a2.323 2.323 0 0 0 1.552-1.927h.993a2.327 2.327 0 0 0 1.553 1.927v.944a2.324 2.324 0 0 0-1.554 1.929zm-1.319-2.4a3.309 3.309 0 0 1 .823.883 3.3 3.3 0 0 1 .824-.883 3.314 3.314 0 0 1-.824-.883 3.327 3.327 0 0 1-.823.885z" class="cls-1"/>
                </g>
            </g>
        </g>
        <g id="그룹_2718" style="mix-blend-mode:multiply;isolation:isolate">
            <g id="그룹_2717">
                <rect id="사각형_1123" width="10.104" height="10.104" fill="#16adb9" rx="5.052" transform="translate(16.897 530.972)"/>
            </g>
        </g>
    </g>
</svg>
