<svg xmlns="http://www.w3.org/2000/svg" width="34.749" height="22.484" viewBox="0 0 34.749 22.484">
    <defs>
        <style>
            .cls-1{fill:#161615}
        </style>
    </defs>
    <g id="하천뷰" transform="translate(-63.986 -254.982)">
        <g id="그룹_2228">
            <g id="그룹_2227">
                <path id="패스_1927" d="M88.01 277.466c-.831 0-3.851-.36-5.715-5.349-1.714-4.586-4.737-6.91-10.434-8.02-6.453-1.257-6.425-6.65-6.424-6.7l1 .017c0 .188.006 4.613 5.616 5.706 6.087 1.186 9.326 3.692 11.178 8.652 1.842 4.928 4.759 4.7 4.883 4.694l.109.994a1.983 1.983 0 0 1-.213.006z" class="cls-1"/>
            </g>
        </g>
        <g id="그룹_2230">
            <g id="그룹_2229">
                <path id="패스_1928" d="M96.019 268.519c-3.847 0-6.841-3.788-6.878-3.834a12.845 12.845 0 0 0-9.851-4.959c-5.669 0-9.137-.744-10.307-2.211a1.455 1.455 0 0 1-.369-1.2l.974.223-.487-.111.493.08c0 .008-.012.19.236.459.607.657 2.642 1.759 9.46 1.759a13.624 13.624 0 0 1 10.656 5.365c.025.032 4.019 5.067 8.336 2.868l.453.892a5.925 5.925 0 0 1-2.716.669z" class="cls-1"/>
            </g>
        </g>
        <g id="그룹_2237">
            <g id="그룹_2232">
                <g id="그룹_2231">
                    <path id="사각형_1043" d="M0 0H1V1.824H0z" class="cls-1" transform="rotate(-14.76 1060.292 -114.159)"/>
                </g>
            </g>
            <g id="그룹_2234">
                <g id="그룹_2233">
                    <path id="사각형_1044" d="M0 0H1.824V1H0z" class="cls-1" transform="rotate(-75.285 207.086 89.496)"/>
                </g>
            </g>
            <g id="그룹_2236">
                <g id="그룹_2235">
                    <path id="사각형_1045" d="M0 0H1V1.785H0z" class="cls-1" transform="translate(66.17 265.188)"/>
                </g>
            </g>
        </g>
        <g id="그룹_2244">
            <g id="그룹_2239">
                <g id="그룹_2238">
                    <path id="사각형_1046" d="M0 0H1V1.823H0z" class="cls-1" transform="rotate(-14.76 1091.452 -141.331)"/>
                </g>
            </g>
            <g id="그룹_2241">
                <g id="그룹_2240">
                    <path id="사각형_1047" d="M0 0H1.823V1H0z" class="cls-1" transform="rotate(-75.285 215.6 87.865)"/>
                </g>
            </g>
            <g id="그룹_2243">
                <g id="그룹_2242">
                    <path id="사각형_1048" d="M0 0H1V1.785H0z" class="cls-1" transform="translate(74.099 272.207)"/>
                </g>
            </g>
        </g>
        <g id="그룹_2251">
            <g id="그룹_2246">
                <g id="그룹_2245">
                    <path id="사각형_1049" d="M0 0H1V1.823H0z" class="cls-1" transform="rotate(-14.76 1029.364 -185.378)"/>
                </g>
            </g>
            <g id="그룹_2248">
                <g id="그룹_2247">
                    <path id="사각형_1050" d="M0 0H1.823V1H0z" class="cls-1" transform="rotate(-75.285 209.004 73.329)"/>
                </g>
            </g>
            <g id="그룹_2250">
                <g id="그룹_2249">
                    <path id="사각형_1051" d="M0 0H1V1.785H0z" class="cls-1" transform="translate(83.238 254.982)"/>
                </g>
            </g>
        </g>
        <g id="그룹_2253" style="mix-blend-mode:multiply;isolation:isolate">
            <g id="그룹_2252">
                <rect id="사각형_1052" width="10.104" height="10.104" fill="#16adb9" rx="5.052" transform="translate(86.899 258.131)"/>
            </g>
        </g>
        <g id="그룹_2255">
            <g id="그룹_2254">
                <path id="패스_1929" d="M80.616 263.418c-.031-.018-3.151-1.84-5.49-1.839-3.032.032-4.191-.635-4.315-.71l.512-.859a7.991 7.991 0 0 0 3.795.569h.041c2.611 0 5.832 1.9 5.969 1.98z" class="cls-1"/>
            </g>
        </g>
        <g id="그룹_2257">
            <g id="그룹_2256">
                <path id="패스_1930" d="M81.319 267.026a6.947 6.947 0 0 0-3.978-3.1l.268-.964a7.853 7.853 0 0 1 4.611 3.632z" class="cls-1"/>
            </g>
        </g>
        <g id="그룹_2259">
            <g id="그룹_2258">
                <path id="패스_1931" d="M92.978 273.078a6.094 6.094 0 0 1-5.255-2.97l.886-.463a5.052 5.052 0 0 0 5.419 2.344l.163.987a7.5 7.5 0 0 1-1.213.102z" class="cls-1"/>
            </g>
        </g>
    </g>
</svg>
