<svg xmlns="http://www.w3.org/2000/svg" width="24.51" height="21.248" viewBox="0 0 24.51 21.248">
    <defs>
        <style>
            .cls-1{fill:#161615}
        </style>
    </defs>
    <g id="바다근접" transform="translate(-72.873 -354.89)">
        <g id="그룹_2410">
            <g id="그룹_2407">
                <g id="그룹_2388">
                    <g id="그룹_2387">
                        <path id="패스_1953" d="M72.873 367.08v-1a3.554 3.554 0 0 0 2.116-.692l.592.807a4.554 4.554 0 0 1-2.708.885z" class="cls-1"/>
                    </g>
                </g>
                <g id="그룹_2390">
                    <g id="그룹_2389">
                        <path id="패스_1954" d="M89.213 367.08a5.924 5.924 0 0 1-2.708-.862l.522-.853a4.983 4.983 0 0 0 2.186.715 3.589 3.589 0 0 0 3.585-3.585h1a4.59 4.59 0 0 1-4.585 4.585z" class="cls-1"/>
                    </g>
                </g>
                <g id="그룹_2392">
                    <g id="그룹_2391">
                        <path id="패스_1955" d="M72.873 371.609v-1a4.563 4.563 0 0 0 3.683-2.466l.913.407a5.514 5.514 0 0 1-4.596 3.059z" class="cls-1"/>
                    </g>
                </g>
                <g id="그룹_2394">
                    <g id="그룹_2393">
                        <path id="패스_1956" d="M89.213 371.609a5.789 5.789 0 0 1-4.625-3.187L85.5 368a4.832 4.832 0 0 0 3.716 2.605 3.59 3.59 0 0 0 3.585-3.586h1a4.591 4.591 0 0 1-4.588 4.59z" class="cls-1"/>
                    </g>
                </g>
                <g id="그룹_2396">
                    <g id="그룹_2395">
                        <path id="패스_1957" d="M72.873 376.138v-1a3.59 3.59 0 0 0 3.585-3.585h1a4.59 4.59 0 0 1-4.585 4.585z" class="cls-1"/>
                    </g>
                </g>
                <g id="그룹_2398">
                    <g id="그룹_2397">
                        <path id="패스_1958" d="M81.043 376.138a4.59 4.59 0 0 1-4.585-4.585h1a3.585 3.585 0 0 0 7.17 0h1a4.59 4.59 0 0 1-4.585 4.585z" class="cls-1"/>
                    </g>
                </g>
                <g id="그룹_2400">
                    <g id="그룹_2399">
                        <path id="패스_1959" d="M89.213 376.138a4.59 4.59 0 0 1-4.585-4.585h1a3.585 3.585 0 0 0 7.17 0h1a4.59 4.59 0 0 1-4.585 4.585z" class="cls-1"/>
                    </g>
                </g>
                <g id="그룹_2402">
                    <g id="그룹_2401">
                        <path id="패스_1960" d="M97.383 367.08a4.59 4.59 0 0 1-4.585-4.585h1a3.59 3.59 0 0 0 3.585 3.585z" class="cls-1"/>
                    </g>
                </g>
                <g id="그룹_2404">
                    <g id="그룹_2403">
                        <path id="패스_1961" d="M97.383 371.609a4.591 4.591 0 0 1-4.585-4.586h1a3.59 3.59 0 0 0 3.585 3.586z" class="cls-1"/>
                    </g>
                </g>
                <g id="그룹_2406">
                    <g id="그룹_2405">
                        <path id="패스_1962" d="M97.383 376.138a4.59 4.59 0 0 1-4.585-4.585h1a3.59 3.59 0 0 0 3.585 3.585z" class="cls-1"/>
                    </g>
                </g>
            </g>
            <g id="그룹_2409" style="mix-blend-mode:multiply;isolation:isolate">
                <g id="그룹_2408">
                    <rect id="사각형_1075" width="10.104" height="10.104" fill="#16adb9" rx="5.052" transform="translate(79.99 354.89)"/>
                </g>
            </g>
        </g>
        <g id="그룹_2415">
            <g id="그룹_2412">
                <g id="그룹_2411">
                    <path id="패스_1963" d="M81.043 374l-.36-.373c-.257-.267-6.288-6.558-6.288-10.114a6.648 6.648 0 1 1 13.3 0c0 3.556-6.031 9.847-6.288 10.114zm0-16.136a5.654 5.654 0 0 0-5.648 5.649c0 2.449 3.788 7.035 5.648 9.038 1.859-2 5.648-6.591 5.648-9.038a5.655 5.655 0 0 0-5.648-5.653z" class="cls-1"/>
                </g>
            </g>
            <g id="그룹_2414">
                <g id="그룹_2413">
                    <path id="패스_1964" d="M81.043 366.378a3.334 3.334 0 1 1 3.334-3.334 3.338 3.338 0 0 1-3.334 3.334zm0-5.668a2.334 2.334 0 1 0 2.334 2.334 2.337 2.337 0 0 0-2.334-2.334z" class="cls-1"/>
                </g>
            </g>
        </g>
    </g>
</svg>
