<svg xmlns="http://www.w3.org/2000/svg" width="24.533" height="17.74" viewBox="0 0 24.533 17.74">
    <defs>
        <style>
            .cls-1{fill:#161615}
        </style>
    </defs>
    <g id="혼캠" transform="translate(-66.308 -11.618)">
        <g id="혼캠-2">
            <g id="그룹_1858">
                <g id="그룹_1857">
                    <path id="패스_1854" d="M67.308 29.357h-1v-3.746a5.259 5.259 0 0 1 2.608-4.516 4 4 0 1 1 5.324.043 5.258 5.258 0 0 1 1.991 2.162l.052.1v1.354h-1v-1.108a4.264 4.264 0 0 0-2.2-1.97l-1-.394.941-.51a3 3 0 1 0-2.893-.024l.936.526-1 .378a4.257 4.257 0 0 0-2.757 3.959z" class="cls-1"/>
                </g>
            </g>
            <g id="그룹_1860" style="mix-blend-mode:multiply;isolation:isolate">
                <g id="그룹_1859">
                    <rect id="사각형_973" width="10.104" height="10.104" fill="#16adb9" rx="5.052" transform="translate(80.737 11.618)"/>
                </g>
            </g>
        </g>
        <g id="그룹_1863">
            <g id="그룹_1862">
                <path id="패스_1855" d="M89.253 29.358h-7.224L80.97 24.6l-1.059 4.755h-7.224l6.664-11.967-.957-3.3h1.916l.66 1.59.661-1.59h1.915l-.958 3.3zm-6.422-1h4.721l-6.04-10.845.512-1.766-1.054 2.537-1.054-2.537.511 1.766-6.039 10.845h4.721L80.97 20z" class="cls-1"/>
            </g>
        </g>
    </g>
</svg>
