<svg xmlns="http://www.w3.org/2000/svg" width="32.041" height="21.02" viewBox="0 0 32.041 21.02">
    <defs>
        <style>
            .cls-1{fill:#161615}
        </style>
    </defs>
    <g id="일출뷰" transform="translate(-216.09 -255.335)">
        <g id="그룹_2209">
            <g id="그룹_2192">
                <g id="그룹_2191">
                    <path id="패스_1918" d="M231.979 270.942a13.72 13.72 0 0 1-5.753-1.275c-5.836-2.673-9.493.04-9.529.068l-.607-.795c.167-.127 4.176-3.1 10.552-.183a12.713 12.713 0 0 0 10.911-.122c.178-.1 4.417-2.459 10.51.45l-.431.9c-5.624-2.684-9.543-.506-9.582-.484a13.1 13.1 0 0 1-6.071 1.441z" class="cls-1"/>
                </g>
            </g>
            <g id="그룹_2194">
                <g id="그룹_2193">
                    <path id="패스_1919" d="M232.013 273.722a13.725 13.725 0 0 1-5.753-1.276c-5.8-2.656-9.379-.042-9.529.07l-.606-.8c.168-.127 4.175-3.1 10.551-.183a12.711 12.711 0 0 0 10.911-.122c.177-.1 4.417-2.46 10.511.45l-.43.9c-5.626-2.686-9.545-.506-9.583-.484a13.1 13.1 0 0 1-6.072 1.445z" class="cls-1"/>
                </g>
            </g>
            <g id="그룹_2196">
                <g id="그룹_2195">
                    <path id="패스_1920" d="M232.046 276.355a13.718 13.718 0 0 1-5.752-1.275c-5.836-2.671-9.493.04-9.529.069l-.607-.795c.168-.128 4.175-3.1 10.552-.183a12.721 12.721 0 0 0 10.911-.122c.177-.1 4.416-2.46 10.51.45l-.43.9c-5.628-2.687-9.545-.506-9.583-.484a13.1 13.1 0 0 1-6.072 1.44z" class="cls-1"/>
                </g>
            </g>
            <g id="그룹_2198">
                <g id="그룹_2197">
                    <path id="패스_1921" d="M240.123 268.5h-1a6.692 6.692 0 0 0-13.384 0h-1a7.692 7.692 0 0 1 15.384 0z" class="cls-1"/>
                </g>
            </g>
            <g id="그룹_2200">
                <g id="그룹_2199">
                    <path id="사각형_1036" d="M0 0H1V3.254H0z" class="cls-1" transform="rotate(-66.285 311.617 -37.093)"/>
                </g>
            </g>
            <g id="그룹_2202">
                <g id="그룹_2201">
                    <path id="사각형_1037" d="M0 0H3.253V1H0z" class="cls-1" transform="rotate(-36.3 521.101 -235.33)"/>
                </g>
            </g>
            <g id="그룹_2204">
                <g id="그룹_2203">
                    <path id="사각형_1038" d="M0 0H3.253V1H0z" class="cls-1" transform="rotate(-66.276 317.002 -51.313)"/>
                </g>
            </g>
            <g id="그룹_2206">
                <g id="그룹_2205">
                    <path id="사각형_1039" d="M0 0H1V3.253H0z" class="cls-1" transform="rotate(-6.28 2429.535 -1967.48)"/>
                </g>
            </g>
            <g id="그룹_2208">
                <g id="그룹_2207">
                    <path id="사각형_1040" d="M0 0H1V3.253H0z" class="cls-1" transform="rotate(-36.283 505.774 -213.81)"/>
                </g>
            </g>
        </g>
        <g id="그룹_2211" style="mix-blend-mode:multiply;isolation:isolate">
            <g id="그룹_2210">
                <rect id="사각형_1041" width="10.104" height="10.104" fill="#16adb9" rx="5.052" transform="translate(233.963 260.038)"/>
            </g>
        </g>
    </g>
</svg>
