<svg xmlns="http://www.w3.org/2000/svg" width="32.042" height="20.239" viewBox="0 0 32.042 20.239">
    <defs>
        <style>
            .cls-1{fill:#161615}
        </style>
    </defs>
    <g id="그룹_2324" transform="translate(-262.417 -254.116)">
        <g id="일몰뷰" transform="translate(0 -2)">
            <g id="그룹_2220">
                <g id="그룹_2213">
                    <g id="그룹_2212">
                        <path id="패스_1922" d="M278.306 270.942a13.719 13.719 0 0 1-5.753-1.275c-5.836-2.673-9.492.04-9.529.068l-.607-.795c.168-.127 4.175-3.1 10.552-.183a12.713 12.713 0 0 0 10.911-.122c.177-.1 4.416-2.458 10.511.45l-.431.9c-5.627-2.685-9.544-.506-9.583-.484a13.1 13.1 0 0 1-6.071 1.441z" class="cls-1"/>
                    </g>
                </g>
                <g id="그룹_2215">
                    <g id="그룹_2214">
                        <path id="패스_1923" d="M278.34 273.722a13.728 13.728 0 0 1-5.753-1.276c-5.8-2.656-9.379-.042-9.529.07l-.606-.8c.168-.127 4.176-3.1 10.552-.183a12.714 12.714 0 0 0 10.911-.122c.177-.1 4.416-2.46 10.51.45l-.43.9c-5.627-2.686-9.545-.506-9.583-.484a13.1 13.1 0 0 1-6.072 1.445z" class="cls-1"/>
                    </g>
                </g>
                <g id="그룹_2217">
                    <g id="그룹_2216">
                        <path id="패스_1924" d="M278.374 276.355a13.719 13.719 0 0 1-5.753-1.275c-5.837-2.671-9.493.04-9.529.069l-.607-.795c.167-.128 4.176-3.1 10.552-.183a12.721 12.721 0 0 0 10.911-.122c.177-.1 4.417-2.46 10.511.45l-.431.9c-5.627-2.687-9.545-.506-9.583-.484a13.1 13.1 0 0 1-6.071 1.44z" class="cls-1"/>
                    </g>
                </g>
                <g id="그룹_2219">
                    <g id="그룹_2218">
                        <path id="패스_1925" d="M286.45 268.5h-1a6.692 6.692 0 0 0-13.384 0h-1a7.692 7.692 0 0 1 15.384 0z" class="cls-1"/>
                    </g>
                </g>
            </g>
            <g id="그룹_2222" style="mix-blend-mode:multiply;isolation:isolate">
                <g id="그룹_2221">
                    <rect id="사각형_1042" width="10.104" height="10.104" fill="#16adb9" rx="5.052" transform="translate(267.217 260.038)"/>
                </g>
            </g>
            <g id="그룹_2225">
                <g id="그룹_2224">
                    <g id="그룹_2223">
                        <path id="패스_1926" d="M286.953 262.649a3.254 3.254 0 0 1-1.1-.2.5.5 0 0 1 0-.941 2.251 2.251 0 0 0 0-4.246.5.5 0 0 1 0-.94 3.261 3.261 0 1 1 1.1 6.329zm.534-5.468a3.234 3.234 0 0 1 0 4.4 2.266 2.266 0 0 0 0-4.4z" class="cls-1"/>
                    </g>
                </g>
            </g>
        </g>
    </g>
</svg>
