<svg xmlns="http://www.w3.org/2000/svg" width="26.642" height="25.95" viewBox="0 0 26.642 25.95">
    <defs>
        <style>
            .cls-1{fill:#161615}
        </style>
    </defs>
    <g id="수도사용" transform="translate(-113.576 -151.089)">
        <g id="그룹_2022">
            <g id="그룹_2019">
                <g id="그룹_2018">
                    <path id="패스_1894" d="M127.675 168a5.766 5.766 0 0 1-5.389-3.715h-1.57v1h1.519V168h-8.659v-2.715h1.511v-6.855h8.2a5.793 5.793 0 0 1 2.917-1.844v-1.4H122.2v-2.659h4v-1.437h2.947v1.437h4.005v2.659h-4.005v1.4a5.8 5.8 0 0 1 2.917 1.844h3.663v-2.085h4.489v9.723h-4.489v-1.787h-2.664a5.765 5.765 0 0 1-5.388 3.719zm-7.959-4.715h3.291l.11.349a4.77 4.77 0 0 0 9.117 0l.11-.349h4.385v1.787h2.489v-7.723h-2.489v2.085h-5.142l-.15-.191a4.79 4.79 0 0 0-2.88-1.762l-.408-.076v-3.216h4.005v-.659h-4.005v-1.437h-.949v1.437h-4v.659h4v3.211l-.408.076a4.788 4.788 0 0 0-2.879 1.762l-.151.191h-7.677v6.851h-1.511v.72h6.659v-.715h-1.519z" class="cls-1"/>
                </g>
            </g>
            <g id="그룹_2021">
                <g id="그룹_2020">
                    <path id="패스_1895" d="M117.978 177.039a2.677 2.677 0 0 1-2.656-3.918l2.665-4.517 2.649 4.522a2.676 2.676 0 0 1-2.658 3.913zm.009-6.475l-1.805 3.069a1.967 1.967 0 0 0-.173.789 2.007 2.007 0 0 0 3.938 0 1.992 1.992 0 0 0-.169-.782z" class="cls-1"/>
                </g>
            </g>
        </g>
        <g id="그룹_2024" style="mix-blend-mode:multiply;isolation:isolate">
            <g id="그룹_2023">
                <rect id="사각형_1000" width="10.104" height="10.104" fill="#16adb9" rx="5.052" transform="translate(124.795 159.568)"/>
            </g>
        </g>
    </g>
</svg>
