<svg xmlns="http://www.w3.org/2000/svg" width="25.929" height="26.56" viewBox="0 0 25.929 26.56">
    <defs>
        <style>
            .cls-1{fill:#161615}
        </style>
    </defs>
    <g id="개수대" transform="translate(-17.432 -150.695)">
        <g id="그룹_2045">
            <g id="그룹_2042">
                <g id="그룹_2035">
                    <g id="그룹_2034">
                        <path id="패스_1898" d="M43.361 173.115H19.922v-10.954h23.439zm-22.439-1h21.439v-8.954H20.922z" class="cls-1"/>
                    </g>
                </g>
                <g id="그룹_2037">
                    <g id="그룹_2036">
                        <path id="패스_1899" d="M41.808 163.161h-4.165v-4.777H31.91v-3.926h5.972v-.931h-1.294V150.7h5.419v2.832h-1.294v.931h1.095zm-3.165-1h2.165v-6.7h-1.095v-2.931h1.294v-.83h-3.419v.832h1.294v2.931H32.91v1.926h5.733z" class="cls-1"/>
                    </g>
                </g>
                <g id="그룹_2039">
                    <g id="그룹_2038">
                        <path id="패스_1900" d="M23.813 177.255h-3.891v-5.141h3.891zm-2.891-1h1.891v-3.141h-1.891z" class="cls-1"/>
                    </g>
                </g>
                <g id="그룹_2041">
                    <g id="그룹_2040">
                        <path id="패스_1901" d="M43.361 177.255H39.47v-5.141h3.891zm-2.891-1h1.891v-3.141H40.47z" class="cls-1"/>
                    </g>
                </g>
            </g>
            <g id="그룹_2044">
                <g id="그룹_2043">
                    <path id="패스_1902" d="M26.023 160.022a2.536 2.536 0 0 1-2.512-3.714l2.52-4.273 2.507 4.278a2.536 2.536 0 0 1-2.515 3.709zm.008-6.022l-1.661 2.823a1.829 1.829 0 0 0-.157.723 1.847 1.847 0 0 0 3.62 0 1.836 1.836 0 0 0-.154-.716l-.005-.01z" class="cls-1"/>
                </g>
            </g>
        </g>
        <g id="그룹_2047" style="mix-blend-mode:multiply;isolation:isolate">
            <g id="그룹_2046">
                <rect id="사각형_1002" width="10.104" height="10.104" fill="#16adb9" rx="5.052" transform="translate(17.432 154.515)"/>
            </g>
        </g>
    </g>
</svg>
